SplineFontDB: 3.0
FontName: Coelacanth
FullName: Coelacanth
FamilyName: Coelacanth
Weight: Regular

StartChar: a
Encoding: 97 97 0
GlifName: a
Width: 413
VWidth: 1159
Flags: HMW
HStem: -15 43<75 181> 161 32<153 246> 364 52<128 220>
VStem: 33 64<34 133> 247 65<60 164 191 321>
AnchorPoint: "Bottom" 203 -15 basechar 0
AnchorPoint: "Ogonek" 354 18 basechar 0
AnchorPoint: "Top" 201 465 basechar 0
LayerCount: 2
Fore
SplineSet
254 167 m 1x01d0
 247 168 241 168 234 168 c 3
 209 168 171.077136087 162.843775526 159 157 c 0
 128 142 103 125 103 92 c 3
 103 61.966796875 121 34 153 34 c 3
 179 34 220 54 252 72 c 1
 251 84 251 100 251 117 c 3
 251 137 253 152 254 167 c 1x01d0
219 422 m 3
 240 422 305.870253473 374.918173114 316 359 c 0
 323 348 325 324 325 310 c 3
 325 244 320 181 320 117 c 3
 320 97 322.451212183 76.153333138 326 65 c 0
 333 43 344 42 348 42 c 3
 358 42 378 50 393 59 c 1
 406 31 l 1
 367 15 307 -11 297 -11 c 3x05b0
 287 -11 264 3 254 49 c 1
 202 18 159 -9 102 -9 c 3
 50 -9 41 27 41 71 c 3x03d0
 41 94 42.7150180244 117.66837539 48 130 c 0
 54 144 58 146 68 151 c 0
 130 182 182 190 255 200 c 1
 256 231 257 279 257 279 c 3
 257 305 252.770978795 316.843531807 246 327 c 0
 236 342 195 370 167 370 c 3
 137 370 131 360 131 342 c 3
 131 333 137 320 138 315 c 1
 63 285 l 1
 59 295 54 315 54 325 c 3x03b0
 54 339 61.6477211573 352.981194233 81 366 c 0
 136 403 204 422 219 422 c 3
EndSplineSet
Validated: 1
Substitution2: "case-1" A
Substitution2: "pcap-1" a.pcap
Substitution2: "smcp-1" a.smcp
EndChar

StartChar: b
Encoding: 98 98 1
GlifName: b
Width: 507
VWidth: 1159
Flags: HMW
HStem: -9 44<177 317> 369 43<190 315>
VStem: 72 65<68 347 368 624> 398 69<122 283>
AnchorPoint: "Bottom" 248 -15 basechar 0
AnchorPoint: "Top" 104 749 basechar 0
LayerCount: 2
Fore
SplineSet
137 332 m 9
 136 241 135 189 135 98 c 3
 135 92 139 85 146 79 c 0
 177 52 219 36 260 36 c 3
 337 36 398 96 398 180 c 3
 398 270 344 369 243 369 c 3
 199 369 147 342 137 332 c 9
3 683 m 1
 40 690 96 718 146 759 c 1
 167 743 l 1
 157 717 149 687 148 667 c 0
 143 599 137 484 137 368 c 1
 170 382 226 412 286 412 c 3
 391 412 467 315 467 223 c 3
 467 94 351 -9 210 -9 c 7
 148 -9 141 15 108 15 c 3
 85 15 70 -3 63 -10 c 1
 45 2 l 1
 47 8 51 22 55 31 c 0
 61 49 67 69 68 145 c 0
 70 288 72 367 72 510 c 3
 72 570 72 607 68 627 c 0
 63 654 56 656 38 656 c 3
 28 656 17 654 8 654 c 1
 3 683 l 1
EndSplineSet
Validated: 1
Substitution2: "case-1" B
Substitution2: "pcap-1" b.pcap
Substitution2: "smcp-1" b.smcp
EndChar

StartChar: c
Encoding: 99 99 2
GlifName: c
Width: 421
VWidth: 1159
Flags: HMW
HStem: -15 52<185 333> 357 60<169 308>
VStem: 34 71<119 282>
AnchorPoint: "Bottom" 228 -15 basechar 0
AnchorPoint: "Top" 231 465 basechar 0
LayerCount: 2
Fore
SplineSet
338 313 m 1
 300 333 248 353 214 353 c 3
 144 353 106 300.154929577 106 219 c 3
 106 113 178 40 274 40 c 3
 313 40 346 56 369 72 c 1
 385 46 l 1
 351 19 292 -11 232 -11 c 3
 183 -11 34 7 34 182 c 3
 34 307.648535565 145 413 267 413 c 3
 315 413 364 393 395 370 c 1
 394 343 393 345 338 313 c 1
EndSplineSet
Validated: 1
Substitution2: "case-1" C
Substitution2: "pcap-1" c.pcap
Substitution2: "smcp-1" c.smcp
EndChar

StartChar: d
Encoding: 100 100 3
GlifName: d
Width: 511
VWidth: 1159
Flags: HMW
HStem: 451 102<-225.927 -142.073>
VStem: -236 104<460.954 543.046>
AnchorPoint: "Bottom" 224 -15 basechar 0
AnchorPoint: "Top" 390 734 basechar 0
AnchorPoint: "TopRight" 503.5 581 basechar 0
LayerCount: 2
Fore
SplineSet
361 53 m 1
 317 23 260 -5 197 -5 c 3
 97 -5 34 79 34 172 c 3
 34 252 80 321 135 359 c 0
 181 390 237 405 267 405 c 3
 292 405 349 388 363 386 c 1
 363 504 362 563 361 626 c 0
 361 642 354 656 337 656 c 3
 331 656 306 650 296 649 c 1
 288 681 l 1
 340 692 399 720 442 754 c 1
 462 738 l 1
 456 724 449 697 448 686 c 0
 428 531 427 354 427 185 c 3
 427 133 428 80 435 32 c 0
 437 18 448 22 449 22 c 0
 463 26 490 34 502 38 c 1
 511 11 l 1
 458 -9 395 -32 381 -32 c 3
 374 -32 365 -30 363 -15 c 0
 361 8 361 49 361 53 c 1
228 359 m 3
 206 359 175 345 155 333 c 0
 123 312 98 278 98 226 c 3
 98 136 154 44 256 44 c 3
 297 44 333 60 358 80 c 1
 359 154 362 231 362 306 c 0
 362 337 336 340 310 346 c 0
 284 352 238 359 228 359 c 3
EndSplineSet
Validated: 1
Substitution2: "case-1" D
Substitution2: "pcap-1" d.pcap
Substitution2: "smcp-1" d.smcp
EndChar

StartChar: e
Encoding: 101 101 4
GlifName: e
Width: 409
VWidth: 1159
Flags: HMW
HStem: 425 168
VStem: 53 185
AnchorPoint: "Bottom" 213 -15 basechar 0
AnchorPoint: "Ogonek" 306.65 23 basechar 0
AnchorPoint: "Top" 217 465 basechar 0
LayerCount: 2
Fore
SplineSet
213 415 m 3
 271 415 331.644432889 369.853361067 352 321 c 0
 357 309 372 301 383 300 c 1
 383 276 l 1
 298 261 194 239 112 219 c 1
 112 213 111 206 111 200 c 3
 111 86 181 40 240 40 c 3
 287 40 326 62 354 85 c 1
 375 58 l 1
 333 25 273 -10 204 -10 c 3
 97 -10 36 73 36 180 c 3
 36 355 179 415 213 415 c 3
199 368 m 3
 145 368 118 300.796610169 114 246 c 1
 285 282 l 0
 293 283 l 1
 283 322.87654321 241 368 199 368 c 3
EndSplineSet
Validated: 1
Substitution2: "case-1" E
Substitution2: "pcap-1" e.pcap
Substitution2: "smcp-1" e.smcp
EndChar

StartChar: f
Encoding: 102 102 5
GlifName: f
Width: 357
VWidth: 1159
Flags: HMW
HStem: -6 37<34 97 191 283> 355 47<39 113 187 338> 701 55<268 384>
VStem: 114 70<42 369 405 614>
AnchorPoint: "Bottom" 156 -15 basechar 0
AnchorPoint: "Top" 262 748 basechar 0
LayerCount: 2
Fore
SplineSet
359 756 m 7
 391 756 441 745 466 723 c 5
 465 696 466 696 417 659 c 5
 378 677 347 701 309 701 c 7
 206 701 201 609 191 498 c 4
 190 488 188 435 187 397 c 5
 239 399 286 399 338 401 c 5
 338 355 l 5
 286 357 238 358 186 360 c 5
 185 330 185 305 185 293 c 7
 185 211 186 134 191 54 c 4
 192 39 198 34 214 33 c 4
 239 32 262 32 287 31 c 5
 284 -6 l 5
 242 -1 182 1 140 1 c 7
 110 1 64 -2 34 -6 c 5
 33 30 l 5
 44 31 58 31 69 33 c 4
 100 40 104 53 106 81 c 4
 111 133 114 201 114 266 c 7
 114 286 113 323 113 360 c 5
 88 359 64 356 39 355 c 5
 39 401 l 5
 64 400 88 398 113 397 c 5
 113 436 113 481 113 493 c 7
 113 601 156 657 224 704 c 4
 263 731 300 756 359 756 c 7
EndSplineSet
Validated: 1
Substitution2: "salt-1" f.alt
Substitution2: "case-1" F
Substitution2: "pcap-1" f.pcap
Substitution2: "smcp-1" f.smcp
EndChar

StartChar: g
Encoding: 103 103 6
GlifName: g
Width: 475
VWidth: 1159
Flags: HMW
HStem: -335 65<94 297> -106 69<153 388> 362 42<153 268>
VStem: 45 68<155 306> 321 73<144 309> 404 48<-213 -122>
AnchorPoint: "Bottom" 225 -318 basechar 0
AnchorPoint: "Top" 224 465 basechar 0
LayerCount: 2
Fore
SplineSet
149 -1 m 3
 149 -23 186 -31 219 -31 c 3
 250 -31 277 -25 308 -25 c 3
 408 -25 450 -88 450 -143 c 3
 450 -271 268 -335 173 -335 c 3
 62 -335 20 -267 20 -218 c 3
 20 -135.514705882 103 -85.3970588235 117 -76 c 1
 80 -48 67 -25 62 6 c 1
 93 28.4 147 50.8 181 62 c 1
 105 77 45 138 45 227 c 3
 45 351 160 415 233 415 c 3
 272 415 310 402 341 377 c 1
 367 383 390 387 420 387 c 3
 435 387 454 384 460 380 c 1
 442 321 l 1
 422 330 403 335 383 335 c 0
 378 335 374 335 368 334 c 1
 383 306 395 279 395 240 c 3
 395 139 307 92 238 62 c 0
 156 24.4210526316 149 18.8947368421 149 -1 c 3
204 374 m 3
 142 374 112 323 112 258 c 3
 112 163 170 118 241 93 c 1
 288 114 321 152 321 217 c 3
 321 288 290 374 204 374 c 3
66 -191 m 3
 66 -259 155 -269 208 -269 c 3
 242 -269 404 -238.206185567 404 -166 c 3
 404 -117 361 -95 309 -95 c 3
 281 -95 252 -100 224 -100 c 3
 197 -100 169 -98 153 -94 c 1
 88 -121.714285714 66 -156.89010989 66 -191 c 3
EndSplineSet
Validated: 1
Substitution2: "case-1" G
Substitution2: "pcap-1" g.pcap
Substitution2: "smcp-1" g.smcp
EndChar

StartChar: h
Encoding: 104 104 7
GlifName: h
Width: 531
VWidth: 1159
Flags: HMW
HStem: -7 33<21 68 169 229 322 368 450 517> 353 50<219 349>
VStem: 92 70<42 333 352 611> 379 68<33 322>
AnchorPoint: "Bottom" 275 -15 basechar 0
AnchorPoint: "Top" 120 733 basechar 0
LayerCount: 2
Fore
SplineSet
161 330 m 5
 159 290.477272727 157 239.204545455 157 189 c 7
 157 130 159.174662365 75.1900322616 162 54 c 4
 164 39 183.085896873 34.4253562504 194 32 c 4
 203 30 222 28 232 27 c 5
 228 -7 l 5
 189 -1 159 4 117 4 c 7
 87 4 51 -1 21 -5 c 5
 18 28 l 5
 29 30 35.1817100136 30.1778373948 46 33 c 4
 69 39 81.3132247115 48.0575369992 84 76 c 4
 89 128 92 209 92 274 c 7
 92 511 90.315871388 604.946057792 89 626 c 4
 88 642 82 656 65 656 c 7
 59 656 33 650 23 649 c 5
 15 681 l 5
 67 692 127 720 170 754 c 5
 189 738 l 5
 183 724 176.623969079 696.925324912 175 686 c 4
 165 617.886227545 162 471.928143713 161 361 c 5
 214 394.48 288 415 330 415 c 7
 403 415 440.73192969 367.108393691 444 301 c 4
 445 280.771428571 446 234.695238095 446 183 c 7
 446 126 445 71 445 54 c 4
 445 39 463.085896873 34.4253562504 474 32 c 4
 483 30 510 29 520 27 c 5
 515 -7 l 5
 476 2 450 4 408 4 c 7
 378 4 349 -1 323 -7 c 5
 320 26 l 5
 331 28 336.181710014 28.1778373948 347 31 c 4
 370 37 372.518179079 48.1454326353 376 76 c 4
 378 92 379 128 379 143 c 7
 379 191.46875 377.600156558 264.399147626 374 284 c 4
 365 333 343 366 288 366 c 7
 240 366 194 350.25 161 330 c 5
EndSplineSet
Validated: 1
Substitution2: "case-1" H
Substitution2: "pcap-1" h.pcap
Substitution2: "smcp-1" h.smcp
EndChar

StartChar: k
Encoding: 107 107 10
GlifName: k
Width: 486
VWidth: 1159
Flags: HMW
HStem: -6 33<17 67 297 341 441 484> 371 32<251 284 383 449>
VStem: 88 63<55 214 237 488>
DStem2: 215 255 161 220 0.728431 -0.685119<0 239.996>
AnchorPoint: "Bottom" 242 -15 basechar 0
AnchorPoint: "Top" 123 739 basechar 0
LayerCount: 2
Fore
SplineSet
150 237 m 1
 184 262 235 298 266 328 c 0
 273 335 284 348 284 355 c 3
 284 373 260 372 250 374 c 1
 252 401 l 1
 278 399 313 399 340 399 c 3
 373 399 416 399 448 403 c 1
 450 371 l 1
 387 364 350 341 316 319 c 2
 215 255 l 17
 286 187 356 121 429 52 c 5
 445 37 473 29 487 28 c 5
 484 -6 l 5
 450 0 432 4 390 4 c 7
 360 4 328 -3 298 -5 c 5
 295 28 l 5
 331 33 331 37 342 38 c 5
 290 92 215 168 161 220 c 1
 152 214 l 1
 152 146 154 80 158 54 c 0
 160 39 169 38 179 33 c 0
 189 29 199 28 213 27 c 1
 208 -7 l 1
 174 -1 155 4 113 4 c 3
 83 4 47 -3 17 -5 c 1
 15 28 l 1
 26 29 37 31 47 33 c 0
 70 40 77 48 79 76 c 0
 84 128 88 209 88 274 c 3
 88 534 86 594 84 626 c 0
 83 642 77 656 60 656 c 3
 54 656 29 650 19 649 c 1
 11 681 l 1
 63 692 122 720 165 754 c 1
 185 738 l 1
 179 724 172 697 171 686 c 0
 161 611 150 361 150 237 c 1
EndSplineSet
Validated: 1
Substitution2: "case-1" K
Substitution2: "pcap-1" k.pcap
Substitution2: "smcp-1" k.smcp
EndChar

StartChar: l
Encoding: 108 108 11
GlifName: l
Width: 248
VWidth: 1159
Flags: HMW
HStem: -7 33<9 67 174 243>
VStem: 91 70<57 558>
AnchorPoint: "Bottom" 119 -15 basechar 0
AnchorPoint: "TopRight" 242 581 basechar 0
AnchorPoint: "Top" 121 734 basechar 0
LayerCount: 2
Fore
SplineSet
160 300 m 3
 160 218 160 91 166 54 c 0
 168 39 187 35 198 33 c 0
 214 29 232 28 246 27 c 1
 241 -7 l 1
 202 -1 158 4 116 4 c 3
 86 4 40 -1 10 -5 c 1
 8 28 l 1
 19 29 34 31 45 33 c 0
 68 39 81 48 83 76 c 0
 88 128 91 209 91 274 c 3
 91 527 90 603 88 626 c 0
 87 642 81 656 64 656 c 3
 58 656 32 650 22 649 c 1
 14 681 l 1
 66 692 126 720 169 754 c 1
 188 738 l 1
 182 724 176 697 175 686 c 0
 165 611 160 424 160 300 c 3
EndSplineSet
Validated: 1
Substitution2: "case-1" L
Substitution2: "pcap-1" l.pcap
Substitution2: "smcp-1" l.smcp
EndChar

StartChar: m
Encoding: 109 109 12
GlifName: m
Width: 791
VWidth: 1159
Flags: HMW
HStem: -7 33<21 68 170 229 296 348 440 492 572 619 711 776> 348 37<290 599>
VStem: 95 66<44 317 330 333> 367 68<36 321> 637 68<36 306>
AnchorPoint: "Bottom" 390 -15 basechar 0
AnchorPoint: "Top" 407 465 basechar 0
LayerCount: 2
Fore
SplineSet
704 161 m 3
 704 113 707 69 707 54 c 0
 707 39 720.085896873 34.4253562504 731 32 c 0
 740 30 770 29 780 27 c 1
 775 -7 l 1
 736 2 709 4 667 4 c 3
 637 4 599 -1 573 -7 c 1
 569 26 l 1
 580 28 589.770914699 27.6973278528 601 31 c 0
 618 36 626.491767923 47.9341433822 630 76 c 0
 632 92 637 128 637 143 c 3
 637 193.458715596 634.975527698 247.327255972 631 268 c 0
 621 320 603 353 539 353 c 3
 506 353 466 341.576923077 434 326 c 1
 435 319 435 312 435 303 c 3
 435 274.428571429 434 224.142857143 434 183 c 3
 434 128 437 71 437 54 c 0
 437 39 450.085896873 34.4253562504 461 32 c 0
 470 30 486 29 496 27 c 1
 491 -7 l 1
 452 2 438 4 396 4 c 3
 366 4 324 -1 298 -7 c 1
 294 26 l 1
 305 28 319.770914699 27.6973278528 331 31 c 0
 348 36 355.491767923 47.9341433822 359 76 c 0
 361 92 367 128 367 143 c 3
 367 192.15625 362.568812844 265.963259816 360 286 c 0
 355 325 339 363 290 363 c 3
 242 363 203 339 170 319 c 1
 168 229.592274678 161 109.317596567 161 71 c 3
 161 41 173.875388203 36.472135955 194 32 c 0
 203 30 222 28 232 27 c 1
 228 -7 l 1
 189 -1 159 4 117 4 c 3
 87 4 51 -1 21 -5 c 1
 18 28 l 1
 29 30 35.1817100136 30.1778373948 46 33 c 0
 69 39 80.9078853108 49.0206349479 87 76 c 0
 94 107 95 167 95 199 c 3
 95 219 91.2402437197 287.787631367 86 308 c 0
 79 335 72 336 54 336 c 3
 44 336 41 335 32 335 c 1
 30 364 l 1
 67 371 104 375 154 416 c 1
 175 401 l 1
 170 386.802816901 167 366.295774648 167 345 c 1
 215 376 275 415 335 415 c 3
 388 415 414 381 428 348 c 1
 467 370.423076923 524 401 599 401 c 3
 675 401 706 356 706 285 c 3
 706 247.111111111 704 203.481481481 704 161 c 3
EndSplineSet
Validated: 1
Substitution2: "case-1" M
Substitution2: "pcap-1" m.pcap
Substitution2: "smcp-1" m.smcp
EndChar

StartChar: n
Encoding: 110 110 13
GlifName: n
Width: 526
VWidth: 1159
Flags: HMW
HStem: -7 33<21 68 170 229 308 360 454 512> 338 60<237 357>
VStem: 95 66<44 316 330 333> 379 68<36 316>
AnchorPoint: "Bottom" 269 -15 basechar 0
AnchorPoint: "Top" 272 465 basechar 0
LayerCount: 2
Fore
SplineSet
86 308 m 4
 77 334 72 336 54 336 c 7
 44 336 41 335 32 335 c 5
 30 364 l 5
 67 371 104 375 154 416 c 5
 175 401 l 5
 170 387.056338028 167 366.915492958 167 346 c 5
 215 377 267 415 330 415 c 7
 403 415 448 375 448 304 c 7
 448 265.971428571 446 224.485714286 446 183 c 7
 446 126 446.737721518 70.967088615 449 54 c 4
 451 39 463.085896873 34.4253562504 474 32 c 4
 483 30 505 29 515 27 c 5
 510 -7 l 5
 471 2 450 4 408 4 c 7
 378 4 335 -1 309 -7 c 5
 305 26 l 5
 316 28 331.770914699 27.6973278528 343 31 c 4
 360 36 369.491767923 47.9341433822 373 76 c 4
 375 92 379 128 379 143 c 7
 379 192.5 376.161935969 266.771303188 374 287 c 4
 369 328.910447761 348 359 293 359 c 7
 245 359 203 345 170 324 c 5
 168 234.329113924 161 109.430379747 161 71 c 7
 161 41 173.875388203 36.472135955 194 32 c 4
 203 30 222 28 232 27 c 5
 228 -7 l 5
 189 -1 159 4 117 4 c 7
 87 4 51 -1 21 -5 c 5
 18 28 l 5
 29 30 35.1817100136 30.1778373948 46 33 c 4
 69 39 80.9078853108 49.0206349479 87 76 c 4
 94 107 95 167 95 199 c 7
 95 219 92.9313485795 287.976104104 86 308 c 4
EndSplineSet
Validated: 1
Substitution2: "case-1" N
Substitution2: "pcap-1" n.pcap
Substitution2: "smcp-1" n.smcp
EndChar

StartChar: o
Encoding: 111 111 14
GlifName: o
Width: 505
VWidth: 1159
Flags: W
HStem: -11 39<199.926 327.747> 374 45<168.903 305.133>
VStem: 32 76<130.211 291.037> 395 78<107.641 276.826>
AnchorPoint: "Middle" 256 206 basechar 0
AnchorPoint: "Bottom" 250 -15 basechar 0
AnchorPoint: "Ogonek" 342 19.6582 basechar 0
AnchorPoint: "Horn" 421.5 341.8 basechar 0
AnchorPoint: "Top" 252 465 basechar 0
LayerCount: 2
Fore
SplineSet
257 419 m 3
 392 419 473 311 473 205 c 3
 473 78 379 -11 256 -11 c 3
 131 -11 32 71 32 194 c 3
 32 351 167 419 257 419 c 3
236 374 m 3
 156 374 108 304 108 227 c 3
 108 124 178 28 265 28 c 3
 347 28 395 102 395 181 c 3
 395 302 309 374 236 374 c 3
EndSplineSet
Validated: 1
Substitution2: "case-1" O
Substitution2: "pcap-1" o.pcap
Substitution2: "smcp-1" o.smcp
EndChar

StartChar: p
Encoding: 112 112 15
GlifName: p
Width: 513
VWidth: 1159
Flags: HMW
HStem: -342 34<164.753 242> -10 41<180.88 340.791> 355 47<211.583 333.731>
VStem: 89 73<-208.562 7 49.7914 263.889> 415 66<116.734 264.787>
AnchorPoint: "Bottom" 286 -15 basechar 0
AnchorPoint: "Top" 251 465 basechar 0
LayerCount: 2
Fore
SplineSet
89 31 m 3
 89 153 85 273 81 293 c 0
 76 320 62 331 48 331 c 3
 38 331 15 322 6 322 c 1
 0 353 l 1
 37 360 94 385 136 424 c 1
 148 419.652173913 153 418.782608696 155 364 c 1
 198 385 258 411 308 411 c 3
 405 411 481 308.474226804 481 216 c 3
 481 78.119266055 361 -10 244 -10 c 3
 213 -10 183 -2 157 7 c 1
 157 -75 157 -247 162 -284 c 0
 164 -299 183 -303 194 -304 c 0
 210 -305 229 -307 243 -308 c 1
 242 -342 l 1
 203 -341 172 -339 130 -339 c 3
 100 -339 52 -344 22 -348 c 1
 19 -316 l 1
 30 -315 38 -313 49 -311 c 0
 72 -305 78 -294 80 -266 c 0
 85 -214 89 -122 89 31 c 3
264 364 m 3
 212 364 181 345 153 330 c 1
 155 64 l 1
 188 46 225 31 274 31 c 3
 358 31 415 88.1079136691 415 178 c 3
 415 270.497297297 355 364 264 364 c 3
EndSplineSet
Validated: 1
Substitution2: "case-1" P
Substitution2: "pcap-1" p.pcap
Substitution2: "smcp-1" p.smcp
EndChar

StartChar: q
Encoding: 113 113 16
GlifName: q
Width: 491
VWidth: 1159
Flags: HMW
HStem: -337 34<473 508> -9 43<185 329> 375 44<186 331>
VStem: 32 74<114 280> 367 66<-164 26 53 347> 438 18<411 417>
AnchorPoint: "Bottom" 218 -15 basechar 0
AnchorPoint: "Top" 272 465 basechar 0
LayerCount: 2
Fore
SplineSet
362 68 m 1
 364 157.65106383 367 208.323404255 367 297 c 3
 367 303 362.813776741 318.844582472 357 326 c 0
 331 358 284 369 243 369 c 3
 166 369 106 295.85 106 215 c 3
 106 125 159 34 260 34 c 3
 323 34 352 58 362 68 c 1
361 26 m 1
 328 12 277 -9 217 -9 c 3
 112 -9 32 89 32 181 c 3
 32 306.74789916 151 413 292 413 c 3
 369 413 369 389 400 389 c 3
 423 389 431 410 438 417 c 1
 457 406 l 1
 455 400 451.1144823 383.343446901 448 374 c 0
 442 356 438.028943398 335.998090294 433 260 c 0
 431.357498639 235.899852856 432 133.543352601 432 93 c 3
 432 -131 436.383974403 -216.071795228 441 -253 c 0
 445 -285 460.009455009 -296.900945501 471 -298 c 0
 481 -299 503 -301 510 -301 c 1
 508 -337 l 1
 485 -336 451 -335 409 -335 c 3
 379 -335 312 -340 282 -344 c 1
 280 -312 l 1
 291 -311 298.181710014 -310.822162605 309 -308 c 0
 332 -302 353.380423975 -288.051714197 357 -260 c 0
 361 -229 361 -90 361 26 c 1
EndSplineSet
Validated: 33
Substitution2: "case-1" Q
Substitution2: "pcap-1" q.pcap
Substitution2: "smcp-1" q.smcp
EndChar

StartChar: r
Encoding: 114 114 17
GlifName: r
Width: 358
VWidth: 1159
Flags: HMW
HStem: -5 32<30 59 177 273> 316 108<269 335>
VStem: 91 69<53 321>
AnchorPoint: "Bottom" 145 -15 basechar 0
AnchorPoint: "Top" 165.5 465 basechar 0
LayerCount: 2
Fore
SplineSet
160 196 m 0
 160 157 162 62 169 52 c 4
 179 40 189 36 226 34 c 4
 242 33 260 33 274 32 c 5
 273 0 l 5
 234 1 162 4 120 4 c 7
 90 4 60 -1 30 -5 c 5
 28 28 l 5
 39 29 50 29 60 33 c 4
 70 37 85 48 87 76 c 4
 89 101 91 192 91 218 c 3
 91 238 89 279 87 301 c 0
 85 318 76 338 62 338 c 3
 52 338 36 331 27 331 c 1
 21 360 l 1
 58 367 111 398 153 437 c 1
 163 431 168 431 168 417 c 3
 168 406 166 374 166 336 c 1
 168 342 283 422 294 423 c 1
 315 423 349 395 349 368 c 3
 349 337 320 316 281 316 c 1
 275 343 262 348 247 348 c 3
 229 348 167 320 165 293 c 0
 161 256 160 213 160 196 c 0
EndSplineSet
Validated: 1
Substitution2: "case-1" R
Substitution2: "pcap-1" r.pcap
Substitution2: "smcp-1" r.smcp
EndChar

StartChar: s
Encoding: 115 115 18
GlifName: s
Width: 352
VWidth: 1159
Flags: HMW
HStem: -9 38<111 233> 370 38<130 232>
VStem: 49 68<274 353> 250 68<46 140>
AnchorPoint: "Bottom" 164 -15 basechar 0
AnchorPoint: "Top" 182.5 465 basechar 0
LayerCount: 2
Fore
SplineSet
54 125 m 1
 77 61 123 31 178 31 c 0
 214 31 250 50 250 86 c 0
 250 135 202 161 169 176 c 0
 120 198 49 217 49 288 c 0
 49 348 114 408 193 408 c 0
 226 408 256 402 287 396 c 1
 287 396 295 340 300 303 c 1
 285 298 l 1
 265 330 222 370 175 370 c 0
 143 370 115 347 115 315 c 0
 115 292 134 267 196 246 c 0
 275 219 318 163 318 108 c 0
 318 27 217 -9 153 -9 c 0
 106 -9 69 2 33 16 c 1
 37 30 39 44 39 59 c 0
 39 71 37 106 32 118 c 1
 54 125 l 1
EndSplineSet
Validated: 1
Substitution2: "case-1" S
Substitution2: "pcap-1" s.pcap
Substitution2: "smcp-1" s.smcp
EndChar

StartChar: t
Encoding: 116 116 19
GlifName: t
Width: 341
VWidth: 1159
Flags: HMW
HStem: -10 49<154 261> 360 36<148 304>
VStem: 68 74<52 357>
AnchorPoint: "Bottom" 183 -15 basechar 0
AnchorPoint: "TopRight" 313 531 basechar 0
AnchorPoint: "Top" 143.5 508 basechar 0
LayerCount: 2
Fore
SplineSet
14 370 m 1
 66 400 109 431 140 478 c 1
 155 475 l 1
 151 449 151 427 149 399 c 1
 199 401 258 400 308 402 c 1
 304 355 l 1
 254 355 196 357 146 358 c 1
 142 296 141 229 141 107 c 3
 141 73 155 38 207 38 c 3
 249 38 279 55 309 69 c 1
 309 69 315 56 320 46 c 1
 282 21 218 -10 160 -10 c 3
 140 -10 68 0 68 97 c 3
 68 197 72 259 74 357 c 1
 74 357 39 354 17 354 c 1
 14 370 l 1
EndSplineSet
Validated: 1
Substitution2: "case-1" T
Substitution2: "pcap-1" t.pcap
Substitution2: "smcp-1" t.smcp
EndChar

StartChar: u
Encoding: 117 117 20
GlifName: u
Width: 506
VWidth: 1159
Flags: HMW
HStem: -11 55<171 272> 338 31<291 350>
VStem: 69 76<71 327> 358 65<36 52 75 331>
AnchorPoint: "Bottom" 255 -15 basechar 0
AnchorPoint: "Ogonek" 391.65 -3 basechar 0
AnchorPoint: "Horn" 434.5 333 basechar 0
AnchorPoint: "Top" 264 465 basechar 0
LayerCount: 2
Fore
SplineSet
284 369 m 1
 337 379 392 392 433 403 c 1
 444 387 l 1
 430 343 422 175 422 137 c 3
 422 107 425.284077022 81.1592297825 428 54 c 0
 429 44 432 36 442 36 c 3
 446 36 472 43 492 48 c 1
 498 17 l 1
 463.592920354 8.51428571429 418.680818252 -1.65959087386 390 -16 c 0
 384.468273326 -18.7658633372 382.5 -22 375 -22 c 3
 358 -22 358 0 353 52 c 1
 312 34 235 -11 177 -11 c 3
 139 -11 101.934188969 5.51320688901 85 44 c 0
 74 69 69 95 69 143 c 3
 69 198 72 255 72 312 c 0
 72 322 68 331 58 331 c 3
 48 331 27 319 21 317 c 1
 11 348 l 1
 52 359 106 394 148 422 c 1
 166 406 l 1
 151 336 145 254 145 177 c 3
 145 106 160 44 231 44 c 3
 268 44 321 69 352 85 c 1
 353 154 358 291 358 298 c 3
 358 337 328 337 291 338 c 1
 284 369 l 1
EndSplineSet
Validated: 1
Substitution2: "case-1" U
Substitution2: "pcap-1" u.pcap
Substitution2: "smcp-1" u.smcp
EndChar

StartChar: v
Encoding: 118 118 21
GlifName: v
Width: 418
VWidth: 1159
Flags: HMW
HStem: 371 30<6 43 144 203 270 316>
DStem2: 224 95 55 339 0.322551 -0.946552<-271.079 -13.8948> 224 95 273 128 0.393919 0.919145<1.32074 223.239>
AnchorPoint: "Bottom" 193 -15 basechar 0
AnchorPoint: "Top" 210 465 basechar 0
LayerCount: 2
Fore
SplineSet
419 384 m 5
 380 363 380.655877163 362.688812804 360 320 c 4
 330 258 304 195 273 133 c 4
 251 89 224 38 210 -20 c 5
 179 -20 l 5
 151 109 98 244 55 344 c 4
 50.5834554826 354.271033761 44.9141031266 364.57464375 34 367 c 4
 25 369 13 374 3 376 c 5
 6 405 l 5
 29 401 65 400 88 400 c 7
 122 400 171 405 203 411 c 5
 208 379 l 5
 192 374 153 370 153 370 c 4
 146 369 142 368 142 359 c 7
 142 358 144.15024537 348.027714895 145 343 c 4
 157 272 199 169 224 100 c 5
 260 169 294.236241979 240.326846926 317 320 c 4
 319 327 322 333 322 342 c 7
 322 364 313 371 264 381 c 5
 272 412 l 5
 303 405 317 404 335 404 c 7
 360 404 390 409 411 415 c 5
 419 384 l 5
EndSplineSet
Validated: 1
Substitution2: "case-1" V
Substitution2: "pcap-1" v.pcap
Substitution2: "smcp-1" v.smcp
EndChar

StartChar: w
Encoding: 119 119 22
GlifName: w
Width: 657
VWidth: 1159
Flags: HMW
HStem: 371 30<5 41 152 191 245 282 383 442 510 554>
DStem2: 208 109 254 128 0.453531 0.891241<1.73782 195.326> 447 95 321 271 0.269208 -0.963082<-202.488 0> 447 95 497 128 0.445318 0.895373<0.637142 266.408>
AnchorPoint: "Bottom" 294 -15 basechar 0
AnchorPoint: "Top" 323 465 basechar 0
LayerCount: 2
Fore
SplineSet
659 384 m 1
 620 363 619.655877163 362.688812804 599 320 c 0
 569 258 528 195 497 133 c 0
 475 89 449 38 435 -20 c 1
 404 -20 l 1
 383 81 353 187 321 276 c 1
 299 228 277.803361107 180.606722214 254 133 c 0
 232 89 205 38 191 -20 c 1
 155 -20 l 1
 146 98 96 244 53 344 c 0
 48.5834554826 354.271033761 42.9141031266 364.57464375 32 367 c 0
 23 369 12 374 2 376 c 1
 5 405 l 1
 28 401 64 400 87 400 c 3
 121 400 159 402 191 408 c 1
 195 376 l 1
 179 371 152 370 152 370 c 0
 145 369 141 368 141 359 c 3
 141 358 142.15024537 348.027714895 143 343 c 0
 155 272 183 183 208 114 c 1
 242 180 270 236 308 310 c 1
 303 321 299 334 294 344 c 0
 289 354 284.914103127 364.57464375 274 367 c 0
 265 369 252 374 242 376 c 1
 245 405 l 1
 268 401 303 400 326 400 c 3
 360 400 409 405 441 411 c 1
 446 379 l 1
 430 374 393 370 393 370 c 0
 386 369 381 368 381 359 c 3
 381 358 382.15024537 348.027714895 383 343 c 0
 395 272 422 169 447 100 c 1
 483 169 522 241 556 320 c 0
 559.187188766 327.405526839 561 333 561 342 c 3
 561 364 551 371 502 381 c 1
 510 412 l 1
 541 405 557 404 575 404 c 3
 600 404 628 409 649 415 c 1
 659 384 l 1
EndSplineSet
Validated: 1
Substitution2: "case-1" W
Substitution2: "pcap-1" w.pcap
Substitution2: "smcp-1" w.smcp
EndChar

StartChar: x
Encoding: 120 120 23
GlifName: x
Width: 435
VWidth: 1159
Flags: W
HStem: -6 29<10.2759 49.706 116.703 163.933 229.222 267.152 356.707 423.966> 371 33<19 96.6319 177.005 205.552> 379 26<263 307.763 387.82 420>
AnchorPoint: "Bottom" 211 -15 basechar 0
AnchorPoint: "Top" 220 465 basechar 0
LayerCount: 2
Fore
SplineSet
8 23 m 17xc0
 38 30 49 34 60 46 c 2
 190 200 l 1
 120 323 l 2
 94 367 82 371 19 371 c 9
 19 404 l 1xc0
 36 403 69 401 86 401 c 0
 124 401 169 403 205 407 c 1
 209 375 l 17
 184 374 177 371 177 366 c 3
 177 364 178 360 179 358 c 2
 233 247 l 1
 295 325 l 2
 301 332 313 344 313 355 c 3
 313 377 277 372 259 379 c 9
 263 405 l 1xa0
 279 404 306 404 322 404 c 0
 352 404 399 406 420 407 c 1
 423 382 l 1
 387 372 368 352 353 336 c 0
 319 297.666666667 285 259.333333333 251 221 c 1
 281 165.666666667 308 110.333333333 338 55 c 0
 353 29 379 32 427 23 c 9
 423 -5 l 1
 396 -1 346 2 318 2 c 0
 291 2 261 -1 230 -5 c 1
 227 21 l 17
 263 27 268 25 268 35 c 3
 268 37 268 40 267 42 c 2
 206 172 l 1
 121 62 l 2
 117 57 114 52 114 47 c 3
 114 32 125 30 167 24 c 1
 163 -6 l 1
 141 -4 111 -1 88 -1 c 0
 63 -1 34 -4 11 -6 c 1
 8 23 l 17xc0
EndSplineSet
Validated: 1
Substitution2: "case-1" X
Substitution2: "pcap-1" x.pcap
Substitution2: "smcp-1" x.smcp
EndChar

StartChar: y
Encoding: 121 121 24
GlifName: y
Width: 446
VWidth: 1159
Flags: HMW
HStem: 365 30<9 37 170 185 277 339 410 444>
DStem2: 176 -32 383 308 0.447214 0.894427<-152.969 14.7689>
AnchorPoint: "Bottom" 291 -15 basechar 0
AnchorPoint: "Top" 232.5 465 basechar 0
LayerCount: 2
Fore
SplineSet
113 -346 m 1
 109 -346 90 -343 52 -343 c 3
 22 -343 15 -345 -6 -346 c 13
 -6 -346 -5 -330 -7 -319 c 1
 85 -283 73 -255 176 -32 c 1
 148 100.845528455 85 310.926829268 58 348 c 0
 51 358 47 365 37 370 c 0
 28 372 16 375 6 376 c 1
 10 406 l 1
 33 402 68 400 91 400 c 3
 125 400 153 401 185 407 c 1
 189 379 l 1
 156 370 l 0
 149 369 145 368 145 359 c 3
 145 358 147 351 148 346 c 0
 160 272.107407407 192 153.462962963 226 65 c 1
 273 138.16872428 317 236.423868313 342 319 c 0
 344 326 347 335 347 344 c 3
 347 366 340 367 271 381 c 9
 277 411 l 1
 308 404 351 400 369 400 c 3
 394 400 422 402 443 408 c 1
 448 378 l 1
 410 368 401 363 383 319 c 0
 368 283.83125 294 132.8125 223 -12 c 0
 179 -98 113 -281 113 -346 c 1
EndSplineSet
Validated: 1
Substitution2: "case-1" Y
Substitution2: "pcap-1" y.pcap
Substitution2: "smcp-1" y.smcp
EndChar

StartChar: z
Encoding: 122 122 25
GlifName: z
Width: 453
VWidth: 1159
Flags: HMW
HStem: 0 31<137 361> 362 32<77 314>
DStem2: 314 360 137 31 0.646621 0.762811<-366.184 0>
AnchorPoint: "Bottom" 226 -15 basechar 0
AnchorPoint: "Top" 232.5 465 basechar 0
LayerCount: 2
Fore
SplineSet
355 0 m 2
 170 0 l 2
 143 0 49 -4 29 -10 c 1
 22 20 l 1
 125 124.514705882 227 244.25 314 365 c 5
 292 366 271 367 249 367 c 7
 201 367 158 366 111 362 c 4
 74 357.62962963 50 336.87037037 40 303 c 1
 14 311 l 1
 50 417 l 5
 72 405 101 400 233 400 c 7
 325 400 400 399 423 406 c 5
 433 386 l 5
 336 271.385714286 224 155.757142857 137 31 c 1
 283 32 l 2
 314 32 341 37 363 48 c 0
 380 57 394 68 404 91 c 0
 408 101 411 112 415 127 c 1
 439 119 l 1
 404 -10 l 1
 404 -10 386 0 355 0 c 2
EndSplineSet
Validated: 33
Substitution2: "case-1" Z
Substitution2: "pcap-1" z.pcap
Substitution2: "smcp-1" z.smcp
EndChar

StartChar: A
Encoding: 65 65 26
GlifName: A_
Width: 705
VWidth: 1159
Flags: HMW
HStem: -10 37<475.198 516.465 640.751 690.047> 245 42<237 427.657> 692 20G<348 395.5>
VStem: 350 43<632.023 712>
DStem2: 96 80 154 87 0.391141 0.920331<-3.53261 211.909 245.659 524.174> 407 642 465 236 0.354654 -0.934998<388.302 400.179 571.058 597.203>
AnchorPoint: "Bottom" 353 -15 basechar 0
AnchorPoint: "Ogonek" 523 27 basechar 0
AnchorPoint: "Top" 367 699 basechar 0
LayerCount: 2
Fore
SplineSet
237 287 m 1
 290 282 400 283 449 283 c 1
 410 383 384 443 342 545 c 9
 301 444 274 378 237 287 c 1
477 -10 m 9
 477 -10 471 12 467 27 c 1
 509 37 535 48 525 76 c 0
 502 139 488 173 465 236 c 1
 405 246 308 252 221 245 c 9
 195 183 175 147 154 87 c 0
 142 51 166 29 237 34 c 9
 235 -10 l 1
 202.105808376 -3.42116167511 150.253773558 0.296115413079 102.120365612 0.296115413079 c 3
 69.7733815408 0.296115413079 39.1058083756 -1.38268590218 17 -5 c 9
 17 -5 13 20 12 34 c 1
 61 48 85 57 96 80 c 0
 188 289 266 470 334 640 c 0
 349 678 346 679 350 712 c 9
 393 712 l 9
 398 685 393 681 407 642 c 0
 481 417 525 281 627 62 c 24
 639 36 664 34 692 32 c 9
 692 32 691 8 690 -4 c 1
 660.361639756 0.0415945787923 626.488412579 2.46990651666 592.727141386 2.46990651666 c 3
 551.307333723 2.46990651666 510.056036141 -1.18505702896 477 -10 c 9
EndSplineSet
Position2: "cpsp-1" dx=0 dy=0 dh=50 dv=100
Substitution2: "c2pc-1" a.pcap
Substitution2: "c2sc-1" a.smcp
EndChar

StartChar: B
Encoding: 66 66 27
GlifName: B_
Width: 584
VWidth: 1159
Flags: HMW
HStem: -4 38<17 91.426 193.57 383.69> 349 30<183 322.635> 653 41<19 86.219 195.972 328.268>
VStem: 101 80<45.6349 349 379 533.879> 388 90<447.929 586.24> 459 90<100.26 258.491>
AnchorPoint: "Bottom" 282 -15 basechar 0
AnchorPoint: "Top" 249 699 basechar 0
LayerCount: 2
Fore
SplineSet
14 34 m 1xf4
 61 36 96 36 98 73 c 0
 98 78 101 176 101 292 c 3
 101 461 94 605 93 614 c 0
 92 624 89 641 68 646 c 0
 61 648 19 655 12 656 c 1
 19 694 l 1
 29 694 70 684 124 684 c 7
 177 684 232 694 282 694 c 3
 437 694 478 578 478 518 c 3xf8
 478 447 428 402 336 369 c 1
 459 363 549 278 549 181 c 3
 549 70 447 -4 288 -4 c 3
 235 -4 185 2 128 2 c 3
 69 2 24 -2 17 -2 c 1
 14 34 l 1xf4
282 381 m 0
 351 391 388 440 388 499 c 3
 388 537 369 653 264 653 c 3
 250 653 225 651 216 649 c 0
 194 644 192 624 191 614 c 0
 181 501 183 379 183 379 c 1
 265 379 272 380 282 381 c 0
258 349 m 0
 181 349 l 9
 182 251 182 155 184 96 c 0
 185 59 190 47 216 41 c 0
 226 39 271 34 297 34 c 3
 389 34 459 83 459 178 c 3xf4
 459 262 401 349 258 349 c 0
EndSplineSet
Validated: 33
Position2: "cpsp-1" dx=0 dy=0 dh=50 dv=100
Substitution2: "c2pc-1" b.pcap
Substitution2: "c2sc-1" b.smcp
EndChar

StartChar: C
Encoding: 67 67 28
GlifName: C_
Width: 743
VWidth: 1159
Flags: HW
HStem: -9 42<347.099 553.906> 659 40<323.855 545.759>
VStem: 43 103<245.223 465.81> 633 33<522.188 588.436> 673 27<150.932 169.074>
AnchorPoint: "Bottom" 416 -15 basechar 0
AnchorPoint: "Top" 426 699 basechar 0
LayerCount: 2
Fore
SplineSet
43 348 m 3
 43 525.39031339 167 710 447 710 c 7
 509 710 544 706 603 689 c 4
 644 678 661 684 676 689 c 5
 703 675 l 5
 665 615 666 578 666 556 c 4
 666 536 665 529 633 529 c 13
 618 566 630 604 596 625 c 4
 542 657 499 670 433 670 c 31
 273 670 146 561.030927835 146 368 c 3
 146 158.528358209 298 29 452 29 c 3
 554 29 636 82 673 171 c 9
 700 163 l 1
 691 116 683 90 671 43 c 1
 608 12 531 -13 438 -13 c 3
 218 -13 43 137.669467787 43 348 c 3
EndSplineSet
Position2: "cpsp-1" dx=0 dy=0 dh=50 dv=100
Substitution2: "c2pc-1" c.pcap
Substitution2: "c2sc-1" c.smcp
EndChar

StartChar: D
Encoding: 68 68 29
GlifName: D_
Width: 792
VWidth: 1159
Flags: W
HStem: -10 38<15.6316 81.6884> -7 44<159.868 463.195> 647 41<13 82.5059> 659 37<188.563 435.412>
VStem: 94.1875 82.2977<49.5582 525.672> 655 94<221.047 461.211>
AnchorPoint: "Bottom" 357 -15 basechar 0
AnchorPoint: "Top" 357 699 basechar 0
LayerCount: 2
Fore
SplineSet
325 37 m 3x5c
 525 37 655 146.444335938 655 340 c 3
 655 529.78515625 517 659 312 659 c 3
 271 659 248 654 207 649 c 0
 179 645 178 627 178 607 c 0
 178 494.098557692 176.485207101 391.17714497 176.485207101 286.661342171 c 3
 176.485207101 221.338965422 177.076923077 155.393780048 179 86 c 0
 179 68 182 50 210 46 c 0
 241 41 279 37 325 37 c 3x5c
13 688 m 25xac
 56 686 81 682 124 682 c 31
 211 682 259 696 346 696 c 3
 561 696 749 559.819335938 749 350 c 3
 749 72.8955078125 526 -7 322 -7 c 3x5c
 248 -7 205 0 131 0 c 3
 57 0 46 -5 16 -10 c 9
 14 28 l 1
 55 32 87 33 89 66 c 0
 92.6730983382 127.388808183 94.1875324521 203.810135573 94.1875324521 281.058446902 c 3
 94.1875324521 414.118448109 89.6942114956 549.6321079 84 615 c 0
 82 651 65 647 12 647 c 9
 13 688 l 25xac
EndSplineSet
Validated: 33
Position2: "cpsp-1" dx=0 dy=0 dh=50 dv=100
Substitution2: "c2pc-1" d.pcap
Substitution2: "c2sc-1" d.smcp
EndChar

StartChar: E
Encoding: 69 69 30
GlifName: E_
Width: 619
VWidth: 1159
Flags: HW
HStem: -9 35<25 70.5829> 3.06988 37.3024<200.897 461.73> 333 36<174 442.393> 645.077 36.8925<217.298 456.505> 656 31<17 77.489>
VStem: 91 93<372.534 637.287> 95.7878 78.2122<90.4624 333 369 602.188> 466 36<247.75 305.348 393.846 441.094> 507 30<536 617.59> 567 28<152.034 171.75>
AnchorPoint: "Bottom" 296 -15 basechar 0
AnchorPoint: "Ogonek" 535 15 basechar 0
AnchorPoint: "Top" 299 699 basechar 0
LayerCount: 2
Fore
SplineSet
17 691 m 5xadc0
 89.521094079 687.355416897 175.588544153 685.96875 256.956054688 685.96875 c 7
 398.863349372 685.96875 526.475120134 690.186361981 543 694 c 5
 554.145421717 684.247804312 558.133789062 678.74129781 558.133789062 670.086914062 c 7
 558.133789062 653.395230025 544.168983192 625.342895564 537 536 c 1
 507 533 l 1
 496 570.531914894 515 619.531914894 479 631 c 4
 437.488744253 642.860069968 371.664418646 649.076171875 308.41796875 649.076171875 c 7
 275.677776749 649.076171875 243.628379301 647.410567405 216 644 c 4
 198 642 185 628 184 610 c 4x35c0
 180 527.284352749 175 445.588562269 174 369 c 1
 238 371 398 371 412 372 c 0
 449 377 454 403 470 447 c 1
 504 440 l 1
 495.800908316 409.132831309 492.486685813 378.498275435 492.486685813 347.871954284 c 3
 492.486685813 314.997648821 496.305294619 282.132831309 502 249 c 1
 466 240 l 1
 446 311 453 324 412 328 c 0
 368 333 267 332 174 333 c 1
 173 235.61328125 177 147.262695312 189 81 c 0
 193 64 202 50 219 49 c 0
 264.831179232 44.5647245905 305.319436302 40.3723092792 343.696225476 40.3723092792 c 0
 383.193090286 40.3723092792 420.453436792 44.8130178498 459 58 c 0
 518 78 528 101 567 177 c 1
 595 170 l 1
 579 104 568 62 556 0 c 1
 451.23544869 -0.545648704709 341.64181644 3.06987648348 242.733183881 3.06987648348 c 3x73c0
 160.211074662 3.06987648348 85.2252665051 0.552582785989 27 -9 c 1
 17 26 l 1
 70 36 93 49 93 77 c 1
 94.7979589711 111.739762913 95.7877538268 206.912483613 95.7877538268 308.828274933 c 3xa3c0
 95.7877538268 435.279847515 94.3030615433 571.978168942 91 619 c 4
 90 646 85 646 12 660 c 5
 17 691 l 5xadc0
EndSplineSet
Position2: "cpsp-1" dx=0 dy=0 dh=50 dv=100
Substitution2: "c2pc-1" e.pcap
Substitution2: "c2sc-1" e.smcp
EndChar

StartChar: F
Encoding: 70 70 31
GlifName: F_
Width: 566
VWidth: 1159
Flags: W
HStem: -9 35<33 79.5176> 332 39<186 389.616> 654 31<17 81.7781> 680 20G<514.477 525.182>
VStem: 104.705 81.2945<84.0664 332 371 638.375> 451 36<246.75 303.707 394.284 440.094> 499 31<534 596.775>
AnchorPoint: "Bottom" 171 -15 basechar 0
AnchorPoint: "Top" 309 699 basechar 0
LayerCount: 2
Fore
SplineSet
316 -11 m 5xde
 263.5 -2.2998046875 225.25 1.55029296875 184.125 1.55029296875 c 7
 143 1.55029296875 99 -2.2998046875 35 -9 c 5
 25 26 l 5
 78 36 103 49 103 77 c 5
 104.218477238 100.455686831 104.705485257 151.549166034 104.705485257 213.644709411 c 7
 104.705485257 355.395545571 102.167631996 554.479368764 100 613 c 0
 99 640 85 640 12 654 c 1
 17 685 l 1xee
 72.5689152088 682.207592201 135.54549467 680.974692665 197.61210278 680.974692665 c 3
 357.814635023 680.974692665 511.95468546 689.188611699 517 700 c 1
 533.364719787 690.373694243 538 683 538 662 c 0
 538 640 532.593423561 602.985066715 530 534 c 1
 499 531 l 1
 488 567 492.194335938 614.658203125 456 625 c 0
 393 643 292.116210938 650.012695312 211 641 c 0
 193 639 189.889648438 622.005859375 189 604 c 0
 185 523 186 446 186 371 c 1
 250 373 382.090820312 369.120117188 396 371 c 0
 433 376 439 402 455 446 c 1
 489 439 l 1
 480.800908316 408.132831309 477.486685813 377.498275435 477.486685813 346.871954284 c 3
 477.486685813 313.997648821 481.305294619 281.132831309 487 248 c 1
 451 239 l 1
 431 310 436.931640625 322.348632812 396 327 c 0
 352 332 278 331 185 332 c 5
 190 219 182.635742188 146.298828125 198 81 c 4
 202 64 210 42 322 42 c 5
 316 -11 l 5xde
EndSplineSet
Validated: 33
Position2: "cpsp-1" dx=0 dy=0 dh=50 dv=100
Substitution2: "c2pc-1" f.pcap
Substitution2: "c2sc-1" f.smcp
EndChar

StartChar: G
Encoding: 71 71 32
GlifName: G_
Width: 803
VWidth: 1159
Flags: HW
HStem: -9 37<374.664 581.67> 319 32<497.562 613.119 730.522 761> 674 38<338.234 547.832> 682 20G<658 689>
VStem: 43 99<250.812 472.081> 638 87<64.334 306.866> 675 31<535.645 556.71>
AnchorPoint: "Bottom" 426 -15 basechar 0
AnchorPoint: "Top" 449 699 basechar 0
LayerCount: 2
Fore
SplineSet
43 355 m 3xec
 43 608.579101562 302 712 466 712 c 3xec
 529 712 576 696 625 681 c 0
 653 674 653 682 663 702 c 9
 689 701 l 9
 706 537 l 9
 675 531 l 1xda
 631 627 549 674 443 674 c 3
 252 674 142 518.012695312 142 366 c 3
 142 176.799602441 296 22 483 22 c 31
 538 22 571 33 620 58 c 28
 635 65 636 80 636 97 c 4
 636 135.72179787 638 199.917303194 638 258 c 0
 638 289 632 309 583 313 c 0
 551 315 528 316 496 317 c 9
 498 349 l 1
 600 339 712 340 761 346 c 9
 764 322 l 1
 736 315 726 308 725 287 c 0
 723 212.859042661 722 145.827792661 720 92 c 4
 719 70 725 63 748 48 c 13
 745 27 l 5
 666 15 502 -15 448 -15 c 7
 220 -15 43 139.672261332 43 355 c 3xec
EndSplineSet
Position2: "cpsp-1" dx=0 dy=0 dh=50 dv=100
Substitution2: "c2pc-1" g.pcap
Substitution2: "c2sc-1" g.smcp
EndChar

StartChar: H
Encoding: 72 72 33
GlifName: H_
Width: 831
VWidth: 1159
Flags: HW
HStem: -12 35<202.944 267.502 582 637.168> -9 42<19 85.0033> 326 40<186 662> 651 37<19.7353 89.7689 199.433 277.162> 658 34<579.971 636.882> 662 37<763.958 814.135>
VStem: 89 97<42.9826 320.895> 100.88 85.12<215.157 326 366 617.068> 662 78.027<84.4575 326 366 439.69>
AnchorPoint: "Bottom" 419 -15 basechar 0
AnchorPoint: "Top" 427 699 basechar 0
LayerCount: 2
Fore
SplineSet
20 691 m 1x6980
 70 685 115 681 163 681 c 3
 198 681 234 683 277 687 c 1
 279 650 l 1x3180
 252 646 200.487808109 645.926848656 198 631 c 0
 192 595 188 468 186 365 c 1
 430 358 546 368 662 365 c 1
 662 433 659.678108059 510.910001831 657 610 c 0
 656 647 617 645 576 657 c 1
 581 691 l 1x2980
 622 685 656 681 689 681 c 3
 726 681 764 686 813 698 c 1
 819 661 l 1
 770 649 758.751041936 651.016670968 757 623 c 0
 750 511 740 328 740 197 c 3
 740 127.048275862 742.131065719 72.0078641424 750 50 c 0
 759 25 787 24 817 22 c 1
 817 22 812 2 813 -12 c 1x6580
 778 -5 742 0 704 0 c 3
 665 0 625 -5 582 -15 c 1
 582 -15 576 8 574 20 c 1xa180
 621 30 650.09761636 31.9929465419 652 59 c 0
 659 158.75 661 221.21969697 662 325 c 1
 592 330 334 329 185 325 c 1
 184 235.659003831 182.162532887 132.339060945 186 63 c 0
 188 27 240 31 272 24 c 1
 272 24 268 1 267 -13 c 1
 215 -4 171 0 128 0 c 3
 91 0 56 -3 19 -11 c 1
 19 -11 14 13 12 31 c 1
 48 37 87.3769654208 37.0314467335 89 63 c 0x6280
 96 175.28 101 340.6925 101 464 c 3
 101 546 99.0826194662 610.026053106 94 626 c 0
 87 648 55 648 17 653 c 1
 20 691 l 1x6980
EndSplineSet
Position2: "cpsp-1" dx=0 dy=0 dh=50 dv=100
Substitution2: "c2pc-1" h.pcap
Substitution2: "c2sc-1" h.smcp
EndChar

StartChar: I
Encoding: 73 73 34
GlifName: I_
Width: 341
VWidth: 1159
Flags: W
HStem: -10 40<16.125 119.789> 652 43<21.3488 120.801>
VStem: 131 90<41.0295 293.416> 137.915 75.6029<80.3904 534.592>
AnchorPoint: "Bottom" 167 -15 basechar 0
AnchorPoint: "Ogonek" 234 15 basechar 0
AnchorPoint: "Top" 171 699 basechar 0
LayerCount: 2
Fore
SplineSet
22 695 m 1xd0
 80.9376844464 685.854497241 126.967927425 681.871971069 174.124972764 681.871971069 c 3
 219.781503506 681.871971069 266.494268853 685.605085326 327 692 c 9
 329 649 l 1
 271 647 233 657 229 616 c 0
 221.69948607 537.685396023 213.518021666 432.501802607 213.518021666 296.648852222 c 3xd0
 213.518021666 227.806288215 215.618929353 151.088179609 221 66 c 0
 223 27 275 32 329 30 c 9
 328 -9 l 1
 276.492812273 -3.39030628718 219.264049355 -0.121256970764 164.006209155 -0.121256970764 c 3
 110.909427281 -0.121256970764 59.6324224531 -3.13961017995 17 -10 c 1
 12 30 l 1
 72 30 129 27 131 77 c 0xe0
 135.643462471 148.973668308 137.915133133 243.802784963 137.915133133 336.857547606 c 3
 137.915133133 444.202299797 134.892191281 549.185895905 129 614 c 0
 125 650 71 647 18 652 c 9
 22 695 l 1xd0
EndSplineSet
Validated: 33
Position2: "cpsp-1" dx=0 dy=0 dh=50 dv=100
Substitution2: "c2pc-1" i.pcap
Substitution2: "c2sc-1" i.smcp
EndChar

StartChar: J
Encoding: 74 74 35
GlifName: J_
Width: 337
VWidth: 1356
Flags: HMW
AnchorPoint: "Bottom" 189 -138.8 basechar 0
AnchorPoint: "Top" 172 699 basechar 0
LayerCount: 2
Fore
SplineSet
125 614 m 0
 118 650 67 647 14 652 c 9
 18 692 l 1
 72.8070731284 684.912878475 116.45252592 681.843940271 160.221828099 681.843940271 c 3
 209.090916605 681.843940271 258.114396507 685.66969722 323 692 c 9
 325 649 l 1
 267 647 229 657 225 616 c 0
 214 498 218 378 218 225 c 3
 218 95 224 43 224 0 c 3
 224 -92 163 -151 94 -200 c 0
 69 -217 44 -235 19 -251 c 9
 -6 -218 l 1
 17 -207 36 -196 52 -182 c 0
 57 -178 62 -175 66 -171 c 0
 128 -112 138 -30 138 65 c 3
 138 104 132 578 125 614 c 0
EndSplineSet
Validated: 33
Position2: "cpsp-1" dx=0 dy=0 dh=50 dv=100
Substitution2: "c2pc-1" j.pcap
Substitution2: "c2sc-1" j.smcp
EndChar

StartChar: K
Encoding: 75 75 36
GlifName: K_
Width: 687
VWidth: 1159
Flags: W
HStem: -10 30<217.663 272.933> -1 24<470.273 498.261 656.235 673.667> 657 31<20.4194 73.0559 201.774 269.29 568.711 604.844>
VStem: 91 92<40.8706 315.532> 99.5133 78.4867<125.33 316 357 600.136>
AnchorPoint: "Bottom" 359 -15 basechar 0
AnchorPoint: "Top" 335 699 basechar 0
LayerCount: 2
Fore
SplineSet
391 685 m 1xa8
 414.455841442 683.004664367 440.195130263 681.949571772 466.741023273 681.949571772 c 3
 512.626433009 681.949571772 560.921831532 685.101999391 604 692 c 1
 613 656 l 1
 572 646 546 635 518 610 c 0
 425 529 331 449 239 367 c 1
 576 87 l 0
 610 59 649 38 677 23 c 1
 673 -1 l 1
 645 1 606 4 578 4 c 3
 545 4 503 1 471 -4 c 1
 467 21 l 1
 497 30 513 33 491 58 c 0
 470 81 280 232 178 316 c 1x68
 178 235 179 134 183 79 c 0
 185 36 217 34 276 20 c 1
 272 -10 l 1
 225.8 -2.8 178.52 1.88 126.488 1.88 c 3
 91.8 1.88 55 -0.2 15 -5 c 1
 12 28 l 1
 67 29 89 35 91 71 c 0xb0
 96.7385022682 166.83298788 99.513267791 266.946928836 99.513267791 367.184455971 c 3
 99.513267791 441.622344911 97.9830484122 516.128388787 95 589 c 0
 93 644 78 645 15 657 c 1
 21 688 l 1
 56.6601886794 683.542476415 94.1086338448 681.667989976 131.662527565 681.667989976 c 3
 178.356968161 681.667989976 225.214436321 684.566018868 269 689 c 1
 272 657 l 1
 214 652 192 651 187 608 c 0
 182 524 178 444 178 357 c 1
 260 433 343 505 423 584 c 0
 434 595 447 611 447 621 c 0
 447 645.335008337 427 651.657226562 390 658 c 1
 391 685 l 1xa8
EndSplineSet
Validated: 33
Position2: "cpsp-1" dx=0 dy=0 dh=50 dv=100
Substitution2: "c2pc-1" k.pcap
Substitution2: "c2sc-1" k.smcp
EndChar

StartChar: L
Encoding: 76 76 37
GlifName: L_
Width: 614
VWidth: 1159
Flags: W
HStem: -7 44<23 88.0947> 2 50<189.846 505.493> 652 41<197.258 286.683>
VStem: 94 88<57.6719 639.659> 562 35<122.552 159>
AnchorPoint: "Bottom" 300 -15 basechar 0
AnchorPoint: "TopRight" 348.5 581 basechar 0
AnchorPoint: "Top" 157 699 basechar 0
LayerCount: 2
Fore
SplineSet
286 693 m 1xb8
 290 652 l 1
 203 641 189 660 185 576 c 0
 183 528.555664062 182 149 182 149 c 0
 182 90 184 52 225 52 c 0
 257 52 415 52 438 53 c 0
 508 57 537 91 562 166 c 1
 597 159 l 1
 597 102 585 122 558 -21 c 1
 536 -12 530 -3 486 -1 c 0
 475 -1 386 2 284 2 c 3x78
 69 2 34 -7 23 -7 c 1
 18 37 l 1
 77 43 91 45 92 76 c 0
 92 80 94 178 94 300 c 3
 94 454.967773438 89 603.858398438 88 615 c 0
 86 643 74 648 12 650 c 1
 16 696 l 1
 56.3726980984 686.141550464 101.593828395 682.453832817 146.076608846 682.453832817 c 3
 196.348930208 682.453832817 245.67819832 687.163949757 286 693 c 1xb8
EndSplineSet
Validated: 1
Position2: "cpsp-1" dx=0 dy=0 dh=50 dv=100
Substitution2: "c2pc-1" l.pcap
Substitution2: "c2sc-1" l.smcp
EndChar

StartChar: M
Encoding: 77 77 38
GlifName: M_
Width: 958
VWidth: 1159
Flags: W
HStem: -10 41<14 95.2222 198.099 275.854> -2 38<672.079 742.114> 9 21G<452.5 500> 651 40<857.759 941.7> 655 44<27.7273 115.712>
VStem: 149 30<117 529> 453 42<9 79.3822> 773 80<61.8765 363.678>
AnchorPoint: "Bottom" 465 -15 basechar 0
AnchorPoint: "Top" 499 699 basechar 0
LayerCount: 2
Fore
SplineSet
945 1 m 1x17
 907.706670586 7.78060534804 866.190999539 11.5117417394 821.929932969 11.5117417394 c 3
 774.804626172 11.5117417394 724.567104657 7.28207883824 673 -2 c 1
 668 36 l 1x57
 749 47 772 60 773 128 c 0
 777 269.938476562 771 408.918945312 759 541 c 1
 683 415.93359375 610 287.9140625 545 153 c 0
 525 111 505 53 495 9 c 1
 453 9 l 1x27
 452 64 428.188476562 119.095703125 406 162 c 2
 210 541 l 1
 192 407.883789062 180 263.920898438 179 117 c 0
 179 38 200 45 280 31 c 1
 275 -10 l 1
 235.203091857 -4.00320562224 187.976112885 0.210371756714 138.665855922 0.210371756714 c 3
 97.525650116 0.210371756714 54.9353187275 -2.72261000401 14 -10 c 1
 12 31 l 1
 102 41 119.77734375 56.9443359375 123 109 c 2
 149 529 l 2
 151 567 149 602 128 624 c 0
 110 642 85 654 21 655 c 1
 29 699 l 1x8f
 87 692 155 684 219 686 c 0
 237 686 241 673 246 661 c 0
 321 490.092773438 405 326.100585938 497 171 c 1
 769 678 l 0
 774 687 783 691 789 690 c 0
 838 684 892 686 941 691 c 1
 945 651 l 1
 870 649 842 641 842 581 c 0
 842 426.026367188 846 271.051757812 853 122 c 0
 857 49 878 45 946 44 c 1
 945 1 l 1x17
EndSplineSet
Validated: 33
Position2: "cpsp-1" dx=0 dy=0 dh=50 dv=100
Substitution2: "c2pc-1" m.pcap
Substitution2: "c2sc-1" m.smcp
EndChar

StartChar: N
Encoding: 78 78 39
GlifName: N_
Width: 836
VWidth: 1159
Flags: HW
HStem: -10 44<23.3182 87.7887 186.598 270.067> 655 39<771.248 832> 663 38<600.263 678.466>
VStem: 97 55<66.539 312.678> 106.632 54.3679<242 550> 720 37<-2.08108 25.5054>
AnchorPoint: "Bottom" 431 -15 basechar 0
AnchorPoint: "Top" 427 699 basechar 0
LayerCount: 2
Fore
SplineSet
14 692 m 1xcc
 53 688 104.98828125 684 146 684 c 0
 161 684 162.154296875 680.150390625 169 673 c 0
 338 496.48828125 513 327.822265625 699 167 c 1
 706.597845583 270.138416501 709.256835938 373.277520263 709.256835938 480.467773438 c 7
 709.256835938 500.496930692 709.166458218 520.665751655 709 541 c 4
 708 663 656 652 597 659 c 5
 601 697 l 5xac
 656.519527593 689.825467429 703.298730193 687.263671875 747.271484375 687.263671875 c 7
 776.164871444 687.263671875 803.846585715 688.369725676 832 690 c 5
 837 651 l 5
 788 645 766.778320312 647.020507812 763 605 c 4
 748 439.465250807 745 263.230739499 745 86 c 0
 745 63 751 23 757 0 c 1
 720 -11 l 1
 704 32 670.759765625 72.75390625 638 105 c 0
 483 257.571289062 325 405.252929688 161 550 c 1xcc
 152 154 l 2
 149.614257812 52.4208984375 186 44.6748046875 277 35 c 1
 269 -11 l 1
 230.475274138 -2.82996917899 193.353344449 0.0350683801344 158.148197194 0.0350683801344 c 3
 109.280738727 0.0350683801344 64.1064561839 -5.48516570496 24 -10 c 1
 19 34 l 1
 77 34 94.193359375 45.0400390625 97 93 c 0xd4
 103.388779204 202.165214448 106.63207391 315.787844193 106.63207391 430.331351559 c 3
 106.63207391 477.147555243 106.09027535 524.117593288 105 571 c 0
 104 614 69 649 12 648 c 1
 14 692 l 1xcc
EndSplineSet
Position2: "cpsp-1" dx=0 dy=0 dh=50 dv=100
Substitution2: "c2pc-1" n.pcap
Substitution2: "c2sc-1" n.smcp
EndChar

StartChar: O
Encoding: 79 79 40
GlifName: O_
Width: 845
VWidth: 1159
Flags: HW
HStem: -7 50<342.523 545.448> 657 49<304.396 495.712>
VStem: 43 93<267.4 455.825> 701 101<222.803 442.21>
AnchorPoint: "Horn" 713.5 573 basechar 0
AnchorPoint: "Middle" 423.697 364.853 basechar 0
AnchorPoint: "Bottom" 422 -15 basechar 0
AnchorPoint: "Ogonek" 486 11 basechar 0
AnchorPoint: "Top" 426 699 basechar 0
LayerCount: 2
Fore
SplineSet
391 660 m 3
 250 660 136 543.419836023 136 382 c 3
 136 202.520642412 279 37 449 37 c 3
 602 37 701 170.530119977 701 321 c 3
 701 500.470296712 561 660 391 660 c 3
428 709 m 3
 635 709 802 543.449896694 802 341 c 3
 802 145.552293527 644 -13 430 -13 c 3
 216 -13 43 144.55469308 43 341 c 3
 43 537.466253444 218 709 428 709 c 3
EndSplineSet
Position2: "cpsp-1" dx=0 dy=0 dh=50 dv=100
Substitution2: "c2pc-1" o.pcap
Substitution2: "c2sc-1" o.smcp
EndChar

StartChar: P
Encoding: 80 80 41
GlifName: P_
Width: 596
VWidth: 1159
Flags: W
HStem: -11 38<33.4211 85.9927> 242 36<198.515 361.94> 645 42<14.5 99.2917> 655 39<195.531 363.467>
VStem: 103 90<358.521 636.758> 114.344 80.6562<48.2578 250 282.973 479.296> 475 89<377.611 543.933>
AnchorPoint: "Bottom" 162 -15 basechar 0
AnchorPoint: "Top" 294 699 basechar 0
LayerCount: 2
Fore
SplineSet
266 278 m 27xd6
 373 278 475 335.9609375 475 459 c 3
 475 540 416 613 373 633 c 0
 337 649 285 655 219 655 c 3
 204 655 193 642 193 627 c 0xda
 195 552.334960938 194 421.16796875 195 290 c 1
 217 281 239 278 266 278 c 27xd6
15 687 m 1xea
 41 685 75 683 114 683 c 31
 185 683 224 694 295 694 c 3
 460 694 564 576 564 467 c 3
 564 347.405273438 462 242 258 242 c 3
 235 242 218 246 198 250 c 9
 200 181 200 105 205 74 c 0
 211 33 231 42 302 37 c 9
 298 -10 l 1
 239.656941268 -3.26810860787 199.252400715 2.83436109377 155.423836105 2.83436109377 c 3
 121.125356666 2.83436109377 84.7300046228 -0.902791834913 36 -11 c 1
 22 27 l 1
 96 52.103515625 111 42.2412109375 112 79 c 0
 113.5625 124.883789062 114.34375 177.642234802 114.34375 233.62318182 c 3xd6
 114.34375 356.781265259 110.5625 495.536254883 103 611 c 0
 102 634 82 644 12 645 c 9
 15 687 l 1xea
EndSplineSet
Validated: 1
Position2: "cpsp-1" dx=0 dy=0 dh=50 dv=100
Substitution2: "c2pc-1" p.pcap
Substitution2: "c2sc-1" p.smcp
EndChar

StartChar: Q
Encoding: 81 81 42
GlifName: Q_
Width: 785
VWidth: 1361
Flags: W
HStem: -157 43<708.054 873.117> -5 51<313.167 416.904> 674 32<293.987 459.678>
VStem: 43 98<254.599 491.499> 639 102<242.788 484.609>
AnchorPoint: "Middle" 392.697 364.853 basechar 0
AnchorPoint: "Top" 395 699 basechar 0
AnchorPoint: "Bottom" 343 -15 basechar 0
LayerCount: 2
Fore
SplineSet
378 674 m 3
 240 674 141 558.260742188 141 390 c 3
 141 213.029296875 242 46 404 46 c 3
 543 46 639 170.169921875 639 345 c 3
 639 552.943359375 518 674 378 674 c 3
505 21 m 1
 635 -79 745 -114 819 -114 c 3
 839 -114 857 -112 872 -107 c 1
 877 -137 l 1
 833 -152 791 -157 749 -157 c 3
 626 -157 507 -100 393 -5 c 1
 184 -5 43 164.081054688 43 363 c 3
 43 577.008789062 198 706 389 706 c 3
 581 706 741 560.415039062 741 365 c 3
 741 209.901367188 643 74.6875 505 21 c 1
EndSplineSet
Validated: 1
Position2: "cpsp-1" dx=0 dy=0 dh=50 dv=100
Substitution2: "salt-1" Q.alt
Substitution2: "c2pc-1" q.pcap
Substitution2: "c2sc-1" q.smcp
EndChar

StartChar: R
Encoding: 82 82 43
GlifName: R_
Width: 734
VWidth: 1159
Flags: HMW
HStem: -10 44<264 272> 323 44<178 306.579>
VStem: 88 90<71.4111 283.488 429.868 640.189> 456 87<441.267 575.707>
AnchorPoint: "Bottom" 357 -15 basechar 0
AnchorPoint: "Top" 284 699 basechar 0
LayerCount: 2
Fore
SplineSet
178 367 m 1
 219 366 240 363 281 363 c 3
 427 363 456 453.253521127 456 507 c 7
 456 568.294520548 395 664 279 664 c 3
 248 664 185 657 181 614 c 0
 174 536.944444444 176 444.055555556 178 367 c 1
12 692 m 1
 55 691 80 690 123 690 c 0
 192 690 221 706 300 706 c 0
 433 706 543 622.09039548 543 518 c 4
 543 430.016949153 473 369.338983051 393 339 c 1
 512 138.395280236 606 5.97640117994 740 4 c 1
 733 -33 l 1
 555 -37.9438202247 381 150.91011236 307 319 c 1
 298 318 290 318 283 318 c 0
 242 318 219 322 178 323 c 1
 183 227 186 158 190 77 c 0
 192 40 217 35 272 30 c 1
 264 -14 l 1
 221 -5 178 0 135 0 c 3
 98 0 60 -4 23 -11 c 1
 16 30 l 1
 69 32 84 34 88 65 c 1
 93 190 96 274 96 357 c 3
 96 430.888888889 94 503.722222222 91 604 c 1
 86 641 75 653 12 655 c 1
 12 692 l 1
EndSplineSet
Position2: "cpsp-1" dx=0 dy=0 dh=50 dv=100
Substitution2: "salt-1" R.alt
Substitution2: "c2pc-1" r.pcap
Substitution2: "c2sc-1" r.smcp
EndChar

StartChar: S
Encoding: 83 83 44
GlifName: S_
Width: 575
VWidth: 1159
Flags: HW
HStem: -10 43<195.79 384.696> 672 38<219.404 383.163> 681 20G<474 513>
VStem: 30 34<149.828 195.235> 58 32<0 20.4257> 68 82<457.95 594.46> 449 80<96.0494 230.479> 482 33<527.268 575.693 682.701 692>
AnchorPoint: "Bottom" 286 -15 basechar 0
AnchorPoint: "Top" 308 699 basechar 0
LayerCount: 2
Fore
SplineSet
30 194 m 5xd0
 64 200 l 5
 82 141 86.878297754 120.865926417 110 100 c 4
 151 63 241 33 305 33 c 7
 407 33 449 107 449 164 c 7
 449 286 282.776167628 306.192651078 193 347 c 4
 171 357 68 397 68 510 c 7
 68 601.2 146 702 310 702 c 7xd6
 368 702 417.383162321 689.10631413 439 681 c 4
 455 675 465 663 483 693 c 5xb6
 513 684 l 5
 496 604 499.867877476 602.962428833 515 550 c 4
 521 529 515 511 482 517 c 5
 475 533 471.790643312 554.907101001 463 575 c 4
 442 623 371 664 297 664 c 7
 244 664 150 641.352112676 150 530 c 7xc5
 150 429 243.829771373 432.615686511 397 365 c 4
 508 316 529 231 529 181 c 7
 529 101 474 -10 282 -10 c 7
 227 -10 169.157879915 0.444742029655 119 18 c 4
 99 25 100 24 90 -4 c 5
 58 0 l 5xca
 59 69 56 87 30 194 c 5xd0
EndSplineSet
Position2: "cpsp-1" dx=0 dy=0 dh=50 dv=100
Substitution2: "c2pc-1" s.pcap
Substitution2: "c2sc-1" s.smcp
EndChar

StartChar: T
Encoding: 84 84 45
GlifName: T_
Width: 728
VWidth: 1159
Flags: HMW
HStem: -7 44<419.307 513> 634 51<94.399 314.89 414 630.844>
VStem: 312 97<51.3596 333.831>
AnchorPoint: "Bottom" 358 -15 basechar 0
AnchorPoint: "Top" 358 699 basechar 0
LayerCount: 2
Fore
SplineSet
125 685 m 0
 250.15790027 683.585786438 375.31580054 682.171572875 500.827254201 682.171572875 c 3
 552.81580054 682.171572875 604.865007051 682.414213562 657 683 c 0
 673 683 688 689 695 698 c 1
 720 682 l 1
 706 646 689 606 687 559 c 1
 650 565 l 1
 656 595 l 0
 667 644 471 633 414 633 c 1
 409.816653826 510.056331081 408.063916709 389.049553755 408.063916709 265.927993012 c 3
 408.063916709 212.461403074 408.394448725 158.596006255 409 104 c 0
 410 41 413 47 520 37 c 1
 513 -7 l 1
 474.745360611 -1.66214334103 425.212355377 0.945200232948 374.874776298 0.945200232948 c 3
 312.048779143 0.945200232948 247.969467552 -3.11635527979 203 -11 c 1
 195 37 l 1
 312 47.4345703125 311 57 312 77 c 0
 315.541381265 148.546391976 319.779505934 308.040308735 319.779505934 439.509740173 c 3
 319.779505934 530.782942065 317.736777048 608.548654171 312 634 c 1
 248 635 186 633 124 628 c 0
 77 624 74 628 37 554 c 1
 -2 573 l 1
 18 612 47 691 58 713 c 1
 81 695 103 685 125 685 c 0
EndSplineSet
Validated: 33
Position2: "cpsp-1" dx=0 dy=0 dh=50 dv=100
Substitution2: "c2pc-1" t.pcap
Substitution2: "c2sc-1" t.smcp
EndChar

StartChar: space
Encoding: 44 44 46
GlifName: space
Width: 200
VWidth: 1159
Flags: W
HStem: -133 252
VStem: 27 144
LayerCount: 2
Fore
SplineSet
43 -133 m 1
 27 -108 l 1
 61 -87 104 -45 90 -14 c 0
 80 8 58 23 37 34 c 0
 32 36 30 43 30 49 c 3
 30 55 32 60 37 62 c 0
 58 73 74 89 85 110 c 0
 87 115 93 119 99 119 c 3
 105 119 111 115 113 110 c 0
 124 89 142 73 163 62 c 0
 168 60 171 55 171 49 c 3
 171 43 161 -68 43 -133 c 1
EndSplineSet
Validated: 33
Position2: "cpsp-1" dx=0 dy=0 dh=7 dv=14
EndChar

StartChar: period
Encoding: 46 46 48
GlifName: period
Width: 200
VWidth: 1159
Flags: W
HStem: -21 140<77.678 120.536>
VStem: 30 141<25.3087 69.9365>
LayerCount: 2
Fore
SplineSet
163 33 m 0
 142 22 124 8 113 -13 c 0
 111 -18 106 -21 100 -21 c 3
 94 -21 87 -18 85 -13 c 0
 74 8 58 22 37 33 c 0
 32 35 30 43 30 49 c 3
 30 55 32 60 37 62 c 0
 58 73 74 89 85 110 c 0
 87 115 94 119 100 119 c 3
 106 119 111 115 113 110 c 0
 124 89 142 73 163 62 c 0
 168 60 171 55 171 49 c 3
 171 43 168 35 163 33 c 0
EndSplineSet
Validated: 1
Position2: "cpsp-1" dx=0 dy=0 dh=7 dv=14
EndChar

StartChar: dotlessi
Encoding: 305 305 50
GlifName: dotlessi
Width: 263
VWidth: 1159
Flags: HMW
HStem: -7 33<33 87 184 254>
VStem: 97 71<57 330>
AnchorPoint: "Top" 136 465 basechar 0
LayerCount: 2
Fore
SplineSet
168 196 m 3
 168 157 171 91 177 54 c 0
 179 39 199 35 210 33 c 0
 226 29 244 28 258 27 c 1
 254 -7 l 1
 215 -1 171 4 129 4 c 3
 99 4 63 -3 33 -7 c 1
 30 26 l 1
 41 27 57 29 68 31 c 0
 91 37 92 48 94 76 c 0
 96 101 97 150 97 176 c 3
 97 196 98 238 93 301 c 0
 92 317 87 330 70 330 c 3
 64 330 49 326 40 325 c 1
 33 357 l 1
 85 369 122 383 175 431 c 1
 195 415 l 1
 189 401 184 374 182 363 c 0
 172 319 168 213 168 196 c 3
EndSplineSet
Validated: 33
Substitution2: "case-1" I
Substitution2: "pcap-1" i.pcap
Substitution2: "smcp-1" i.smcp
EndChar

StartChar: uniFB01
Encoding: 64257 64257 51
GlifName: uniF_B_01
Width: 576
VWidth: 1159
Flags: W
HStem: -7 33<326.576 383.392> -6 36<34 95.891 473.708 547.909> 1 32<191.619 271.026> 360 37<39 113 187 374.27> 701 55<287.006 403.458>
VStem: 114 71<42.7113 360 397 601.139> 396 65<39.2303 341.179>
LayerCount: 2
Fore
SplineSet
338 355 m 0x9e
 288 360 238 358 186 360 c 1
 185 330 185 305 185 293 c 3
 185 211 186 134 191 54 c 0
 192 39 198 34 214 33 c 0x3e
 239 32 251 32 276 31 c 1
 273 -6 l 1x5e
 231 -1 182 1 140 1 c 3x3e
 110 1 64 -2 34 -6 c 1
 33 30 l 1x5e
 44 31 58 31 69 33 c 0
 100 40 104 53 106 81 c 0
 111 133 114 201 114 266 c 3
 114 286 113 323 113 360 c 1
 88 359 64 356 39 355 c 1
 39 401 l 1
 64 400 88 398 113 397 c 1
 113 436 113 481 113 493 c 3
 113 601 137 644 224 704 c 0
 263 731 342 756 384 756 c 3
 412 756 477 736 502 716 c 1
 501 689 500 689 451 652 c 1
 412 670 392 701 308 701 c 3
 232 701 203 636 191 498 c 0
 190 487 188 435 187 397 c 1
 287 397 l 2
 340 397 391 397 470 431 c 1
 490 415 l 1
 484 401 477 374 475 363 c 0
 465 319 461 213 461 196 c 3
 461 157 465 91 471 54 c 0
 473 39 492 35 503 33 c 0x3e
 519 29 538 28 552 27 c 1
 547 -7 l 1
 508 -1 464 4 422 4 c 3
 392 4 357 -3 327 -7 c 1
 325 26 l 1
 336 27 351 29 362 31 c 0
 385 37 392 48 394 76 c 0
 396 101 396 160 396 186 c 3
 396 206 396 253 391 316 c 0
 390 332 372 351 338 355 c 0x9e
EndSplineSet
Validated: 1
LCarets2: 1 298
Ligature2: "liga-1" f i
EndChar

StartChar: uni0237
Encoding: 567 567 52
GlifName: uni0237
Width: 265
VWidth: 1159
Flags: HMW
VStem: -27 27<-331 -293> 82 68<-160 327>
AnchorPoint: "Top" 120 465 basechar 0
LayerCount: 2
Fore
SplineSet
-27 -330 m 1
 -22 -276 -15 -252 15 -220 c 0
 35 -198 57 -166 66 -140 c 0
 75 -115 82 -55 82 96 c 3
 82 221 78 253 76 301 c 0
 75 317 69 330 52 330 c 3
 46 330 31 326 22 325 c 1
 15 357 l 1
 67 369 104 383 157 431 c 1
 177 415 l 1
 171 401 166 374 164 363 c 0
 154 319 150 217 150 196 c 3
 150 88 149 -32 149 -84 c 3
 149 -134 137 -165 123 -186 c 0
 101 -220 66 -245 34 -267 c 0
 20 -277 1 -308 0 -335 c 1
 -27 -330 l 1
EndSplineSet
Validated: 1
EndChar

StartChar: U
Encoding: 85 85 53
GlifName: U_
Width: 815
VWidth: 1159
Flags: HW
HStem: -10 54<297.466 551.379> 650 40<14.125 94.1699 204.669 289.778 727.959 801.369> 672 20G<570 586.309>
VStem: 99 87<142.83 548.313> 104 90<339.122 637.527> 664 55<148.927 617.399> 665 61<265.818 645.847>
AnchorPoint: "Horn" 722 544 basechar 0
AnchorPoint: "Bottom" 410 -15 basechar 0
AnchorPoint: "Ogonek" 480 11 basechar 0
AnchorPoint: "Top" 431 699 basechar 0
LayerCount: 2
Fore
SplineSet
15 690 m 1xc8
 45 686.5 93.25 684.75 144.125 684.75 c 3
 195 684.75 248.5 686.5 289 690 c 1
 293 654 l 1
 225 648 195 646 194 591 c 0xc8
 194 583.937049502 186 286.287214007 186 254 c 0
 186 195 198 144 230 108 c 0
 268 63.4153846154 335 39 443 39 c 3
 469 39 552 40.0714285714 609 99 c 0
 646 135 659 180 664 256 c 0xd4
 670 352.368500712 670 510.616898149 665 608 c 0
 663 654 635 651 569 652 c 1
 571 692 l 1xa2
 601.61861097 687.878263908 665.174513761 684.796652821 718.796500645 684.796652821 c 3
 756.241457349 684.796652821 788.842222135 686.299374976 802 690 c 1
 805 651 l 1
 756 650 728 657 726 618 c 0xc2
 725 606.846311123 724 487.203168044 719 254 c 0
 718 177 694 116 652 73 c 0
 598 13.2857142857 513 -15 402 -15 c 3
 289 -15 210 12.4444444444 162 61 c 0
 118 103 99 162 99 235 c 0xd4
 99 265.253216109 104 578.87388159 104 594 c 0
 104 638 92 641 10 650 c 1
 15 690 l 1xc8
EndSplineSet
Position2: "cpsp-1" dx=0 dy=0 dh=50 dv=100
Substitution2: "c2pc-1" u.pcap
Substitution2: "c2sc-1" u.smcp
EndChar

StartChar: V
Encoding: 86 86 54
GlifName: V_
Width: 841
VWidth: 1159
Flags: W
HStem: 658 38<10.0789 73.9741> 658 36<188.341 269 596.689 669.375 765.391 828.825>
VStem: 397 46<-27 41.9461>
AnchorPoint: "Bottom" 417 -15 basechar 0
AnchorPoint: "Top" 431 704 basechar 0
LayerCount: 2
Fore
SplineSet
269 694 m 1x60
 269 658 l 1
 241 659 221 658 209 656 c 0
 178 650 186 634 192 620 c 2
 448 102 l 1
 667 613 l 2
 674 631 673 654 647 656 c 0
 641 656 599 658 594 658 c 1
 595 698 l 1
 630.908082394 690.912878475 674.852531431 687.843940271 716.180707465 687.843940271 c 3
 762.324241673 687.843940271 805.206314112 691.66969722 830 698 c 1
 835 656 l 1
 796 655 760 653 727 599 c 0
 705 562.866210938 540 221.599609375 469 60 c 0
 458 34 447 0 443 -27 c 1
 397 -27 l 1
 396 0 384 21 369 57 c 0
 322 169.8125 207 405.51171875 95 612 c 0
 73 653 53 651 6 658 c 1x60
 11 696 l 1xa0
 56.0766726843 688.556145795 88.8397974971 686.071915039 119.686023744 686.071915039 c 3
 163.429124097 686.071915039 203.317315052 691.067737279 269 694 c 1x60
EndSplineSet
Validated: 33
Position2: "cpsp-1" dx=0 dy=0 dh=50 dv=100
Substitution2: "c2pc-1" v.pcap
Substitution2: "c2sc-1" v.smcp
EndChar

StartChar: W
Encoding: 87 87 55
GlifName: W_
Width: 1130
VWidth: 1159
Flags: W
HStem: 656 26.4375<591.128 674.836> 659 34<228.509 286.647 403.688 459.319 590.967 677.8 1096.15 1122.17>
VStem: 376 37<-21 34.9281> 757 36<-15 34.8204>
AnchorPoint: "Bottom" 574 -15 basechar 0
AnchorPoint: "Top" 579 699 basechar 0
LayerCount: 2
Fore
SplineSet
1121 693 m 1x70
 1127 657 l 1
 1051 628.323242188 1046 600.708007812 1000 486 c 0
 871 176 830 81 814 42 c 0
 804 19 795 7 793 -15 c 1
 757 -16 l 1
 756 2 753 19 737 58 c 0
 685.33984375 177 634.672851562 296 585 415 c 1
 477.323242188 151 440.088867188 60 426 23 c 0
 419 3 414 -7 413 -21 c 1
 376 -21 l 1
 372 -1 367 24 340 89 c 0
 237 345.071289062 132 550.932617188 123 567 c 0
 117 579.173828125 112 588.913085938 89 623 c 0
 63 654 33 652 5 654 c 1
 11 695 l 1
 42 686 93.25 682 145.375 682 c 3
 197.5 682 250.5 686 285 693 c 1
 293 659 l 1x70
 235 659 212 638.53125 212 600 c 0
 212 588 215 576 220 565 c 10
 421 107 l 1
 563 461 l 1
 510.428710938 586.375 476.0546875 623.561523438 471 631 c 1
 453 656 424 656 399 661 c 1
 405 690 l 1
 438.916666667 684.958333333 481.026041667 682.4375 524.877242477 682.4375 c 3xb0
 576.701388889 682.4375 630.958333333 685.958333333 677 693 c 1x70
 681 658 l 1
 675 658 629 657 619 656 c 0xb0
 582 651 583 627 590 609 c 2
 800 107 l 1
 859 250 912 390 955 515 c 0
 985 607.514648438 973 663.455078125 865 657 c 1
 865 688 l 1
 891.424707408 684.754860494 927.735594389 682.584305724 968.652078053 682.584305724 c 3
 1015.99540112 682.584305724 1069.50477037 685.490279012 1121 693 c 1x70
EndSplineSet
Validated: 33
Position2: "cpsp-1" dx=0 dy=0 dh=50 dv=100
Substitution2: "c2pc-1" w.pcap
Substitution2: "c2sc-1" w.smcp
EndChar

StartChar: X
Encoding: 88 88 56
GlifName: X_
Width: 761
VWidth: 1159
Flags: W
HStem: -6 31<18.6774 62.5845 196.476 263> -2 38<685.729 743.289> 653 39<215.532 275> 659 26<13 54.2795 447 485.234 665.996 702.194>
AnchorPoint: "Bottom" 371 -15 basechar 0
AnchorPoint: "Top" 364 699 basechar 0
LayerCount: 2
Fore
SplineSet
13 685 m 1x90
 57.995726729 682.979465194 91.5563485075 681.795874747 121.969454011 681.795874747 c 3
 169.962021553 681.795874747 210.11678477 684.743198768 275 692 c 1
 276 658 l 1
 270 656 252 655 237 653 c 0
 212 648 210.559570312 629.696289062 221 615 c 2
 378 394 l 1
 434.1953125 471.537109375 479.984375 542.701171875 506 582 c 0
 520 602 531 631 498 643 c 0
 492 645 448 654 442 656 c 1
 447 686 l 1
 487.585712798 683.584183762 528.871765767 681.868707696 570.181401645 681.868707696 c 3
 614.37006491 681.868707696 658.585712798 683.831632476 702 689 c 1
 704 654 l 1
 686 652 638 646 594 603 c 0
 577.572265625 586.200195312 563.198242188 567.299804688 402 372 c 1
 457 307.396484375 623 112.559570312 643 90 c 0
 680 49 699 46 749 36 c 1
 742 -2 l 1x60
 713.157233926 3.8521554354 672.607337968 6.55911179773 629.84557086 6.55911179773 c 3
 570.309176868 6.55911179773 506.485189515 1.31182235955 464 -8 c 1
 461 25 l 1
 472 31 498 35 510 39 c 0
 546 51 532 80 517 101 c 0
 485 148.5859375 435 223.068359375 362 311 c 1
 293 222.696289062 237 137.473632812 201 81 c 0
 190 64 183 36 215 31 c 0
 229 29 253 26 263 25 c 1
 263 -6 l 1
 215.659693502 -2.91258870663 174.674126 -0.619519787796 134.593382787 -0.619519787796 c 3
 96.7821846861 -0.619519787796 59.7762418928 -2.66025403784 19 -8 c 1
 17 25 l 1
 27 27 79 38 121 79 c 0
 137 94.357421875 148 108.690429688 335 337 c 1
 127 588.328125 117 600.638671875 102 615 c 0
 66 648 33 655 12 659 c 1
 13 685 l 1x90
EndSplineSet
Validated: 33
Position2: "cpsp-1" dx=0 dy=0 dh=50 dv=100
Substitution2: "c2pc-1" x.pcap
Substitution2: "c2sc-1" x.smcp
EndChar

StartChar: Y
Encoding: 89 89 57
GlifName: Y_
Width: 735
VWidth: 1159
Flags: W
HStem: -11 42<247 320.923 456.301 545.814> 649 35.2148<212.294 267.95 481 483 664 666.328> 651 39<9.47368 79.3442 237.708 269.641 654.659 729>
VStem: 353 78<94.0509 324.999>
AnchorPoint: "Bottom" 387 -15 basechar 0
AnchorPoint: "Top" 387 699 basechar 0
LayerCount: 2
Fore
SplineSet
274 651 m 1xb0
 274 651 252 649 237 649 c 0xd0
 219 649 204 639 215 622 c 0
 306 476.708007812 396 373.2265625 401 368 c 1
 469 478.5 534 584.791015625 536 589 c 0
 548 609 554 633 528 643 c 0
 516 648 497 650 481 652 c 1
 483 691 l 1
 506.158416846 687.343407866 568.314609615 682.572593564 628.046975448 682.572593564 c 3
 666.327781965 682.572593564 703.613081447 684.532048312 729 690 c 1xb0
 729 647 l 1
 664 645 639 627 611 600 c 0
 547 534.271484375 480 420.551757812 431 335 c 1
 430 285 426 233 444 80 c 0
 449 41 469 36 550 32 c 1
 545 -11 l 1
 490.359793369 -3.57312618602 440.297000037 0.770765249282 390.099720947 0.770765249282 c 3
 344.365920606 0.770765249282 298.520487799 -2.83496465054 249 -11 c 1
 237 31 l 1
 316 43.8798828125 353 55.83984375 353 100 c 2
 349 298 l 1
 342 309.404296875 241 469.0703125 114 608 c 0
 87 636 65 636 6 652 c 1
 10 692 l 1
 45.1714158843 688.297745696 113.467325179 684.214750089 174.244228645 684.214750089 c 3xd0
 211.964454466 684.214750089 246.788458268 685.787466223 269 690 c 1
 274 651 l 1xb0
EndSplineSet
Validated: 33
Position2: "cpsp-1" dx=0 dy=0 dh=50 dv=100
Substitution2: "c2pc-1" y.pcap
Substitution2: "c2sc-1" y.smcp
EndChar

StartChar: Z
Encoding: 90 90 58
GlifName: Z_
Width: 710
VWidth: 1159
Flags: W
HStem: 1 40<168 560.424> 642 43<98.8077 540>
AnchorPoint: "Bottom" 357 -15 basechar 0
AnchorPoint: "Top" 366 699 basechar 0
LayerCount: 2
Fore
SplineSet
12 563 m 1
 59 672 49 709 76 719 c 1
 96 694.189453125 132 685.918945312 144 685 c 0
 176.526367188 683.471679688 533.125 681.942382812 640 683.533203125 c 0
 651.415039062 683.935546875 659.982421875 684.420898438 665 685 c 1
 677 663 l 1
 657.573242188 640.099609375 l 0
 168 41 l 1
 244 41 321 39 397 39 c 0
 553 39 646 80 671 155 c 1
 698 141 l 9
 661 50 649 14 624 -27 c 1
 603 -16 587 -3 503 -2 c 0
 352 0 108 8 29 1 c 1
 19 28 l 1
 58 49 90.6767578125 85.4267578125 116 116 c 0
 257 287.215820312 401 463.65234375 536 638 c 0
 540 642 l 1
 176 642 l 2
 119 642 78 622.393554688 40 545 c 1
 12 563 l 1
EndSplineSet
Validated: 33
Position2: "cpsp-1" dx=0 dy=0 dh=50 dv=100
Substitution2: "c2pc-1" z.pcap
Substitution2: "c2sc-1" z.smcp
EndChar

StartChar: parenleft
Encoding: 40 40 59
GlifName: parenleft
Width: 383
VWidth: 1515
Flags: W
VStem: 37 48<44.425 376.993>
LayerCount: 2
Fore
SplineSet
337 724 m 1
 358 689 l 1
 168.837837838 592.717321803 85 423.444444444 85 211 c 3
 85 -1.89263157895 171.845559846 -173.612631579 356 -266 c 1
 335 -301 l 1
 147 -203.619607843 37 -20.9058823529 37 211 c 3
 37 442.099029126 143.644518272 624.388349515 337 724 c 1
EndSplineSet
Validated: 1
Position2: "cpsp-1" dx=0 dy=0 dh=50 dv=100
Position2: "'case' vertical ajustments for all-caps-1" dx=0 dy=125 dh=0 dv=0
EndChar

StartChar: zero
Encoding: 48 48 63
GlifName: zero
Width: 502
VWidth: 1159
Flags: W
HStem: 1 33<203.15 319.348> 358 36<180.377 302.898>
VStem: 55 73<109.281 280.474> 368 79<105.768 284.433>
LayerCount: 2
Fore
SplineSet
234 358 m 7
 160 358 128 284 128 215 c 7
 128 118 169 34 269 34 c 7
 348 34 368 120 368 183 c 7
 368 280 334 358 234 358 c 7
254 394 m 7
 361 394 447 303 447 194 c 7
 447 88 366 1 255 1 c 7
 144 1 55 88 55 194 c 7
 55 301 146 394 254 394 c 7
EndSplineSet
Validated: 1
Substitution2: "'zero' Slashed Zero lookup 22-1" zero.alt
Substitution2: "dnom-1" zero.denom
Substitution2: "numr-1" zero.numerator
Substitution2: "lnum-1" zero.proportionallining
Substitution2: "tnum-1" zero.tabulartext
EndChar

StartChar: one
Encoding: 49 49 64
GlifName: one
Width: 371
VWidth: 1159
Flags: W
HStem: 0 26<77 128.33 240.02 295> 369 23<87 139.532> 379 23<250.588 289.609>
VStem: 158 61<44.4318 360.804>
LayerCount: 2
Fore
SplineSet
87 392 m 1xd0
 140.482421875 387.885742188 231.96484375 388.837890625 289 402 c 9
 291 379 l 1xb0
 231 367 232 358 226 327 c 0
 225 318 219 249 219 200 c 27
 219 145 224 68 226 58 c 0
 232 31 260 29 296 27 c 9
 295 0 l 1
 220.509765625 6.4775390625 151.725585938 7.2900390625 77 0 c 9
 75 26 l 1
 108 30 136 32 148 62 c 0
 152 71 158 94 158 200 c 3
 158 298 154 319 153 325 c 0
 147 357 151 365 86 369 c 9
 87 392 l 1xd0
EndSplineSet
Validated: 33
Substitution2: "dnom-1" one.denom
Substitution2: "numr-1" one.numerator
Substitution2: "tnum-1" one.tabulartext
Substitution2: "lnum-1" one.proportionallining
EndChar

StartChar: two
Encoding: 50 50 65
GlifName: two
Width: 445
VWidth: 1159
Flags: W
HStem: -11 21G<353 372.5> 2 64<121 368.376> 405 53<115.723 234.173>
VStem: 260 68<263.541 378.966>
LayerCount: 2
Fore
SplineSet
56 367 m 1x70
 82.6142578125 414.314453125 121.978515625 458 190 458 c 0
 266 458 328 405 328 335 c 3
 328 222 138 89 121 66 c 9x70
 338 69 l 2
 370 69 393 108 415 138 c 1
 435 121 l 1
 435 121 375 39 370 -11 c 1xb0
 336 5 261 2 187 2 c 0
 97 2 38 0 33 0 c 1
 27 18 l 1
 69 75 260 187 260 325 c 3
 260 382 213 405 169 405 c 0
 123 405 96 381 76 353 c 1
 56 367 l 1x70
EndSplineSet
Validated: 33
Substitution2: "dnom-1" two.denom
Substitution2: "numr-1" two.numerator
Substitution2: "tnum-1" two.tabulartext
Substitution2: "lnum-1" two.proportionallining
EndChar

StartChar: three
Encoding: 51 51 66
GlifName: three
Width: 388
VWidth: 1159
Flags: W
HStem: -234 26<98.3077 116.651> 122 26<93 117.144> 402 52<130.681 219.829>
VStem: 236 67<266.659 384.313> 251 72<-77.1723 66.4688>
LayerCount: 2
Fore
SplineSet
91 -208 m 1xe8
 209 -155 251 -94 251 -7 c 3xe8
 251 68 194 116 147 137 c 1
 143 137 114 122 93 122 c 1
 84 148 l 1
 144 166 236 223 236 331 c 3
 236 389 191 402 174 402 c 3
 133 402 114 379 93 362 c 1
 79 380 l 1
 89 414 157 454 193 454 c 3
 252 454 303 409 303 344 c 3xf0
 303 248 206 176 202 172 c 1
 252 154 323 95 323 6 c 3
 323 -142 145 -227 101 -234 c 1
 91 -208 l 1xe8
EndSplineSet
Validated: 1
Substitution2: "dnom-1" three.denom
Substitution2: "numr-1" three.numerator
Substitution2: "tnum-1" three.tabulartext
Substitution2: "lnum-1" three.proportionallining
EndChar

StartChar: four
Encoding: 52 52 67
GlifName: four
Width: 463
VWidth: 1159
Flags: W
HStem: -7 21G<403.519 423.775> 0 45.5<56.3721 256 317 407.937> 402.3 20G<309.934 344>
VStem: 256 61<-178.286 0 45.5 270.662> 320.5 23.5<404.437 413.313>
LayerCount: 2
Fore
SplineSet
257 45.5 m 17x78
 257 129 263.81640625 221.055664062 255 277.5 c 9
 255 277.5 138.0703125 130.26953125 55 45.5 c 9
 257 45.5 l 17x78
344 409.5 m 25
 336.58984375 383.370117188 325.603515625 359.635742188 325 342.5 c 0
 321 229 320.509765625 174.200195312 317 45.5 c 1x78
 384 44 400 46 436 104.5 c 9
 436 104.5 452.3203125 97.83984375 457 95.5 c 9
 457 95.5 432.549804688 32.974609375 415 -7 c 1xb8
 392.038085938 2.591796875 344.772460938 1.060546875 317 1 c 1
 316.793945312 -73.654296875 319.56640625 -154.471679688 324 -179.5 c 1
 285 -203 263 -227 249 -252.5 c 9
 249 -252.5 225.509765625 -239.349609375 222 -233.5 c 1
 258 -179 255.592773438 -116.307617188 256 0 c 1
 72 0 33 1 5 -17 c 9
 5 -17 -10.9296875 -1.2900390625 -16 3 c 1
 -1 19 299.3671875 367.799804688 320.5 422.299804688 c 9
 344 409.5 l 25
EndSplineSet
Validated: 33
Substitution2: "dnom-1" four.denom
Substitution2: "numr-1" four.numerator
Substitution2: "tnum-1" four.tabulartext
Substitution2: "lnum-1" four.proportionallining
EndChar

StartChar: five
Encoding: 53 53 68
GlifName: five
Width: 362
VWidth: 1159
Flags: W
HStem: 326.5 72<120.63 288.458>
VStem: 246 63<-40.6381 97.0244>
LayerCount: 2
Fore
SplineSet
96 393.5 m 9
 160.349609375 395.450195312 245.5 396 261 398.5 c 0
 287.412109375 402.759765625 301.110351562 428.610351562 313 448.5 c 9
 313 448.5 332.3203125 436.83984375 337 434.5 c 9
 309.700195312 392.379882812 284.5 326 267 326.5 c 0
 236.475585938 327.372070312 184.009765625 323.5 122 323.5 c 9
 122 323.5 117.509765625 264.299804688 114 217.5 c 1
 196.5 224 309 176.166015625 309 48.5 c 3
 309 -95.595703125 153 -206 45 -215 c 9
 45 -215 45.33984375 -188.849609375 43 -183 c 1
 127 -180 246 -92.1005859375 246 28 c 3
 246 87.0654296875 202.5 164 71 152 c 1
 80.5 208 92.359375 305.161132812 96 393.5 c 9
EndSplineSet
Validated: 33
Substitution2: "dnom-1" five.denom
Substitution2: "numr-1" five.numerator
Substitution2: "tnum-1" five.tabulartext
Substitution2: "lnum-1" five.proportionallining
EndChar

StartChar: six
Encoding: 54 54 69
GlifName: six
Width: 487
VWidth: 1159
Flags: W
HStem: -10 40<226.82 331.156> 320 44<214.153 314.825>
VStem: 71 72<129.031 347.68> 375 64<95.8203 248.065>
LayerCount: 2
Fore
SplineSet
369 630 m 9
 369 630 377.099609375 612.459960938 381 607 c 1
 228 538 143 413.28515625 143 244 c 27
 143 142.525390625 188.8828125 30 291 30 c 3
 339.225585938 30 375 82.2705078125 375 142 c 3
 375 245.787109375 323.599609375 320 258 320 c 3
 230.620117188 320 214 304 194 282 c 1
 173 296 l 1
 191 336 235.845703125 364 291 364 c 3
 366 364 439 276.702148438 439 178 c 3
 439 75.951171875 345.0234375 -10 257 -10 c 3
 131.85546875 -10 71 121.913085938 71 214 c 3
 71 413.572265625 195 572 369 630 c 9
EndSplineSet
Validated: 1
Substitution2: "dnom-1" six.denom
Substitution2: "numr-1" six.numerator
Substitution2: "tnum-1" six.tabulartext
Substitution2: "lnum-1" six.proportionallining
EndChar

StartChar: seven
Encoding: 55 55 70
GlifName: seven
Width: 420
VWidth: 1159
Flags: W
HStem: 339 67<88.377 340.466>
LayerCount: 2
Fore
SplineSet
88 422 m 17
 96 410 106.708984375 406.586914062 121 406 c 24
 241.021484375 401.072265625 415 404 429 408 c 9
 429 408 435.879882812 390.900390625 439 387 c 1
 403 357 147 -132 151 -170 c 9
 151 -170 104.1796875 -167.219726562 80 -168 c 1
 180 0 255.811523438 122.745117188 354 317 c 0
 357.623046875 324.166992188 352.004882812 334.358398438 344 335 c 0
 267.584960938 341.12109375 258 343 142 339 c 0
 96.1396484375 337.418945312 61 328.799804688 46 283 c 9
 46 283 25.240234375 291.440429688 19 293 c 9
 19 293 58 396 64 427 c 9
 88 422 l 17
EndSplineSet
Validated: 33
Substitution2: "dnom-1" seven.denom
Substitution2: "numr-1" seven.numerator
Substitution2: "tnum-1" seven.tabulartext
Substitution2: "lnum-1" seven.proportionallining
EndChar

StartChar: eight
Encoding: 56 56 71
GlifName: eight
Width: 468
VWidth: 1159
UnlinkRmOvrlpSave: 1
Flags: W
HStem: -7 34<198.562 310.068> 601 30<181.115 269.561>
VStem: 65 66<92.7065 220.453> 96 44<449.749 559.456> 323 57<427.637 550.295> 349 66<77.2167 214.897>
LayerCount: 2
Fore
SplineSet
221 601 m 3xe8
 182.759765625 601 140 557.240234375 140 521 c 3
 140 359.752929688 415 333.541992188 415 155 c 3xd4
 415 57.6220703125 333.377929688 -7 225 -7 c 3
 142.084960938 -7 65 41.5078125 65 133 c 3
 65 334.173828125 323 331.985351562 323 476 c 3
 323 520.192382812 293.192382812 601 221 601 c 3xe8
235 631 m 3
 309.364840863 631 380 589.301337248 380 497 c 3
 380 337.97265625 131 333.3203125 131 173 c 3xe8
 131 100.75 183.142578125 27 253 27 c 3
 339.083007812 27 349 101.166992188 349 133 c 3
 349 209.573242188 310.577314014 244.362524352 242.071289062 296 c 0
 170.9453125 349.612304688 96 402.180664062 96 484 c 3
 96 574.750976562 174.927242309 631 235 631 c 3
EndSplineSet
Substitution2: "dnom-1" eight.denom
Substitution2: "numr-1" eight.numerator
Substitution2: "lnum-1" eight.proportionallining
Substitution2: "tnum-1" eight.tabulartext
EndChar

StartChar: uniFB00
Encoding: 64256 64256 73
GlifName: uniF_B_00
Width: 642
VWidth: 1159
Flags: W
HStem: -6 39<34 100.133 318.611 384.133 475.174 568.568> 1 32<191.619 269.028 475.619 566.018> 360 37<39 113 187 399 471 624> 669 55<273.933 387.321> 701 55<557.254 661.117>
VStem: 114 71<42.7113 360 397 588.557> 400 69<44.5312 360 397 610.446>
LayerCount: 2
Fore
SplineSet
399 397 m 1x36
 399 436 397 481 397 493 c 3
 397 551 409 593 431 627 c 1
 393 645 346 669 309 669 c 3
 206 669 189 602 189 491 c 3
 189 480 188 435 187 397 c 1
 209 398 245 399 282 399 c 3
 332 399 385 398 399 397 c 1x36
483 685 m 1
 490 691 499 698 508 704 c 0
 547 731 584 756 643 756 c 3
 675 756 725 745 750 723 c 1
 749 696 750 696 701 659 c 1
 662 677 631 701 593 701 c 3
 490 701 475 609 475 498 c 3
 475 487 472 435 471 397 c 1
 523 399 572 399 624 401 c 1
 624 355 l 1
 572 357 522 358 470 360 c 1
 469 330 469 305 469 293 c 3
 469 211 470 134 475 54 c 0
 476 39 482 34 498 33 c 0
 523 32 546 32 571 31 c 1
 568 -6 l 1xae
 526 -1 466 1 424 1 c 3x66
 394 1 349 -2 319 -6 c 1
 317 30 l 1
 328 31 342 31 353 33 c 0xa6
 384 40 388 53 390 81 c 0
 395 133 400 201 400 266 c 3
 400 286 399 323 399 360 c 1
 385 359 332 359 282 359 c 3
 245 359 208 359 186 360 c 1
 185 330 185 305 185 293 c 3
 185 211 186 134 191 54 c 0
 192 39 198 34 214 33 c 0
 239 32 248 32 273 31 c 1
 271 -7 l 1
 229 -2 182 1 140 1 c 3x66
 110 1 64 -2 34 -6 c 1
 33 30 l 1
 44 31 58 31 69 33 c 0xa6
 100 40 104 53 106 81 c 0
 111 133 114 201 114 266 c 3
 114 286 113 323 113 360 c 1
 88 359 64 356 39 355 c 1
 39 401 l 1
 64 400 88 398 113 397 c 1
 113 436 113 474 113 486 c 3
 113 594 156 625 224 672 c 0
 263 699 304 724 363 724 c 3
 394 724 457 706 483 685 c 1
EndSplineSet
Validated: 1
Substitution2: "salt-1" uniFB00.alt
LCarets2: 1 311
Ligature2: "liga-1" f f
EndChar

StartChar: question
Encoding: 63 63 74
GlifName: question
Width: 378
VWidth: 1159
Flags: W
HStem: -21 140<95.678 138.536> 559.439 86.3608<67.0492 192.794> 680.8 20G<42.0879 62.5>
VStem: 26.1369 25.8631<672.026 695.853> 48 141<25.3087 69.9365> 110 18<185 224.85> 274 27<382.756 488.042>
LayerCount: 2
Fore
SplineSet
38 556.8 m 5xf6
 40.004833655 573.545373103 40.8164204084 588.176249895 40.8164204084 600.982038936 c 7
 40.8164204084 655.444150344 26.1369221359 676.895160528 26.1369221359 687.59766363 c 7
 26.1369221359 694.46213426 32.1757769697 696.904881972 52 700.8 c 5
 73 645.8 80 645.8 110 645.8 c 7
 206.132 645.8 301 565.837 301 444.8 c 7
 301 276.485 186.449 267.419 172 261.8 c 4
 144.69 247.8 130.667 225.8 128 185 c 13
 128 185 114.8 183.8 110 183.8 c 5
 106.776632964 214.303528103 103.82423636 242.461492248 103.82423636 266.457131635 c 7
 103.82423636 302.015713954 110.307578181 328.434001862 132 339.8 c 4
 158.928 353.909 274 321.545 274 435.8 c 7
 274 513.494315351 201.403177297 559.439212105 87.3039357441 559.439212105 c 7
 71.6259866427 559.439212105 55.1644520351 558.571750493 38 556.8 c 5xf6
EndSplineSet
Refer: 48 46 S 1 0 0 1 18 0 2
Validated: 1
Position2: "cpsp-1" dx=0 dy=0 dh=50 dv=100
Substitution2: "smcp-1" question.smcp
Substitution2: "pcap-1" question.pcap
EndChar

StartChar: exclam
Encoding: 33 33 75
GlifName: exclam
Width: 266
VWidth: 1159
Flags: W
HStem: -21 140<100.678 143.536>
VStem: 53 141<25.3087 69.9365> 109 45<209 415.199>
LayerCount: 2
Fore
SplineSet
109 209 m 21xa0
 109 339 107 437 100 533 c 4
 96 580 72 604 74 654 c 5
 155 664 198 692 203 661 c 5
 187 625 189 602 183 533 c 4
 172 408 154 342 154 208 c 13
 109 209 l 21xa0
EndSplineSet
Refer: 48 46 N 1 0 0 1 23 0 2
Validated: 33
Substitution2: "pcap-1" exclam.pcap
Substitution2: "smcp-1" exclam.smcp
Position2: "cpsp-1" dx=0 dy=0 dh=50 dv=100
EndChar

StartChar: paragraph
Encoding: 182 182 76
GlifName: paragraph
Width: 591
VWidth: 1159
UnlinkRmOvrlpSave: 1
Flags: W
HStem: -8 21G<360.141 462.704> 661 20G<323 362.686> 686 55<409.014 555>
VStem: 60 171<219 436.912> 315 38<57 490.2> 323 40<235.8 673>
LayerCount: 2
Fore
SplineSet
323 673 m 25xf4
 363 681 l 25xf4
 353 45 l 25
 315 57 l 25xf8
 323 673 l 25xf4
555 741 m 1
 557 686 l 1
 515 683 367 681 299 638 c 0
 248.677734375 606.178710938 231 581.006835938 231 289 c 3
 231 149 256.18359375 116.392578125 287 89 c 0
 305.614257812 72.619140625 400.75 53.1669921875 469 46 c 1
 459 -8 l 1
 261.282226562 35.3046875 223.544921875 69.775390625 169 131 c 0
 111 197 82.71875 279.143554688 66 343 c 0
 62.84375 355.05859375 60 365 60 375 c 3
 60 382 61.6796875 390.366210938 65 399 c 0
 95 477 146.142578125 586.794921875 247 657 c 0
 349 728 555 741 555 741 c 1
EndSplineSet
Position2: "cpsp-1" dx=0 dy=0 dh=50 dv=100
EndChar

StartChar: ampersand
Encoding: 38 38 78
GlifName: ampersand
Width: 676
VWidth: 1159
Flags: W
HStem: -11 57<161.575 299.635 513.09 600.584> 461 35<584.895 645> 492 33<480.667 506.511>
VStem: 17 72<119.103 262.82> 81 38<475.664 567.366> 289 62<462.542 556.254>
LayerCount: 2
Fore
SplineSet
202 360 m 1x94
 131 330 89 273 89 216 c 3
 89 111 147 46 242 46 c 3
 312 46 353 107 386 146 c 1
 316 303 240 344 202 360 c 1x94
197 594 m 0
 166 594 119 568 119 525 c 3
 119 466 183 440 225 415 c 1
 268 442 289 467 289 492 c 3xac
 289 542 251 594 197 594 c 0
645 461 m 1xcc
 604 461 574 446 562 415 c 0
 526 330 495 261 448 181 c 1
 489 75 532 41 565 41 c 3
 602 41 627 90 641 121 c 1
 672 108 l 1
 640 39 616 -5 530 -5 c 3
 477 -5 433 45 406 108 c 1
 374 78 332 -11 199 -11 c 3
 80 -11 17 85 17 172 c 3xd4
 17 274 88 345 169 378 c 1
 121 404 81 448 81 506 c 3
 81 593 156 626 231 653 c 1
 316 623 351 575 351 498 c 3
 351 482 304 429 260 399 c 1
 317 376 392 298 428 216 c 1
 466 279 512 384 526 443 c 0
 532 469 492 485 472 492 c 1
 483 525 l 1xac
 525 509 598 495 648 496 c 1
 645 461 l 1xcc
EndSplineSet
Validated: 33
Substitution2: "pcap-1" ampersand.pcap
Substitution2: "smcp-1" ampersand.smcp
Position2: "cpsp-1" dx=0 dy=0 dh=50 dv=100
EndChar

StartChar: quotesingle
Encoding: 39 39 79
GlifName: quotesingle
Width: 200
VWidth: 1159
Flags: W
HStem: 445.7 254<79 119>
VStem: 51 96<522.722 699.7> 79 40<445.7 617.021>
LayerCount: 2
Fore
SplineSet
51 699.7 m 9xc0
 147 699.7 l 17xc0
 145.966 630.734 121.666 537.034 119 445.7 c 9
 79 445.7 l 17xa0
 76.2106 536.911 52.1894 630.89 51 699.7 c 9xc0
EndSplineSet
Validated: 1
Position2: "cpsp-1" dx=0 dy=0 dh=7 dv=14
EndChar

StartChar: bracketleft
Encoding: 91 91 85
GlifName: bracketleft
Width: 246
VWidth: 1515
Flags: W
HStem: -230 33<113.222 219> 685 32<123.8 219>
VStem: 37 46<-188 675>
LayerCount: 2
Fore
SplineSet
83 675 m 1
 83 -188 l 1
 219 -197 l 1
 219 -230 l 1
 37 -230 l 1
 37 717 l 1
 219 717 l 1
 219 685 l 1
 83 675 l 1
EndSplineSet
Validated: 1
Position2: "cpsp-1" dx=0 dy=0 dh=50 dv=100
Position2: "'case' vertical ajustments for all-caps-1" dx=0 dy=90 dh=0 dv=0
EndChar

StartChar: asterisk
Encoding: 42 42 87
GlifName: asterisk
Width: 362
VWidth: 1159
Flags: W
HStem: 402 21G<232.5 263.5>
VStem: 135 79<610.995 694.668>
LayerCount: 2
Fore
SplineSet
188 522 m 1
 162 468 169 444 137 387 c 1
 114 383 80 416 75 434 c 1
 112 487 132 487 169 533 c 1
 109 540 89 528 26 540 c 1
 14 563 38 605 50 614 c 1
 112 596 118 576 173 555 c 1
 162 614 142 628 135 692 c 1
 150 708 198 703 214 691 c 1
 215 627 200 616 196 557 c 1
 249 587 256 608 315 635 c 1
 331 628 347 587 338 561 c 1
 278 540 262 551 205 536 c 1
 249 494 272 493 316 446 c 1
 314 426 275 402 252 402 c 1
 213 454 220 473 188 522 c 1
EndSplineSet
Validated: 33
EndChar

StartChar: Acute
Encoding: 58018 58018 90
GlifName: A_cute
Width: 222
VWidth: 1159
Flags: W
HStem: 744.9 147.152
VStem: 26.4932 234.89
AnchorPoint: "Top" 64 699 mark 0
LayerCount: 2
Fore
SplineSet
26.4931640625 780.448242188 m 17
 79.3388671875 818.389648438 169.993164062 869.749023438 228.943359375 892.052734375 c 1
 231.741210938 889.095703125 251.98046875 854.846679688 261.3828125 825.016601562 c 1
 201.698242188 816.883789062 121.98828125 788.180664062 39.8623046875 744.900390625 c 9
 26.4931640625 780.448242188 l 17
EndSplineSet
Validated: 1
EndChar

StartChar: acutecomb
Encoding: 769 769 92
GlifName: acutecomb
Width: 0
VWidth: 1159
Flags: W
HStem: 427.951 225.517
VStem: -234.611 169.822
AnchorPoint: "TopMark" -216 403 mark 0
AnchorPoint: "Top" -198.5 402 mark 0
AnchorPoint: "TopMark" -191 616 basemark 0
LayerCount: 2
Fore
SplineSet
-234.611 448.625 m 17
 -209.601 509.115 -160.208 601.944 -122.844 653.468 c 1
 -119.172164621 652.712528139 -86.5326572598 637.00817921 -64.7891 618.62 c 1
 -109.449 577.968 -160.659 509.459 -206.941 427.951 c 9
 -234.611 448.625 l 17
EndSplineSet
Validated: 1
EndChar

StartChar: uni0302
Encoding: 770 770 93
GlifName: uni0302
Width: 0
VWidth: 1159
Flags: W
HStem: 422.6 184.8
VStem: -310.25 225.5
AnchorPoint: "TopMark" -198.5 587 basemark 0
AnchorPoint: "TopMark" -200.5 384 mark 0
AnchorPoint: "Top" -198.5 401 mark 0
LayerCount: 2
Fore
SplineSet
-84.75 435.8 m 1
 -104.55 422.6 l 1
 -197.5 528.581 l 1
 -290.45 422.6 l 1
 -310.25 435.8 l 1
 -213.45 607.4 l 1
 -181.55 607.4 l 1
 -84.75 435.8 l 1
EndSplineSet
Validated: 1
EndChar

StartChar: gravecomb
Encoding: 768 768 94
GlifName: gravecomb
Width: 0
VWidth: 1159
Flags: W
HStem: 430.175 225.516
VStem: -337.486 169.82
AnchorPoint: "TopMark" -195 625 basemark 0
AnchorPoint: "Top" -198.5 409 mark 0
AnchorPoint: "TopMark" -196 410 mark 0
LayerCount: 2
Fore
SplineSet
-167.666 450.849 m 9
 -195.335 430.175 l 17
 -241.617 511.682 -292.827 580.192 -337.486 620.844 c 1
 -316.02871574 639.102548633 -281.637923868 654.548346758 -279.433 655.691 c 1
 -242.068 604.168 -192.677 511.339 -167.666 450.849 c 9
EndSplineSet
Validated: 1
EndChar

StartChar: Grave
Encoding: 58019 58019 96
GlifName: G_rave
Width: 222
VWidth: 1159
Flags: W
HStem: 744.316 147.151
VStem: -116.065 234.888
AnchorPoint: "Top" 64 699 mark 0
LayerCount: 2
Fore
SplineSet
118.822265625 779.864257812 m 9
 105.454101562 744.31640625 l 17
 23.3291015625 787.595703125 -56.3818359375 816.30078125 -116.065429688 824.43359375 c 1
 -106.844726562 853.971679688 -84.9521484375 889.083007812 -83.6259765625 891.467773438 c 1
 -24.67578125 869.165039062 65.9765625 817.8046875 118.822265625 779.864257812 c 9
EndSplineSet
Validated: 1
EndChar

StartChar: uni030A
Encoding: 778 778 98
GlifName: uni030A_
Width: 0
VWidth: 1159
Flags: W
HStem: 425.265 31.606<-232.945 -164.224> 545.129 31.606<-231.776 -163.399>
VStem: -275.22 32.227<467.081 533.825> -153.007 32.227<468.175 534.808>
AnchorPoint: "TopMark" -200.5 382 mark 0
AnchorPoint: "TopMark" -198.5 562 basemark 0
AnchorPoint: "Top" -198.5 395 mark 0
LayerCount: 2
Fore
SplineSet
-198 545.129 m 0
 -221.362 545.129 -242.993 526.093 -242.993 500.135 c 0
 -242.993 474.176 -222.227 456.871 -198 456.871 c 0
 -174.638 456.871 -153.007 475.907 -153.007 501.865 c 0
 -153.007 526.093 -173.773 545.129 -198 545.129 c 0
-198 576.735 m 0
 -156.42 576.735 -120.78 544.064 -120.78 502.485 c 0
 -120.78 457.935 -157.905 425.265 -198 425.265 c 0
 -239.58 425.265 -275.22 454.965 -275.22 499.515 c 0
 -275.22 544.064 -238.095 576.735 -198 576.735 c 0
EndSplineSet
Validated: 1
EndChar

StartChar: uni031B
Encoding: 795 795 99
GlifName: uni031B_
Width: 0
VWidth: 1159
Flags: W
HStem: 330 18<-84.5 -47.4434>
VStem: 12.8818 62.7432<400.38 466.056>
AnchorPoint: "Horn" -73.5 341.8 mark 0
LayerCount: 2
Fore
SplineSet
12.8818359375 414.884765625 m 7
 12.8818359375 428.595703125 2.005859375 439.401367188 -15.744140625 450.72265625 c 5
 -6.4501953125 476.256835938 12.16015625 492.322265625 32.20703125 492.322265625 c 7
 58.421875 492.322265625 75.625 468.857421875 75.625 444.775390625 c 7
 75.625 399.205078125 -15.2378927954 330.428 -84.5 330 c 1
 -85 348 l 1
 -41.3873810375 349.464 12.8818359375 384.092773438 12.8818359375 414.884765625 c 7
EndSplineSet
Validated: 1
EndChar

StartChar: tildecomb
Encoding: 771 771 100
GlifName: tildecomb
Width: 0
VWidth: 1159
Flags: W
HStem: 421.645 21G<-344.926 -307.255> 434.053 60<-213.463 -120.137> 471.391 59.446<-293.306 -199.999>
VStem: -344.926 273.107
AnchorPoint: "TopMark" -214 389 mark 0
AnchorPoint: "TopMark" -198.5 538 basemark 0
AnchorPoint: "Top" -210 382 mark 0
LayerCount: 2
Fore
SplineSet
-344.926 435.354 m 1xb0
 -317.125 489.608 -275.136 530.837 -268.111 530.837 c 3xb0
 -228.384 530.837 -182.993 494.053 -144.325 494.053 c 3
 -134.725 494.053 -114.299 518.275 -103.104 547.824 c 1
 -71.8193 534.539 l 1
 -91.5257 483.781 -129.232 434.053 -140.992 434.053 c 3x50
 -178.933 434.053 -234.885 471.391 -270.774 471.391 c 3
 -282.6 471.391 -301 440.771 -313.51 421.645 c 1
 -344.926 435.354 l 1xb0
EndSplineSet
Validated: 1
EndChar

StartChar: uni0306
Encoding: 774 774 105
GlifName: uni0306
Width: 0
VWidth: 1159
Flags: W
HStem: 436.274 54.719<-267.503 -128.241>
VStem: -330.178 28.08<532.771 549.079> -92.9023 28.081<535.635 549.079>
AnchorPoint: "TopMark" -200.5 396 mark 0
AnchorPoint: "TopMark" -202 541 basemark 0
AnchorPoint: "Top" -198.5 393 mark 0
LayerCount: 2
Fore
SplineSet
-330.178 545.649 m 1
 -302.098 559.41 l 1
 -287.169 513.847 -242.601 490.993 -197.887 490.993 c 0
 -153.266 490.993 -108.501 513.751 -92.9023 559.41 c 1
 -64.8213 545.649 l 1
 -84.1265 472.732 -141.164 436.274 -198.026 436.274 c 0
 -254.888 436.274 -311.575 472.732 -330.178 545.649 c 1
EndSplineSet
Validated: 1
EndChar

StartChar: uni0313
Encoding: 787 787 111
GlifName: uni0313
Width: 0
VWidth: 1159
Flags: W
HStem: 438.94 204.119
VStem: -218.13 116.64
AnchorPoint: "TopMark" -178 410 mark 0
AnchorPoint: "TopMark" -167 631 basemark 0
AnchorPoint: "Top" -179 414 mark 0
LayerCount: 2
Fore
SplineSet
-205.169921875 438.940429688 m 1
 -218.129882812 459.190429688 l 1
 -190.58984375 476.200195312 -155.759765625 510.219726562 -167.099609375 535.330078125 c 0
 -175.200195312 553.150390625 -193.01953125 565.299804688 -210.030273438 574.209960938 c 0
 -214.080078125 575.830078125 -215.700195312 581.5 -215.700195312 586.360351562 c 3
 -215.700195312 591.219726562 -214.080078125 595.26953125 -210.030273438 596.889648438 c 0
 -193.01953125 605.799804688 -180.059570312 618.759765625 -171.150390625 635.76953125 c 0
 -169.530273438 639.8203125 -164.669921875 643.059570312 -159.809570312 643.059570312 c 3
 -154.950195312 643.059570312 -150.08984375 639.8203125 -148.469726562 635.76953125 c 0
 -139.559570312 618.759765625 -124.98046875 605.799804688 -107.969726562 596.889648438 c 0
 -103.919921875 595.26953125 -101.490234375 591.219726562 -101.490234375 586.360351562 c 3
 -101.490234375 581.5 -109.58984375 491.58984375 -205.169921875 438.940429688 c 1
EndSplineSet
Validated: 33
EndChar

StartChar: uni0315
Encoding: 789 789 113
GlifName: uni0315
Width: 0
VWidth: 1159
Flags: W
HStem: 450.494 206.751
VStem: -59.75 61<571.847 641.311>
AnchorPoint: "TopRight" -110.5 531 mark 0
LayerCount: 2
Fore
SplineSet
-59.75 657.245 m 9
 1.25 639.245 l 1
 -12.9151 577.095 -43.2689 501.134 -106 450.494 c 9
 -126 464.494 l 1
 -87.0294 521.86 -68.2984 587.855 -59.75 657.245 c 9
EndSplineSet
Validated: 1
EndChar

StartChar: Circumflex
Encoding: 58020 58020 159
GlifName: C_ircumflex
Width: 281
VWidth: 1159
Flags: HMW
AnchorPoint: "Top" 140 699 mark 0
LayerCount: 2
Fore
SplineSet
279.505 761.361 m 1
 252.097 747.855 l 1
 140.5 792.263 l 1
 28.9033 747.855 l 1
 1.49512 761.361 l 1
 121.846 859.4 l 1
 159.154 859.4 l 1
 279.505 761.361 l 1
EndSplineSet
Validated: 1
EndChar

StartChar: Tilde
Encoding: 58022 58022 161
GlifName: T_ilde
Width: 329
VWidth: 1159
Flags: W
HStem: 754.053 60<160.322 263.434> 791.391 59.4463<72.1065 175.197>
VStem: 15.0732 301.744
AnchorPoint: "Top" 165 699 mark 0
LayerCount: 2
Fore
SplineSet
15.0732421875 755.353515625 m 1x60
 45.7890625 809.608398438 92.181640625 850.836914062 99.943359375 850.836914062 c 3x60
 143.8359375 850.836914062 193.986328125 814.052734375 236.708984375 814.052734375 c 3
 247.315429688 814.052734375 269.883789062 838.275390625 282.252929688 867.82421875 c 1
 316.817382812 854.5390625 l 1
 295.044921875 803.78125 253.384765625 754.052734375 240.391601562 754.052734375 c 3xa0
 198.471679688 754.052734375 136.653320312 791.390625 97.0009765625 791.390625 c 3
 83.9345703125 791.390625 63.60546875 760.771484375 49.783203125 741.64453125 c 1
 15.0732421875 755.353515625 l 1x60
EndSplineSet
Validated: 1
EndChar

StartChar: Breve
Encoding: 58023 58023 162
GlifName: B_reve
Width: 321
VWidth: 1159
Flags: W
HStem: 747.448 52.8333<75.3985 244.868>
VStem: 16.7646 287.47
AnchorPoint: "Top" 162 699 mark 0
LayerCount: 2
Fore
SplineSet
16.7646 838.464 m 1
 47.1855 852.798 l 1
 63.3586508737 817.823451746 111.64150068 800.28106753 160.081420478 800.28106753 c 7
 208.420101256 800.28106753 256.915196163 817.750201506 273.814 852.798 c 1
 304.235 838.464 l 1
 283.3205 777.7865 221.529825 747.44775 159.9293125 747.44775 c 7
 98.3288 747.44775 36.91845 777.7865 16.7646 838.464 c 1
EndSplineSet
Validated: 1
EndChar

StartChar: Ring
Encoding: 58026 58026 165
GlifName: R_ing
Width: 281
VWidth: 1159
Flags: W
HStem: 736.972 38.3723<100.526 176.371> 868.246 38.3722<102.629 177.208>
VStem: 53.0137 39.124<783.978 858.53> 186.862 39.1243<785.059 858.629>
AnchorPoint: "Top" 132 699 mark 0
LayerCount: 2
Fore
SplineSet
139.5 868.246 m 0
 114.908 868.246 92.1377 848.208 92.1377 820.884 c 0
 92.1377 793.56 113.998 775.344 139.5 775.344 c 0
 164.092 775.344 186.862 795.382 186.862 822.706 c 0
 186.862 848.208 165.002 868.246 139.5 868.246 c 0
139.5 906.618 m 4
 186.07 906.618 225.986 870.027 225.986 823.458 c 4
 225.986 773.561 184.406 736.972 139.5 736.972 c 4
 92.9301 736.972 53.0137 770.236 53.0137 820.132 c 4
 53.0137 870.027 94.5938 906.618 139.5 906.618 c 4
EndSplineSet
Validated: 1
EndChar

StartChar: Uni030B
Encoding: 58027 58027 166
GlifName: U_ni030B_
Width: 300
VWidth: 1159
Flags: W
HStem: 728.472 183.528
VStem: 20.5 261.258
AnchorPoint: "Top" 87 699 mark 0
LayerCount: 2
Fore
SplineSet
20.5 754.3 m 17
 41.5 808.3 62 861 95 912 c 9
 95 912 128.44 895.56 149.5 882.3 c 1
 107.5 838.3 91.5 814.3 47.5 734.3 c 9
 20.5 754.3 l 17
120.971 755.492 m 17
 156.841 800.993 191.854 845.396 238.322 884.52 c 9
 238.322 884.52 265.494 859.021 281.758 840.184 c 1
 228.729 810.386 206.41 792.112 140.943 728.472 c 9
 120.971 755.492 l 17
EndSplineSet
Validated: 1
EndChar

StartChar: eogonek
Encoding: 281 281 253
GlifName: eogonek
Width: 409
VWidth: 1159
UnlinkRmOvrlpSave: 1
Flags: W
HStem: -303.658 60.1279<275.366 346.494> 425 168
VStem: 53 185 190.912 69.209<-230.259 -111.139>
AnchorPoint: "Top" 209 465 basechar 0
LayerCount: 2
Back
SplineSet
366.630859375 52.54296875 m 5xd0
 276.377929688 -47.1502175719 262.771484375 -94.5674013864 262.771484375 -186 c 7
 262.771484375 -236.143554688 288.107421875 -265.872070312 320.166015625 -265.872070312 c 7
 339.918945312 -265.872070312 363.635742188 -255.18359375 387.97265625 -231.599609375 c 13
 387.97265625 -231.599609375 399.081054688 -241.926757812 401.771484375 -250 c 5
 374.767578125 -302.788085938 329.271484375 -326 287.771484375 -326 c 7
 237.798828125 -326 193.561523438 -284.413085938 193.561523438 -214.834960938 c 7
 193.561523438 -150.617750838 236.666992188 -26.3930451996 359.931640625 73.76171875 c 5
 366.630859375 52.54296875 l 5xd0
EndSplineSet
Fore
SplineSet
363.98046875 49.884765625 m 1xd0
 273.727539062 -43.5393374647 260.12109375 -87.9747324245 260.12109375 -173.658203125 c 3
 260.12109375 -217.5234375 285.45703125 -243.530273438 317.515625 -243.530273438 c 3
 330.34375 -243.530273438 345.74609375 -239.079101562 361.55078125 -229.2578125 c 1
 361.55078125 -229.2578125 372.66015625 -239.584960938 375.349609375 -247.658203125 c 1
 353.9765625 -286.5546875 317.967773438 -303.658203125 285.12109375 -303.658203125 c 3
 235.149414062 -303.658203125 190.912109375 -265.8125 190.912109375 -202.493164062 c 3
 190.912109375 -141.613760624 234.016601562 -23.8457629693 357.282226562 71.103515625 c 1
 363.98046875 49.884765625 l 1xd0
EndSplineSet
Refer: 4 101 N 1 0 0 1 0 0 3
Substitution2: "smcp-1" eogonek.smcp
Substitution2: "case-1" Eogonek
Substitution2: "pcap-1" eogonek.pcap
EndChar

StartChar: uni0328
Encoding: 808 808 254
GlifName: uni0328
Width: 0
VWidth: 1159
Flags: W
HStem: -300 60.128<-182.984 -111.856>
VStem: -267.438 69.209<-226.6 -119.119>
AnchorPoint: "Ogonek" -104.35 21.6582 mark 0
LayerCount: 2
Back
SplineSet
-94.3691 15.543 m 1
 -195.162388974 -70.3584937184 -226.228515625 -111.215514218 -226.228515625 -190 c 3
 -226.228515625 -221.309227792 -201.775586907 -239.872070312 -170.833984375 -239.872070312 c 3
 -154.801506148 -239.872070312 -135.55173736 -232.614365408 -115.798828125 -216.599609375 c 1
 -115.798828125 -216.599609375 -104.690305483 -226.926828613 -102 -235 c 1
 -125.978710258 -280.147631579 -166.377945685 -300 -203.228515625 -300 c 3
 -253.201025342 -300 -297.438476562 -268.513714542 -297.438476562 -215.834960938 c 3
 -297.438476562 -159.628200176 -233.56061762 -50.8996824072 -101.068 36.7617 c 1
 -94.3691 15.543 l 1
EndSplineSet
Fore
SplineSet
-94.3691 15.543 m 1
 -184.622 -62 -198.229 -98.8815 -198.229 -170 c 3
 -198.229 -213.865 -172.893 -239.872 -140.834 -239.872 c 3
 -128.005964569 -239.872 -112.603684738 -235.421039712 -96.798828125 -225.599609375 c 1
 -96.798828125 -225.599609375 -85.6903054834 -235.926828613 -83 -244 c 1
 -104.373177652 -282.896421053 -140.382622133 -300 -173.229 -300 c 3
 -223.201 -300 -267.438 -262.154 -267.438 -198.835 c 3
 -267.438 -146.411 -224.333 -45 -101.068 36.7617 c 1
 -94.3691 15.543 l 1
EndSplineSet
Validated: 1
EndChar

StartChar: Aogonek
Encoding: 260 260 255
GlifName: A_ogonek
Width: 730
VWidth: 0
HStem: -346.802 72.7783<509.644 579.002> 245 42<247 437.657> 692 20G<358 405.73>
VStem: 360 43<632.023 712> 417.273 71.958<-253.556 -112.611>
LayerCount: 2
Fore
SplineSet
247 287 m 1
 300 282 410 283 459 283 c 1
 420 383 394 443 352 545 c 9
 311 444 284 378 247 287 c 1
515.106 9.30371 m 0
 528.580338516 25.1898171388 540.25 48 535 76 c 0
 512 139 498 173 475 236 c 1
 415 246 318 252 231 245 c 9
 204.87 183.38 185 147 164 87 c 0
 152 51 176 29 247 34 c 9
 245 -10 l 1
 190 1 82 4 27 -5 c 9
 27 -5 23 20 22 34 c 1
 71 48 95 57 106 80 c 0
 198 289 276 470 344 640 c 0
 359 678 356 679 360 712 c 9
 403 712 l 9
 408.46 684.7 403 681 417 642 c 0
 489.318 423.284 532.922 291.261 632 78.1982 c 0
 640 60.9938 671.846 35.0799 702 32 c 9
 702 32 701 8 700 -4 c 1
 648.463 32.9972 584.223 32.6444 544 -14 c 0
 498.216367131 -67.0927599884 489.231445312 -140.721568606 489.231445312 -196.747070312 c 3
 489.231445312 -237.611373161 518.631004142 -274.0234375 550.14453125 -274.0234375 c 3
 569.969724697 -274.0234375 593.77495698 -267.592408263 618.200195312 -253.40234375 c 9
 618.200195312 -253.40234375 629.310038072 -263.730014861 632 -271.801757812 c 1
 605.823 -315.298757812 555.232 -346.801757812 515 -346.801757812 c 3
 465.302222486 -346.801757812 417.2734375 -298.236689929 417.2734375 -235.232421875 c 3
 417.2734375 -105.15651352 478.973157111 -33.2965417808 515.106 9.30371 c 0
EndSplineSet
Validated: 33
Position2: "cpsp-1" dx=0 dy=0 dh=50 dv=100
Substitution2: "c2pc-1" aogonek.pcap
Substitution2: "c2sc-1" aogonek.smcp
EndChar

StartChar: Uni0328
Encoding: 58029 58029 257
GlifName: U_ni0328
Width: 0
VWidth: 1159
Flags: W
HStem: -338.23 73.7197<-184.546 -117.498>
VStem: -275.584 71.875<-244.983 -118.496>
AnchorPoint: "Ogonek" -105.35 23.6582 mark 0
LayerCount: 2
Fore
SplineSet
-92.1719 12.3926 m 1
 -164.514989866 -37.5177021671 -203.708984375 -122.700132364 -203.708984375 -187.03125 c 3
 -203.708984375 -228.469229743 -175.522824414 -264.510742188 -144.514648438 -264.510742188 c 3
 -123.539764965 -264.510742188 -98.3555048772 -255.777742187 -72.5146484375 -236.510742188 c 9
 -72.5146484375 -236.510742188 -61.4052257941 -246.838961447 -58.7158203125 -254.911132812 c 1
 -85.7705506897 -302.647325281 -138.205109564 -338.23046875 -179.78515625 -338.23046875 c 3
 -228.965068015 -338.23046875 -275.583984375 -289.420252063 -275.583984375 -227.85546875 c 3
 -275.583984375 -144.145292738 -241.514987387 -38.8975355005 -98.8711 45.1113 c 1
 -92.1719 12.3926 l 1
EndSplineSet
Validated: 1
EndChar

StartChar: Eogonek
Encoding: 280 280 258
GlifName: E_ogonek
Width: 672
VWidth: 0
UnlinkRmOvrlpSave: 1
HStem: -347.889 73.7197<484.634 553.852> -9 35<56 103.477> 3.0702 37.3021<232.525 492.796> 333 36<205 473.393> 646.077 36.8925<248.298 487.505> 657 31<48 108.489>
VStem: 122 93<372.549 638.287> 126.788 78.2122<90.4625 333 369 603.172> 395.766 71.875<-257.592 -149.807> 497 36<247.75 305.348 393.846 441.094> 538 30<537 618.59>
AnchorPoint: "Top" 330 699 basechar 0
LayerCount: 2
Fore
SplineSet
48 688 m 1xd6e0
 120.521055818 684.355725838 206.588460485 682.969176485 287.955928091 682.969176485 c 3
 429.86328558 682.969176485 557.47511282 687.186564497 574 691 c 1
 585.145145837 681.247997393 589.133414459 675.741599913 589.133414459 667.087387512 c 3
 589.133414459 650.893580795 575.168856119 623.677987617 568 537 c 1
 538 534 l 1
 527 570 546 617 510 628 c 0
 468.488636507 639.860389569 402.664140046 646.076658986 339.417525988 646.076658986 c 3
 306.677490841 646.076658986 274.628246937 644.410894684 247 641 c 0
 229 639 216 625 215 607 c 0x9ae0
 211 525.313559322 206 444.635593221 205 369 c 1
 269 371 429 371 443 372 c 0
 480 377 485 403 501 447 c 1
 535 440 l 1
 526.800908316 409.132831309 523.486685813 378.498275435 523.486685813 347.871954284 c 3
 523.486685813 314.997648821 527.305294619 282.132831309 533 249 c 1
 497 240 l 1
 477 311 484 324 443 328 c 0
 399 333 298 332 205 333 c 1
 204 235.613545816 208 147.262948207 220 81 c 0
 224 64 233 50 250 49 c 0
 295.831179232 44.5647245905 336.319436302 40.3723092792 374.696225476 40.3723092792 c 3
 414.193090286 40.3723092792 451.453436792 44.8130178498 490 58 c 0
 550.414440108 78.6680979317 560.916666667 101 601 177 c 1
 629 170 l 1
 601.909278218 96.0751847998 563.005363884 18.4683882549 538.489257812 -19.9775390625 c 0
 508.313510966 -67.2988618945 467.640625 -148.391015834 467.640625 -206.689453125 c 0
 467.640625 -242.779181534 495.826784961 -274.168945312 526.834960938 -274.168945312 c 0
 547.809960937 -274.168945312 572.993960937 -265.436945313 598.834960938 -246.168945312 c 1
 598.834960938 -246.168945312 609.943822568 -256.497164572 612.633789062 -264.569335938 c 1
 585.578932221 -312.305955472 533.145209671 -347.888671875 491.565429688 -347.888671875 c 0
 442.385016588 -347.888671875 395.765625 -303.499671875 395.765625 -247.513671875 c 0
 395.765625 -172.157942368 443.587456716 -80.3722695124 506.53125 0.1865234375 c 1
 426.116814261 0.92057786207 344.873636713 3.07020290016 269.953021447 3.07020290016 c 3xb9e0
 188.876938008 3.07020290016 115.205017511 0.552841530585 58 -9 c 1
 48 26 l 1
 101 36 124 49 124 77 c 1
 125.797958971 111.804426856 126.787753827 207.154066657 126.787753827 309.259280672 c 3xd1e0
 126.787753827 434.312117879 125.303061543 569.498316407 122 616 c 0
 121 643 116 643 43 657 c 1
 48 688 l 1xd6e0
EndSplineSet
Position2: "cpsp-1" dx=0 dy=0 dh=50 dv=100
Substitution2: "c2pc-1" eogonek.pcap
Substitution2: "c2sc-1" eogonek.smcp
EndChar

StartChar: Iogonek
Encoding: 302 302 259
GlifName: I_ogonek
Width: 341
VWidth: 0
UnlinkRmOvrlpSave: 1
Flags: W
HStem: -346.889 73.7197<164.804 231.852> -10 40<16.125 119.789> 652 43<21.3488 120.801>
VStem: 73.7656 71.875<-253.641 -109.865> 131 90<41.0295 293.416> 137.915 75.6029<80.3904 534.592>
LayerCount: 2
Fore
SplineSet
207.177734375 3.734375 m 1xf0
 167.264648438 -46.17578125 145.640625 -131.358398438 145.640625 -195.689453125 c 3
 145.640625 -237.126953125 173.827148438 -273.168945312 204.834960938 -273.168945312 c 3
 225.810546875 -273.168945312 250.994140625 -264.435546875 276.834960938 -245.168945312 c 9
 276.834960938 -245.168945312 287.944335938 -255.497070312 290.633789062 -263.569335938 c 1
 263.579101562 -311.305664062 211.14453125 -346.888671875 169.564453125 -346.888671875 c 3
 120.384765625 -346.888671875 73.765625 -298.078125 73.765625 -236.513671875 c 3
 73.765625 -152.803710938 98.1953125 -47.5556640625 200.478515625 36.453125 c 1
 207.177734375 3.734375 l 1xf0
EndSplineSet
Refer: 34 73 N 1 0 0 1 0 0 3
Position2: "cpsp-1" dx=0 dy=0 dh=50 dv=100
Substitution2: "c2pc-1" iogonek.pcap
Substitution2: "c2sc-1" iogonek.smcp
EndChar

StartChar: iogonek
Encoding: 303 303 260
GlifName: iogonek
Width: 263
VWidth: 0
UnlinkRmOvrlpSave: 1
Flags: W
HStem: -326 60.1279<121.017 198.674> -7 33<33 87 184 254> 572 102<98.589 183.411>
VStem: 36.5625 69.209<-252.6 -120.517> 89 104<581.438 664.599> 97 71<57 330>
LayerCount: 2
Fore
SplineSet
168 12.9248046875 m 5xe4
 113.924804688 -74.3896484375 105.771484375 -115.919921875 105.771484375 -196 c 7
 105.771484375 -239.865234375 131.106445312 -265.872070312 163.166015625 -265.872070312 c 7
 182.918945312 -265.872070312 206.635742188 -255.18359375 230.97265625 -231.599609375 c 5
 230.97265625 -231.599609375 242.081054688 -241.926757812 244.771484375 -250 c 5
 217.768554688 -302.788085938 172.271484375 -326 130.771484375 -326 c 7
 80.798828125 -326 36.5625 -288.154296875 36.5625 -224.834960938 c 7xf0
 36.5625 -167.208984375 66.80859375 -55.732421875 153.30078125 34.1435546875 c 5
 168 12.9248046875 l 5xe4
EndSplineSet
Refer: 8 105 N 1 0 0 1 0 0 3
Substitution2: "smcp-1" iogonek.smcp
Substitution2: "case-1" Iogonek
Substitution2: "pcap-1" iogonek.pcap
EndChar

StartChar: uogonek
Encoding: 371 371 262
GlifName: uogonek
Width: 506
VWidth: 0
UnlinkRmOvrlpSave: 1
Flags: W
HStem: -324.658 60.1279<313.017 390.674> -18.7812 20G<319.052 378.615> -11 55<171 272> 338 31<291 350>
VStem: 69 76<71 327> 228.562 69.21<-251.259 -142.76> 358 65<36 52 75 331>
LayerCount: 2
Fore
SplineSet
379 -20 m 1xde
 308.413085938 -92.994140625 297.771484375 -127.711914062 297.771484375 -194.658203125 c 3
 297.771484375 -238.5234375 323.107421875 -264.530273438 355.166015625 -264.530273438 c 3
 374.918945312 -264.530273438 398.635742188 -253.841796875 422.97265625 -230.2578125 c 1
 422.97265625 -230.2578125 434.081054688 -240.584960938 436.771484375 -248.658203125 c 1
 409.767578125 -301.446289062 364.271484375 -324.658203125 322.771484375 -324.658203125 c 3
 272.798828125 -324.658203125 228.561523438 -286.8125 228.561523438 -223.493164062 c 3
 228.561523438 -173.491210938 265.803710938 -76.765625 372.30078125 1.21875 c 1
 379 -20 l 1xde
EndSplineSet
Refer: 20 117 N 1 0 0 1 0 0 3
Substitution2: "smcp-1" uogonek.smcp
Substitution2: "case-1" Uogonek
Substitution2: "pcap-1" uogonek.pcap
EndChar

StartChar: uni0327
Encoding: 807 807 268
GlifName: uni0327
Width: 0
VWidth: 1159
UnlinkRmOvrlpSave: 1
Flags: W
VStem: -195 62.4277<-164.273 -94.0566>
AnchorPoint: "Bottom" -193 -15 mark 0
LayerCount: 2
Fore
SplineSet
-289.175 -200.003 m 1
 -285.141 -177.812 l 1
 -239 -188 -195 -161.724 -195 -125 c 0
 -195 -109.445 -206 -85 -236.636 -95.1289 c 1
 -241.123 -72.4629 l 1
 -238.075 -70.4492 -234.859 -68.6517 -231.521 -67.0766 c 0
 -200.37 -47.1057 -206.753 -43.6231 -186.624 5.43262 c 1
 -151.624 13.4326 l 1
 -151.624 13.4326 -168.925 -41.8597 -175.072 -51.9287 c 1
 -151.745 -56.868 -132.572 -75.8807 -132.572 -111.429 c 0
 -132.572 -180.25 -220.06 -229.425 -289.175 -200.003 c 1
EndSplineSet
EndChar

StartChar: cedillafloating
Encoding: 58084 58084 269
GlifName: cedillafloating
Width: 0
VWidth: 1159
Flags: W
VStem: -195 63.126<-165.104 -94.3473>
AnchorPoint: "Bottom" -193 -15 mark 0
LayerCount: 2
Fore
SplineSet
-289.175 -200.003 m 1
 -285.141 -177.812 l 1
 -239 -188 -195 -161.724 -195 -125 c 3
 -195 -109.445 -206 -85 -236.636 -95.1289 c 1
 -241.123 -72.4629 l 1
 -199.113 -38.5203 -131.874 -44.0724 -131.874 -109.349 c 3
 -131.874 -179.786 -219.751 -230.116 -289.175 -200.003 c 1
EndSplineSet
Validated: 33
EndChar

StartChar: Uni0327
Encoding: 58030 58030 281
GlifName: U_ni0327
Width: 0
VWidth: 1159
Flags: W
VStem: -194.928 70.897<-182.621 -103.12>
AnchorPoint: "Bottom" -191 -15 mark 0
LayerCount: 2
Fore
SplineSet
-302.112 -226.844 m 1
 -297.393 -200.881 l 1
 -243.408 -212.801 -194.928 -182.057 -194.928 -139.091 c 0
 -194.928 -120.892 -206.823 -92.29 -240.667 -104.142 c 1
 -245.892 -77.6221 l 1
 -241.051 -73.5835 -235.91 -70.2296 -230.581 -67.5294 c 0
 -201.19 -48.4085 -207.089 -43.3329 -187.571 4.44336 c 1
 -142.571 12.4434 l 1
 -142.571 12.4434 -152.525 -33.2849 -173.391 -61.6674 c 1
 -145.899 -69.2159 -124.031 -91.6921 -124.031 -124.709 c 0
 -124.031 -204.066 -223.518 -260.771 -302.112 -226.844 c 1
EndSplineSet
Validated: 33
EndChar

StartChar: Cedillafloating
Encoding: 58085 58085 282
GlifName: C_edillafloating
Width: 0
VWidth: 1159
Flags: W
VStem: -194.928 70.8965<-182.621 -103.74>
AnchorPoint: "Bottom" -193 -15 mark 0
LayerCount: 2
Fore
SplineSet
-302.112 -226.844 m 1
 -297.393 -200.881 l 1
 -243.408 -212.801 -194.928 -182.057 -194.928 -139.091 c 3
 -194.928 -120.892 -206.798 -92.29 -240.642 -104.142 c 1
 -245.892 -77.6221 l 1
 -199.032 -34.292 -124.031 -58.5156 -124.031 -124.709 c 3
 -124.031 -204.066 -223.518 -260.771 -302.112 -226.844 c 1
EndSplineSet
Validated: 33
EndChar

StartChar: Uni030F
Encoding: 58034 58034 295
GlifName: U_ni030F_
Width: 300
VWidth: 1159
Flags: W
HStem: 727.907 184.093
VStem: -108.738 262.238
AnchorPoint: "Top" 87 699 mark 0
LayerCount: 2
Fore
SplineSet
153.5 754.3 m 9
 126.5 734.3 l 17
 82.5 814.3 66.5 838.3 24.5 882.3 c 1
 45.5596 895.56 79 912 79 912 c 17
 112 861 132.5 808.3 153.5 754.3 c 9
52.0479 754.928 m 9
 32.0752 727.907 l 17
 -33.3916 791.548 -55.71 809.821 -108.738 839.619 c 1
 -92.4766 858.457 -65.3037 883.955 -65.3037 883.955 c 17
 -18.835 844.832 16.1777 800.429 52.0479 754.928 c 9
EndSplineSet
Validated: 1
EndChar

StartChar: uni01EA
Encoding: 490 490 308
GlifName: uni01E_A_
Width: 845
VWidth: 0
UnlinkRmOvrlpSave: 1
Flags: HW
HStem: -346.889 73.7197<406.804 473.852> -7 50<342.523 545.448> 657 49<304.396 495.712>
VStem: 43 93<267.4 455.825> 315.766 71.875<-253.641 -127.154> 701 101<222.803 442.21>
AnchorPoint: "Middle" 417.697 364.853 basechar 0
AnchorPoint: "Top" 420 699 basechar 0
LayerCount: 2
Fore
SplineSet
499.177734375 3.734375 m 1
 426.834960938 -46.17578125 387.640625 -131.358398438 387.640625 -195.689453125 c 3
 387.640625 -237.126953125 415.827148438 -273.168945312 446.834960938 -273.168945312 c 3
 467.810546875 -273.168945312 492.994140625 -264.435546875 518.834960938 -245.168945312 c 9
 518.834960938 -245.168945312 529.944335938 -255.497070312 532.633789062 -263.569335938 c 1
 505.579101562 -311.305664062 453.14453125 -346.888671875 411.564453125 -346.888671875 c 3
 362.384765625 -346.888671875 315.765625 -298.078125 315.765625 -236.513671875 c 3
 315.765625 -152.803710938 349.834960938 -47.5556640625 492.478515625 36.453125 c 1
 499.177734375 3.734375 l 1
EndSplineSet
Refer: 40 79 N 1 0 0 1 0 0 3
Position2: "cpsp-1" dx=0 dy=0 dh=50 dv=100
EndChar

StartChar: uni01EB
Encoding: 491 491 309
GlifName: uni01E_B_
Width: 505
VWidth: 0
UnlinkRmOvrlpSave: 1
Flags: W
HStem: -326 60.1279<272.366 350.024> -11 39<199.926 327.747> 374 45<168.903 305.133>
VStem: 32 76<130.211 291.037> 187.912 69.209<-252.6 -139.048> 395 78<107.641 276.826>
AnchorPoint: "Top" 251 465 basechar 0
AnchorPoint: "Middle" 255 206 basechar 0
LayerCount: 2
Fore
SplineSet
360.98046875 13.54296875 m 1
 270.727539062 -74.0302734375 257.12109375 -115.682617188 257.12109375 -196 c 3
 257.12109375 -239.865234375 282.45703125 -265.872070312 314.515625 -265.872070312 c 3
 334.268554688 -265.872070312 357.986328125 -255.18359375 382.322265625 -231.599609375 c 9
 382.322265625 -231.599609375 393.431640625 -241.926757812 396.12109375 -250 c 1
 369.1171875 -302.788085938 323.62109375 -326 282.12109375 -326 c 3
 232.149414062 -326 187.912109375 -288.154296875 187.912109375 -224.834960938 c 3
 187.912109375 -172.674804688 223.05859375 -76.5009765625 320.63671875 8 c 9
 360.98046875 13.54296875 l 1
EndSplineSet
Refer: 14 111 N 1 0 0 1 0 0 3
Substitution2: "case-1" uni01EA
EndChar

StartChar: thorn
Encoding: 254 254 317
GlifName: thorn
Width: 515
VWidth: 1159
Flags: W
HStem: -348 32<8.34375 55.6963> -342 34<151.753 229> -10 46<184.803 329.513> 369 43<198.188 323.819> 654 29<16 45.5305>
VStem: 67 82<-302.037 -18.4171> 80 65<-197.411 7 69.4004 345.78 368 599.495> 406 69<130.435 275.055>
LayerCount: 2
Fore
SplineSet
145 332 m 9x3b
 144 241 143 189 143 98 c 3
 143 92 147 85 154 79 c 0
 185 52 227 36 268 36 c 3
 345 36 406 96 406 180 c 3
 406 270 352 369 251 369 c 3
 207 369 155 342 145 332 c 9x3b
76 31 m 24
 79.1289 217.79 80 367 80 510 c 3
 80 570 80 607 76 627 c 0
 71 654 64 656 46 656 c 3
 36 656 25 654 16 654 c 1
 11 683 l 1
 48 690 104 718 154 759 c 1
 175 743 l 1
 165 717 157 687 156 667 c 0
 151 599 145 484 145 368 c 1xbb
 178 382 234 412 294 412 c 3
 399 412 475 315 475 223 c 3
 475 94 363.004 -10 225 -10 c 3
 198 -10 170 -2 144 7 c 1
 144 -75 144 -247 149 -284 c 0
 151 -299 170 -303 181 -304 c 0
 197 -305 216 -307 230 -308 c 1
 229 -342 l 1x7d
 190 -341 159 -339 117 -339 c 3
 87 -339 39 -344 9 -348 c 1
 6 -316 l 1
 17 -315 25 -313 36 -311 c 0
 59 -305 65 -294 67 -266 c 0xbd
 72 -214 74.0589 -84.8672 76 31 c 24
EndSplineSet
Validated: 1
Substitution2: "pcap-1" thorn.pcap
Substitution2: "case-1" Thorn
Substitution2: "smcp-1" thorn.smcp
EndChar

StartChar: Thorn
Encoding: 222 222 318
GlifName: T_horn
Width: 594
VWidth: 1159
Flags: W
HStem: -9 35<33 79.7574> 178 45<189.142 391.092> 519 42<188.8 373.894> 661 31<15.871 81.5947>
VStem: 103 86.1416<54.7783 182.945 226.958 514.181 554.895 640.551> 465 87<299.251 431.707>
LayerCount: 2
Fore
SplineSet
300 652.244140625 m 1
 269.541015625 652.76953125 239.069335938 648.46484375 211 641 c 0
 193.498046875 636.344726562 190 622 189 604 c 0
 188.240234375 587.23828125 187.66015625 570.91015625 187.219726562 554.89453125 c 1
 223.961914062 557.525390625 259.918945312 561 309 561 c 3
 442 561 552 478 552 375 c 3
 552 258.262695312 417.193359375 178 292 178 c 3
 251.719726562 178 228.8125 181.861328125 189.141601562 182.9453125 c 1
 190.319335938 145.3203125 192.446289062 106.4140625 198 75 c 0
 201.80078125 58.8486328125 209.211914062 38.1826171875 306 36.1611328125 c 1
 302 -10.6103515625 l 1
 253.839897611 0.765337346976 217.431629665 6.17477902914 177.51514646 6.17477902914 c 3
 138.247715333 6.17477902914 95.5852303172 0.939824883774 35 -9 c 1
 25 26 l 1
 78 36 103 49 103 77 c 1
 104.6 108.20234375 105.4 187.70734375 105.4 277.3266875 c 3
 105.4 411.755703125 103.6 568.941992187 100 620 c 0
 99 647 85 647 12 661 c 1
 17 692 l 1
 64.3137479468 686.877828443 116.634803726 684.064503692 169.426581172 684.064503692 c 3
 212.805530712 684.064503692 256.502306442 685.964030206 298 690.04296875 c 1
 300 652.244140625 l 1
189.073242188 226.958007812 m 1
 228.5625 225.396484375 249.3671875 223 290 223 c 3
 436 223 465 311 465 364 c 3
 465 424 404 519 288 519 c 3
 266.518554688 519 216.749023438 516.599609375 187.26171875 510.466796875 c 1
 185.9765625 417.948242188 187.340820312 313.534179688 189.073242188 226.958007812 c 1
EndSplineSet
Validated: 33
Position2: "cpsp-1" dx=0 dy=0 dh=50 dv=100
Substitution2: "c2pc-1" thorn.pcap
Substitution2: "c2sc-1" thorn.smcp
EndChar

StartChar: AE
Encoding: 198 198 319
GlifName: A_E_
Width: 1067
VWidth: 1159
Flags: W
HStem: -9 35<449 500.854> -5 39<22.5469 80.8864> 3.06988 37.3024<636.857 887.73> 247 42<296.875 529.631> 334 36<608 868.393> 648.077 36.4959<626.1 856.2> 661 31<394.871 460.439>
VStem: 525 93<373.564 639.016> 529.631 78.3691<90.5 243.369 285.991 334 370 605.156> 892 36<248.75 306.348 394.846 442.094> 933 30<539 620.59> 993 28<152.034 171.75>
AnchorPoint: "Top" 580.585 699 basechar 0
AnchorPoint: "Bottom" 569.957 -15 basechar 0
LayerCount: 2
Fore
SplineSet
396 692 m 1x5af0
 459.272012394 686.532048312 556.561190777 684.572593564 653.192821453 684.572593564 c 0
 803.974281922 684.572593564 953.154767421 689.343407866 969 693 c 1
 980.145145837 683.247997393 984.133414459 677.741599913 984.133414459 669.087387512 c 0
 984.133414459 652.893580795 970.168856119 625.677987617 963 539 c 1
 933 536 l 1
 922 572 941 619 905 630 c 0
 863.488636507 641.860389569 801.137444756 648.076658986 740.260246011 648.076658986 c 3
 708.746754637 648.076658986 677.628246937 646.410894684 650 643 c 0
 632 641 619 627 618 609 c 0x1d70
 614 526.970338983 609 445.953389831 608 370 c 1
 672 372 824 372 838 373 c 0
 875 378 880 404 896 448 c 1
 930 441 l 1
 921.800908316 410.132831309 918.486685813 379.498275435 918.486685813 348.871954284 c 0
 918.486685813 315.997648821 922.305294619 283.132831309 928 250 c 1
 892 241 l 1
 872 312 879 325 838 329 c 0
 794 334 701 333 608 334 c 1
 607 236.227091633 611 147.525896414 623 81 c 0
 627 64 636 50 653 49 c 0
 698.831179232 44.5647245905 737.376555516 40.3723092792 773.782518979 40.3723092792 c 0
 811.251037011 40.3723092792 846.453436792 44.8130178498 885 58 c 0
 944 78 954 101 993 177 c 1
 1021 170 l 1
 1005 104 994 62 982 0 c 1
 877.083081066 1.45355771389 767.073393242 3.06987648348 667.598205869 3.06987648348 c 0x3cf0
 584.624915197 3.06987648348 509.225266505 0.552582785989 451 -9 c 1
 441 26 l 1x98f0
 494 36 527 49 527 77 c 1
 528.380926187 103.914026086 529.284877868 166.790357996 529.630859375 241.087890625 c 1
 467.278003094 249.660049211 355.177385742 253.494120142 272.916992188 247 c 1
 235.500997091 184.6 209.014082931 147.759493671 176.979 87 c 0
 158.157 51 172.988 29 244.937 34 c 1
 239.599 -10 l 1
 207.9511992 -3.42116167511 156.803289353 0.296115413079 108.669988834 0.296115413079 c 0
 76.3230769561 0.296115413079 45.3376267038 -1.38268590218 22.5469 -5 c 1
 22.5469 -5 18.2832 20 19.9365 34 c 1
 71.5889 48 102.294 57 117.652 80 c 0
 245.893953454 285.468704307 363.399910804 480.400810666 462.046875 648.923828125 c 1
 441.407911312 652.540879605 417.029954203 656.00792895 391 661 c 1
 396 692 l 1x5af0
499.977539062 640.265625 m 1
 473.026905511 593.239042544 345.505326951 370.882231497 296.875 289 c 1
 347.043311173 284.20133642 475.957582399 285.850220822 529.76953125 285.991210938 c 1
 529.972511301 417.75573903 528.516654383 568.318110715 525 618 c 0
 524.612992871 628.452823952 515.381822824 635.158711011 499.977539062 640.265625 c 1
EndSplineSet
Validated: 33
Position2: "cpsp-1" dx=0 dy=0 dh=50 dv=100
Substitution2: "c2pc-1" ae.pcap
Substitution2: "c2sc-1" ae.smcp
EndChar

StartChar: ae
Encoding: 230 230 322
GlifName: ae
Width: 578
VWidth: 1159
Flags: W
HStem: -9 43<55.5195 159.444> -8 50<352.222 471.185> 370 52<125.933 201.869 343.725 424.068>
VStem: 20.5195 62<43.6209 136.135> 33.5195 77<309.417 362.65> 232.563 66.1328<101.524 187.689>
AnchorPoint: "Top" 283.52 465 basechar 0
AnchorPoint: "Bottom" 280.52 -15 basechar 0
LayerCount: 2
Fore
SplineSet
377.0390625 370 m 3x24
 326.278719064 370 302.810560282 297.663 298.51953125 235 c 1
 356.476257858 252.570999965 401.330482443 265.925481235 456 281.466990756 c 4
 457.789025928 281.97557698 459.588562904 282.486505259 461.399414062 283 c 1
 452.000374893 327 416.520227033 370 377.0390625 370 c 3x24
298.696289062 208 m 1
 292.974298242 114.19 340.927221317 42 415.579101562 42 c 3
 459.760156319 42 496.420201755 64 522.740234375 87 c 1
 542.48046875 60 l 1
 503.000416941 27 446.600342928 -8 381.739257812 -8 c 3x6c
 322.890360859 -8 279.251437273 23.5508112068 256.813476562 66.7822265625 c 1
 205.228345517 35.8105157066 137.177172641 -9 81.51953125 -9 c 3
 29.51953125 -9 20.51953125 27 20.51953125 71 c 3xb4
 20.51953125 94 21.51953125 118 27.51953125 130 c 0
 33.51953125 144 37.51953125 146 47.51953125 151 c 0
 109.414158207 181.947854681 161.344264726 193.958798282 234.149414062 215.887695312 c 1
 236.215325925 236.80876966 240.159157669 255.819837221 245.502929688 273.045898438 c 1
 247.775975008 296.66094289 231.973659935 317.780982646 225.51953125 327 c 0
 215.51953125 342 174.51953125 370 146.51953125 370 c 3
 116.51953125 370 110.51953125 360 110.51953125 342 c 3
 110.51953125 333 116.51953125 320 117.51953125 315 c 1
 42.51953125 285 l 1
 38.51953125 295 33.51953125 315 33.51953125 325 c 3xac
 33.51953125 339 40.51953125 354 60.51953125 366 c 1
 115.519831974 403 183.519585598 422 198.51953125 422 c 3
 217.891557867 422 278.109640607 380.30223605 295.180664062 361.27734375 c 1
 331.300874921 400.960098949 373.675122288 417 390.19921875 417 c 3
 444.720283949 417 502.060352519 372 520.859375 323 c 0
 525.561314492 311 539.66013306 303 550 302 c 1
 550 278 l 1
 470.100091905 257 380.696194742 232 298.696289062 208 c 1
232.563476562 187.689453125 m 1
 195.776106783 176.736291403 155.916706123 165.698128427 138.51953125 157 c 0
 107.519808033 142 82.51953125 125.461 82.51953125 92 c 3
 82.51953125 62.1348 100.519851247 34 132.51953125 34 c 3xb4
 156.685686189 34 214.544057141 66.8281059285 248.280273438 85.912109375 c 1
 237.057418482 115.432138083 231.974484175 149.746287693 232.563476562 187.689453125 c 1
EndSplineSet
Validated: 33
Substitution2: "pcap-1" ae.pcap
Substitution2: "case-1" AE
Substitution2: "smcp-1" ae.smcp
EndChar

StartChar: germandbls
Encoding: 223 223 327
GlifName: germandbls
Width: 579
VWidth: 1159
Flags: W
HStem: -9 40<37 88.8477 173.148 208.525 365.019 460.981> 356 30<40 95.2842> 705 51<244.321 344.378>
VStem: 100 65<36.3341 356 396.595 588.58> 276 67<305.481 354.885> 301 22<88.2815 107.227> 396.559 58.286<487.211 649.856> 477 62<53.3627 166.162>
LayerCount: 2
Fore
SplineSet
312 756 m 0xfb
 411.877 756 454.845 679.623 454.845 588.779 c 0
 454.845 446.016 343 385.103 343 345 c 0xfb
 343 322 360.358 300 417 276 c 1
 495.85 246.667 539 186.985 539 128 c 0
 539 33.1543 458.812 -9 408 -9 c 0
 365.699560976 -9 332.401317073 2 300 16 c 1
 304 30 306 44 306 59 c 0
 306 68.3555 304.571 95.6445 301 105 c 1
 323 112 l 1xf7
 342.104493506 56.8506 380.314818182 31 426 31 c 0
 451.5 31 477 56.9092 477 106 c 0
 477 163.711 429.343 194.988 396 212 c 0
 347 237 276 253 276 324 c 0
 276 346 396.559 432.484 396.559 571.703 c 0
 396.559 648.474 347.395 705 278 705 c 0
 190.602 705 180.067 591.244 171 454 c 1
 167.34 417.394 165 295.325 165 249 c 0
 165 182.096 166.167 119.272 172 54 c 0
 172.739 39 177.174 34 189 33 c 0
 196.534 32 203.466 32 211 31 c 1
 208 -6 l 1
 182.625 -1 146.375 1 121 1 c 0
 97.2266 1 60.7734 -2 37 -6 c 1
 36 30 l 1
 47 31 61 31 72 33 c 1
 89.5947 40 91.8652 53 93 81 c 1
 97.375 120.633 100 172.459 100 222 c 0
 99.4055 259.124 99.1645 308.001 99.0667 356 c 1
 40 356 l 1
 40 386 l 1
 59.9402 389.935 79.0951 397.74 99.0097 401.801 c 1
 99 418.369 99 434.298 99 449 c 0
 99 579.533 140.062 647.199 205 704 c 0
 235.911 731 265.237 756 312 756 c 0xfb
EndSplineSet
Validated: 1
MultipleSubs2: "case-2" S S
Substitution2: "pcap-1" uni1E9E.pcap
Substitution2: "case-1" uni1E9E
Substitution2: "smcp-1" uni1E9E.smcp
EndChar

StartChar: greater
Encoding: 62 62 333
GlifName: greater
Width: 463
VWidth: 0
Flags: W
HStem: -7 21G<70.4615 113.429> 392 20G<91.5605 135.282>
LayerCount: 2
Fore
SplineSet
72.5 365.6 m 25
 106 412 l 25
 412 203 l 25
 82 -7 l 25
 67 19 l 25
 332.5 187.6 l 25
 72.5 365.6 l 25
EndSplineSet
Validated: 1
Position2: "'case' vertical ajustments for all-caps-1" dx=0 dy=90 dh=0 dv=0
EndChar

StartChar: braceleft
Encoding: 123 123 336
GlifName: braceleft
Width: 266
VWidth: 1515
Flags: W
HStem: -229.7 31<189.018 239.5> 685.3 31<189.018 239.5>
VStem: 91.5 59.5<-156.252 38.4622 448.137 642.851> 114 66<-8.67273 162.063 324.537 495.272>
LayerCount: 2
Fore
SplineSet
239.5 716.3 m 1xe0
 239.5 716.3 239.5 697.39 239.5 685.3 c 1
 184.336 684.28 151 654.121 151 551 c 3xe0
 151 480.769 180 464.467 180 390 c 3
 180 334.827 122.112 266.261 79.5 243.3 c 1
 122.112 220.339 180 151.773 180 96.5996 c 3xd0
 180 22.1318 151 5.83048 151 -64.4004 c 3
 151 -167.522 184.336 -197.68 239.5 -198.7 c 1
 239.5 -229.7 l 1
 164.146 -233.096 91.5 -190.992 91.5 -39.7002 c 3xe0
 91.5 20.2272 114 52.5951 114 99.5996 c 3
 114 146.535 81.5417 208.612 11.5 230.3 c 1
 11.5 256.3 l 1
 81.5417 277.987 114 340.065 114 387 c 3xd0
 114 434.004 91.5 466.372 91.5 526.3 c 3
 91.5 677.592 164.146 719.696 239.5 716.3 c 1xe0
EndSplineSet
Validated: 33
Position2: "cpsp-1" dx=0 dy=0 dh=50 dv=100
Position2: "'case' vertical ajustments for all-caps-1" dx=0 dy=90 dh=0 dv=0
EndChar

StartChar: asciitilde
Encoding: 126 126 339
GlifName: asciitilde
Width: 394
VWidth: 0
Flags: W
HStem: 190 64<164.87 319.051> 219 64<79.4558 233.909>
LayerCount: 2
Fore
SplineSet
18 193 m 1x40
 48 239 103 283 111 283 c 3x40
 154 283 245 254 287 254 c 3
 297 254 327 276 342 300 c 1
 376 287 l 1
 351 243 304 190 291 190 c 3x80
 250 190 145 219 106 219 c 3
 93 219 64 195 50 180 c 1
 18 193 l 1x40
EndSplineSet
Validated: 1
Position2: "cpsp-1" dx=0 dy=0 dh=50 dv=100
Position2: "'case' vertical ajustments for all-caps-1" dx=0 dy=90 dh=0 dv=0
EndChar

StartChar: kgreenlandic
Encoding: 312 312 345
GlifName: kgreenlandic
Width: 520
VWidth: 1159
Flags: W
HStem: -5 33<33.6364 85.0934 314.455 358.094 457 501.545> 344 29<39.7931 76.7086> 374 27<269 299.949 413.248 459.333> 395 20G<145.5 187>
VStem: 105 64<42.314 204 227 346.994>
LayerCount: 2
Fore
SplineSet
179 211 m 1xe8
 169 204 l 1
 169 140.25 171.723635175 78.5727361869 175 54 c 0
 177 39 185.619315018 37.1522739927 196 33 c 0
 206 29 216 28 230 27 c 1
 225 -7 l 1
 191 -1 172 4 130 4 c 3
 100 4 64 -3 34 -5 c 1
 32 28 l 1
 43 29 54.2438024311 30.030722479 64 33 c 0
 87 40 93.3132247115 48.0575369992 96 76 c 0
 101 128 105 170 105 235 c 3
 105 253.368013699 103.27297056 281.632471039 101 318 c 0
 100 334 94 348 77 348 c 3
 71 348 51 345 41 344 c 1
 36 373 l 1
 88 381.884615385 124 387.538461538 167 415 c 1xd8
 187 399 l 1
 181 385 174.184346429 357.982026431 173 347 c 0
 171 328.454705882 168 273.908529412 167 227 c 1
 201.5858 255.29682906 250.733796152 297.620653704 285 330 c 0
 291.596571429 336.233333333 301 348.518518519 301 355 c 3
 301 373 277 372 267 374 c 1
 269 401 l 1
 295 399 330 399 357 399 c 3
 388.166666667 399 428.777777778 399 459 403 c 1
 461 371 l 1
 400.820895522 364.000222222 364.689666047 341.369176033 333 319 c 2
 231 247 l 1
 297.824402928 186.179636497 367.532605558 122.858938129 446 52 c 1
 462 37 490 29 504 28 c 1
 501 -6 l 1
 467 0 449 4 407 4 c 3
 377 4 345 -3 315 -5 c 1
 312 28 l 1
 348 33 348 37 359 38 c 1
 296.777686305 99.8038948798 205.773756239 186.901875399 179 211 c 1xe8
EndSplineSet
Validated: 1
MultipleSubs2: "case-2" K quoteleft
EndChar

StartChar: OE
Encoding: 338 338 346
GlifName: O_E_
Width: 1081
VWidth: 1159
Flags: W
HStem: -7 49<336.528 518.419> 3.06988 37.3024<639.125 901.73> 334 36<614 882.393> 650 44<298.396 500.529>
VStem: 37 93<266.365 448.041> 531 93<373.564 620.777> 534.995 79.0053<90.5 334 370 605.156> 906 36<248.75 306.348 394.846 442.094> 947 30<539 620.59> 1007 28<152.034 171.75>
LayerCount: 2
Fore
SplineSet
385 650 m 3xbdc0
 244 650 130 535.515933333 130 377 c 3
 130 202.722537538 273 42 443 42 c 3
 495.7 42 533 62.631 533 92 c 1
 534.422110588 116.770777747 534.994687396 175.604459673 534.994687396 244.572312164 c 0xbbc0
 534.994687396 369.591771373 533.113224845 527.911675418 531 577 c 0
 528.17 641.262 448.642 650 385 650 c 3xbdc0
424 -7 m 3
 210 -7 37 145.659140762 37 336 c 3
 37 527.127628169 212 694 422 694 c 3
 507.490017004 694 461.789007914 684.96875 696.956054688 684.96875 c 3
 838.863027557 684.96875 966.475003159 689.186881304 983 693 c 1
 994.145145837 683.247997393 998.133414459 677.741599913 998.133414459 669.087387512 c 0
 998.133414459 652.893580795 984.168856119 625.677987617 977 539 c 1
 947 536 l 1
 936 572 955 619 919 630 c 0
 856 648 737 653 656 643 c 0
 638 641 625 627 624 609 c 0xbdc0
 620 526.970338983 615 445.953389831 614 370 c 1
 678 372 838 372 852 373 c 0
 889 378 894 404 910 448 c 1
 944 441 l 1
 935.800908316 410.132831309 932.486685813 379.498275435 932.486685813 348.871954284 c 0
 932.486685813 315.997648821 936.305294619 283.132831309 942 250 c 1
 906 241 l 1
 886 312 893 325 852 329 c 0
 808 334 707 333 614 334 c 1
 613 236.227091633 617 147.525896414 629 81 c 0
 633 64 642 50 659 49 c 0
 704.831179232 44.5647245905 745.319436302 40.3723092792 783.696225476 40.3723092792 c 0
 823.193090286 40.3723092792 860.453436792 44.8130178498 899 58 c 0
 958 78 968 101 1007 177 c 1
 1035 170 l 1
 1019 104 1008 62 996 0 c 1
 886.301 -0.545565 771.508 3.06988 667.928 3.06988 c 3x7bc0
 487.932 3.06988 491.022 -7.00001 424 -7 c 3
EndSplineSet
Validated: 33
Position2: "cpsp-1" dx=0 dy=0 dh=50 dv=100
Substitution2: "c2pc-1" oe.pcap
Substitution2: "c2sc-1" oe.smcp
EndChar

StartChar: uni2605
Encoding: 9733 9733 347
GlifName: uni2605
Width: 821
VWidth: 0
Flags: W
LayerCount: 2
Fore
SplineSet
796.5 438.6 m 1
 558 264.9 l 1
 648.9 -15 l 1
 410.4 158.7 l 1
 171.9 -15 l 1
 262.8 265.8 l 1
 24.2998 438.6 l 1
 318.6 437.7 l 1
 410.4 718.5 l 1
 501.3 438.6 l 1
 796.5 438.6 l 1
EndSplineSet
Validated: 1
EndChar

StartChar: uni2606
Encoding: 9734 9734 348
GlifName: uni2606
Width: 821
VWidth: 30
Flags: W
LayerCount: 2
Fore
SplineSet
687.677 404.8 m 1
 466.221 390.918 l 1
 410.41 606.049 l 1
 354.579 390.141 l 1
 133.292 404.738 l 1
 320.536 284.324 l 1
 239.062 78.2873 l 1
 410.4 219.894 l 1
 581.711 78.307 l 1
 500.264 283.547 l 1
 687.677 404.8 l 1
796.5 438.6 m 1
 558 264.9 l 1
 648.9 -15 l 1
 410.4 158.7 l 1
 171.9 -15 l 1
 262.8 265.8 l 1
 24.2998 438.6 l 1
 318.6 437.7 l 1
 410.4 718.5 l 1
 501.3 438.6 l 1
 796.5 438.6 l 1
EndSplineSet
Validated: 1
EndChar

StartChar: uni261C
Encoding: 9756 9756 349
GlifName: uni261C_
Width: 2241
Flags: W
HStem: -39.8809 34.5928<702.366 803.644>
VStem: 65.4062 47.9922<389.495 407.811>
LayerCount: 2
Fore
SplineSet
65.4062 488.98 m 1
 133.471 493.169 171.866 495.579 238.634 514.306 c 1
 246.596 504.546 534.656 534.515 542.911 561.332 c 1
 564.898 551.482 577.512 547.037 605.929 570.229 c 1
 773.769 556.794 986.458 616.839 1106 648 c 1
 1329.25 569.701 1572.25 468.729 1696.18 430.638 c 1
 1739.57 483.052 1793.53 507.924 1848.05 516.793 c 1
 2110.43 547.303 l 1
 2163.02 255.056 2175.68 -29.6611 2148.35 -306.85 c 1
 1892.24 -297.519 l 1
 1875.45 -261.822 1858.65 -226.126 1841.85 -190.43 c 1
 1814.48 -179.761 1789.09 -165.358 1754.94 -149.172 c 1
 1614.8 -241.059 1469.34 -206.779 1327.96 -171.926 c 1
 1302.89 -235.181 1261.64 -288.312 1185.82 -267.69 c 1
 1164.81 -330.418 1107.45 -355.95 1072.25 -326.185 c 0
 999.4 -264.557 891.756 -230.288 835.198 -172.483 c 1
 682.232 -206.512 560.41 -112.538 687.913 48.1104 c 1
 660.334 112.992 745.543 185.467 777.889 271.683 c 1
 695.375 282.243 590.004 307.018 566.297 298.763 c 0
 515.511 281.073 363.284 309.172 334.218 317.119 c 1
 176.398 304.119 59.9014 331.849 65.4062 488.98 c 1
227.493 480.275 m 1
 178.401 472.663 150.689 468.371 101.594 460.757 c 1
 93.8691 413.082 244.447 408.912 227.493 480.275 c 1
1084.38 592.183 m 0
 825.397 554.269 996.286 546.32 636.788 522.399 c 0
 585.692 519 590.137 488.802 569.033 486.987 c 0
 550.55 485.4 544.591 511.314 526.415 507.695 c 0
 434.1 489.321 365.902 488.599 263.3 476.39 c 1
 250.997 394.928 192.292 410.334 113.398 407.811 c 1
 114.412 376.567 264.124 347.652 350.099 377.665 c 1
 407.623 368.682 461.089 357.379 523.575 380.384 c 1
 604.456 372.626 651.254 355.211 727.339 401.371 c 1
 807.605 356.047 974.055 358.16 1064.13 421.6 c 1
 1070.94 421.779 1071.33 413.38 1077.52 410.565 c 1
 1051.33 362.256 1084.46 312.087 1114.36 315.387 c 0
 1130.39 317.154 1149.22 354.088 1163.9 376.21 c 0
 1172.19 388.706 1208.8 379.251 1202.08 365.563 c 0
 1164.56 289.234 1183.03 221.194 1302.92 308.083 c 0
 1330.21 327.857 1391.28 329.565 1389.06 296.334 c 0
 1387.54 273.576 1345.13 302.372 1303.25 264.596 c 0
 1210.07 180.539 1123.04 118.563 1008.84 107.013 c 1
 996.464 98.4824 989.483 93.6709 977.105 85.1396 c 1
 876.257 142.62 705.042 54.8047 694.435 -5.28809 c 1
 757.921 -1.57617 796.29 11.3975 834.737 -28.0469 c 1
 861.688 11.0107 922.306 3.84277 985.483 11.0127 c 1
 998.435 5.33398 1005.74 2.13281 1018.69 -3.54395 c 1
 1031.07 4.98828 1038.05 9.79883 1050.42 18.3291 c 1
 1063.43 11.9795 1070.77 8.39844 1083.78 2.04883 c 1
 1093.29 11.6924 1098.66 17.1289 1108.17 26.7725 c 1
 1169 0.666992 1265.6 3.79102 1298.85 55.3369 c 0
 1307.77 69.1582 1331.21 74.7871 1353.92 73.9941 c 0
 1497.96 68.9609 1697.02 60.1641 1760.13 150.666 c 0
 1796.28 202.51 1766.13 361.801 1721.3 387.54 c 1
 1551.99 437.4 1391.01 515.096 1175.49 584.343 c 0
 1141.59 595.234 1119.66 597.348 1084.38 592.183 c 0
823.456 -100.385 m 1
 821.674 -60.501 792.91 -39.6387 757.787 -39.8809 c 0
 715.507 -40.1699 663.499 -75.8311 669.326 -101.442 c 0
 672.815 -116.764 791.04 -134.5 823.456 -100.385 c 1
1825.2 474.796 m 1
 1793.57 452.477 1775.72 439.887 1744.09 417.571 c 1
 1790.28 409.132 l 1
 1834.35 392.028 1910.85 90.5078 1840.19 -91.3711 c 1
 1844.61 -94.3838 1847.1 -96.085 1851.52 -99.1006 c 1
 1989.62 -17.6104 1923.24 389.222 1825.2 474.796 c 1
EndSplineSet
Validated: 33
EndChar

StartChar: uni261E
Encoding: 9758 9758 350
GlifName: uni261E_
Width: 2241
Flags: HMW
LayerCount: 2
Back
SplineSet
121 545 m 1
 366 540 486 505 536 430 c 1
 766 505 986 595 1131 655 c 1
 1466 545 1971 515 2166 480 c 1
 2162 202 1711 370 1456 265 c 1
 1491 205 1553 136 1541 45 c 1
 1570.39026491 4.58838575318 1588.3083498 -37.8477308482 1588.3083498 -74.6228478222 c 3
 1588.3083498 -132.417416656 1547.05371094 -178.23046875 1439.52539062 -178.23046875 c 3
 1428.65820312 -178.23046875 1408.15763392 -175.828929586 1396 -175 c 1
 1226 -280 1165.72135955 -340 1121 -340 c 3
 1077.58341331 -340 1070 -296 1036 -270 c 1
 986 -280 931 -265 901 -175 c 1
 711 -225 571 -215 476 -155 c 1
 438 -156 421 -177 386 -190 c 1
 351 -345 206 -305 81 -305 c 1
 40.4374625557 25.4344412193 75.5856707551 296.914331149 121 545 c 1
EndSplineSet
Fore
SplineSet
2162.17 488.98 m 1
 2167.68 331.849 2051.18 304.119 1893.36 317.119 c 1
 1864.29 309.172 1712.07 281.073 1661.28 298.763 c 0
 1637.57 307.018 1532.2 282.243 1449.69 271.683 c 1
 1482.03 185.467 1567.24 112.992 1539.66 48.1104 c 1
 1667.17 -112.538 1545.34 -206.512 1392.38 -172.483 c 1
 1335.82 -230.288 1228.18 -264.557 1155.32 -326.185 c 0
 1120.13 -355.95 1062.77 -330.418 1041.76 -267.69 c 1
 965.937 -288.312 924.688 -235.181 899.613 -171.926 c 1
 758.235 -206.779 612.779 -241.059 472.641 -149.172 c 1
 438.485 -165.358 413.094 -179.761 385.725 -190.43 c 1
 368.927 -226.126 352.131 -261.822 335.333 -297.519 c 1
 79.2285 -306.85 l 1
 51.9014 -29.6611 64.5586 255.056 117.149 547.303 c 1
 379.524 516.793 l 1
 434.047 507.924 488.01 483.052 531.394 430.638 c 1
 655.332 468.729 898.328 569.701 1121.58 648 c 1
 1241.12 616.839 1453.81 556.794 1621.65 570.229 c 1
 1650.07 547.037 1662.68 551.482 1684.67 561.332 c 1
 1692.92 534.515 1980.98 504.546 1988.94 514.306 c 1
 2055.71 495.579 2094.11 493.169 2162.17 488.98 c 1
2000.08 480.275 m 1
 1983.13 408.912 2133.71 413.082 2125.98 460.757 c 1
 2076.89 468.371 2049.18 472.663 2000.08 480.275 c 1
1143.19 592.183 m 0
 1107.92 597.348 1085.99 595.234 1052.09 584.343 c 0
 836.569 515.096 675.586 437.4 506.281 387.54 c 1
 461.443 361.801 431.295 202.51 467.448 150.666 c 0
 530.558 60.1641 729.622 68.9609 873.661 73.9941 c 0
 896.366 74.7871 919.808 69.1582 928.726 55.3369 c 0
 961.981 3.79102 1058.58 0.666992 1119.41 26.7725 c 1
 1128.92 17.1289 1134.29 11.6924 1143.8 2.04883 c 1
 1156.8 8.39844 1164.14 11.9795 1177.15 18.3291 c 1
 1189.53 9.79883 1196.51 4.98828 1208.89 -3.54395 c 1
 1221.83 2.13281 1229.14 5.33398 1242.09 11.0127 c 1
 1305.27 3.84277 1365.89 11.0107 1392.84 -28.0469 c 1
 1431.29 11.3975 1469.66 -1.57617 1533.14 -5.28809 c 1
 1522.54 54.8047 1351.32 142.62 1250.47 85.1396 c 1
 1238.09 93.6709 1231.11 98.4824 1218.74 107.013 c 1
 1104.54 118.563 1017.5 180.539 924.325 264.596 c 0
 882.445 302.372 840.035 273.576 838.518 296.334 c 0
 836.301 329.565 897.366 327.857 924.653 308.083 c 0
 1044.55 221.194 1063.02 289.234 1025.5 365.563 c 0
 1018.77 379.251 1055.38 388.706 1063.68 376.21 c 0
 1078.36 354.088 1097.19 317.154 1113.21 315.387 c 0
 1143.12 312.087 1176.25 362.256 1150.06 410.565 c 1
 1156.25 413.38 1156.63 421.779 1163.45 421.6 c 1
 1253.52 358.16 1419.97 356.047 1500.24 401.371 c 1
 1576.32 355.211 1623.12 372.626 1704 380.384 c 1
 1766.49 357.379 1819.95 368.682 1877.48 377.665 c 1
 1963.45 347.652 2113.17 376.567 2114.18 407.811 c 1
 2035.29 410.334 1976.58 394.928 1964.28 476.39 c 1
 1861.67 488.599 1793.48 489.321 1701.16 507.695 c 0
 1682.99 511.314 1677.03 485.4 1658.54 486.987 c 0
 1637.44 488.802 1641.88 519 1590.79 522.399 c 0
 1231.29 546.32 1402.18 554.269 1143.19 592.183 c 0
1404.12 -100.385 m 1
 1436.54 -134.5 1554.76 -116.764 1558.25 -101.442 c 0
 1564.08 -75.8311 1512.07 -40.1699 1469.79 -39.8809 c 0
 1434.67 -39.6387 1405.9 -60.501 1404.12 -100.385 c 1
402.373 474.796 m 1
 304.342 389.222 237.955 -17.6104 376.058 -99.1006 c 1
 380.473 -96.085 382.967 -94.3838 387.383 -91.3711 c 1
 316.725 90.5078 393.227 392.028 437.294 409.132 c 1
 483.483 417.571 l 1
 451.853 439.887 434.009 452.477 402.373 474.796 c 1
EndSplineSet
Validated: 33
EndChar

StartChar: uni211F
Encoding: 8479 8479 429
GlifName: uni211F_
Width: 831
UnlinkRmOvrlpSave: 1
Flags: HW
HStem: -10 44<264 272> 323 44<178 306.579>
VStem: 88 90<71.4111 283.488 429.868 640.189> 456 87<441.267 575.707>
LayerCount: 2
Fore
SplineSet
485 -72 m 5
 591 95.0902527076 741 461.097472924 737 479 c 5
 626 519 l 5
 617.75 542.192771084 663.209090147 573.033501641 692 596 c 5
 739.19 579.23 765.81 569.77 813 553 c 5
 773 475 572.146067416 -19.3583460949 537 -97 c 5
 485 -72 l 5
EndSplineSet
Refer: 43 82 N 1 0 0 1 0 0 2
EndChar

StartChar: uni2123
Encoding: 8483 8483 430
GlifName: uni2123
Width: 841
UnlinkRmOvrlpSave: 1
Flags: W
HStem: 658 36<188.341 269 596.689 669.375 765.391 828.825> 658 38<10.0789 73.9741>
VStem: 397 46<-27 41.9461>
LayerCount: 2
Fore
SplineSet
201 -72 m 1x20
 307 95.0902527076 457 461.097472924 453 479 c 1
 342 519 l 1
 333.75 542.192771084 379.209090147 573.033501641 408 596 c 1
 455.19 579.23 481.81 569.77 529 553 c 1
 489 475 288.146067416 -19.3583460949 253 -97 c 1
 201 -72 l 1x20
EndSplineSet
Refer: 54 86 N 1 0 0 1 0 0 2
EndChar

StartChar: estimated
Encoding: 8494 8494 431
GlifName: estimated
Width: 752
VWidth: 0
Flags: W
HStem: -9 50.917<266.135 484.333> 310.923 51.15<191.384 562.454> 632.006 50.917<264.706 485.147>
VStem: 30.1973 161.187<217.349 310.923 362.073 455.702> 562.454 159.576<362.073 456.3>
LayerCount: 2
Fore
SplineSet
632.777 191.846 m 1
 676.861 166.441 l 1
 673.98 161.581 l 2
 613.377 59.3301 501.767 -9 376 -9 c 0
 189.553 -9 30.1973 142.604 30.1973 338.341 c 0
 30.1973 525.945 184.438 682.615 375.52 682.923 c 2
 376.044 682.923 l 2
 564.48 682.923 722.035 529.016 722.03 336.942 c 0
 722.03 329.967 721.813 323.039 721.4 316.168 c 2
 721.084 310.923 l 1
 191.384 310.923 l 1
 191.384 107.399 l 1
 242.467 66.2236 307.069 41.917 376 41.917 c 0
 483.087 41.917 578.216 100.053 629.964 187.113 c 2
 632.777 191.846 l 1
191.384 566.668 m 1
 191.384 362.073 l 1
 562.454 362.073 l 1
 562.454 565.158 l 1
 511.302 606.997 446.18 632.006 376.044 632.006 c 2
 375.598 632.006 l 2
 305.803 631.894 241.805 607.323 191.384 566.668 c 1
EndSplineSet
Validated: 33
EndChar

StartChar: uni2023
Encoding: 8227 8227 436
GlifName: uni2023
Width: 614
Flags: W
HStem: 245.313 86.8271<277.825 527.585>
LayerCount: 2
Back
Fore
SplineSet
555 306.641 m 9
 555 276 l 17
 520 256 406.973 263.594 356 245.313 c 0
 137.841 205.319 171.251 96.8509 73.7197 8.78027 c 1
 52.1201 23.8203 l 17
 78.4402 121.58 102.61 383.548 37.0801 561.5 c 1
 69.96 569.021 l 17
 118.84 486.301 160.28 337.61 325.64 332.141 c 0
 415.653 328.91 517.4 321.212 555 306.641 c 9
EndSplineSet
Validated: 33
EndChar

StartChar: dagger
Encoding: 8224 8224 437
GlifName: dagger
Width: 442
Flags: W
HStem: -237 10G<208 216> 247 98 290 55 728 10G<216 238>
VStem: 165 134<639 645 621 646 644 645 621 662> 202 39<-219 -3> 202 207<61 289 186 289 266 315 266 324>
LayerCount: 2
Fore
SplineSet
275 370 m 1x90
 247 262 246 250 234 -18 c 9
 209 -18 l 17
 195 266 194.440429688 282.899414062 168 370 c 1
 196 441 201 460 209 523 c 1
 134 513 l 2
 79 503 83 491 57 491 c 3
 43.9615951896 491 17 518 17 535 c 3
 17 552 45.9580078125 580 58 580 c 3
 83 580 84 569 134 560 c 2
 209 550 l 1
 198 620 l 2
 191 658 177 681 177 702 c 3
 177 718 205 741 222 741 c 3
 239 741 267 718 267 704 c 3
 267 681 253 657 246 620 c 2
 235 550 l 1
 310 560 l 2
 365 570 360 581 386 581 c 3
 398.165039062 581 427 554 427 537 c 3
 427 520 398.038085938 492 385 492 c 3
 360 492 360 504 310 513 c 2
 234 523 l 1
 242 461 247 442 275 370 c 1x90
EndSplineSet
Validated: 1
EndChar

StartChar: daggerdbl
Encoding: 8225 8225 438
GlifName: daggerdbl
Width: 442
Flags: W
HStem: -6 21G<212.5 229.5> 154 89<27.3301 140.031 301.969 413.942> 491 89<28.326 133.984 310.016 414.906>
VStem: 176 90<3.37628 120.469 620.011 730.972>
LayerCount: 2
Fore
SplineSet
176 369 m 1
 198.536585366 440 202.56097561 460 209 523 c 1
 134 513 l 2
 79 503 83 491 57 491 c 3
 43.9619140625 491 17 518 17 535 c 3
 17 552 45.9580078125 580 58 580 c 3
 83 580 84 569 134 560 c 2
 209 550 l 1
 198 620 l 2
 191 658 177 681 177 702 c 3
 177 718 205 741 222 741 c 3
 239 741 267 718 267 704 c 3
 267 681 253 657 246 620 c 2
 235 550 l 1
 310 560 l 2
 365 570 360 581 386 581 c 3
 398.165039062 581 427 554 427 537 c 3
 427 520 398.038085938 492 385 492 c 3
 360 492 360 504 310 513 c 2
 234 523 l 1
 240.43902439 461 244.463414634 441 267 369 c 1
 244.463414634 298 240.43902439 275 234 212 c 1
 309 222 l 2
 364 232 360 244 386 244 c 3
 399.038085938 244 426 217 426 200 c 3
 426 183 397.041992188 155 385 155 c 3
 360 155 359 166 309 175 c 2
 234 185 l 1
 245 115 l 2
 252 77 266 54 266 33 c 3
 266 17 238 -6 221 -6 c 3
 204 -6 176 17 176 31 c 3
 176 54 190 78 197 115 c 2
 208 185 l 1
 133 175 l 2
 78 165 83 154 57 154 c 3
 44.8349609375 154 16 181 16 198 c 3
 16 215 44.9619140625 243 58 243 c 3
 83 243 83 231 133 222 c 2
 209 212 l 1
 202.56097561 274 198.536585366 297 176 369 c 1
EndSplineSet
Validated: 1
EndChar

StartChar: longs
Encoding: 383 383 445
GlifName: longs
Width: 357
VWidth: 1159
Flags: W
HStem: -6 36<34 97.3708 215.17 284.568> 1 32<191.619 282.018> 356 25<46 67.3182> 701 55<273.459 377.117>
VStem: 113 72<42.1466 356 403 602.768>
AnchorPoint: "Top" 262 748 basechar 0
AnchorPoint: "Bottom" 156 -15 basechar 0
LayerCount: 2
Fore
SplineSet
359 756 m 3x78
 391 756 441 745 466 723 c 1
 465 696 466 696 417 659 c 1
 378 677 347 701 309 701 c 3
 206 701 201 609 191 498 c 0
 187.339 461.394 185 339.326 185 293 c 3
 185 211 186 134 191 54 c 0
 192 39 198 34 214 33 c 0x78
 239 32 262 32 287 31 c 1
 284 -6 l 1xb8
 242 -1 182 1 140 1 c 3x78
 110 1 64 -2 34 -6 c 1
 33 30 l 1xb8
 44 31 58 31 69 33 c 0
 100 40 104 53 106 81 c 0
 111 133 114 201 114 266 c 3
 114 285.149 113 320.574 113 356 c 1
 46 356 l 1
 46 381 l 1
 113 403 l 1
 113 439.562 113 481.75 113 493 c 3
 113 601 156 657 224 704 c 0
 263 731 300 756 359 756 c 3x78
EndSplineSet
Validated: 1
Substitution2: "case-1" S
Substitution2: "pcap-1" s.pcap
Substitution2: "smcp-1" s.smcp
EndChar

StartChar: ohorn
Encoding: 417 417 448
GlifName: ohorn
Width: 505
VWidth: 0
UnlinkRmOvrlpSave: 1
Flags: W
HStem: -11 39<199.926 327.747> 365.36 24.3843<349.604 421.731> 374 45<168.903 305.133> 382.741 20G<338.441 342.053>
VStem: 32 76<130.211 291.037> 395 78<107.641 276.826> 442.501 86.0273<403.736 481.559>
AnchorPoint: "Top" 251 465 basechar 0
AnchorPoint: "Bottom" 249 -15 basechar 0
AnchorPoint: "Middle" 255 206 basechar 0
LayerCount: 2
Fore
SplineSet
334.482421875 402.741210938 m 5x9a
 349.62424831 396.926343349 372.471667174 389.744140625 386.686523438 389.744140625 c 7
 411.796269819 389.744140625 442.501138157 408.271731058 442.501138157 441.560602678 c 7
 442.501138157 449.63955766 438.983530489 459.025418514 428.6640625 470.818359375 c 5
 444.576416165 489.781030223 464.379979468 500.219391987 482.796821553 500.219391987 c 7
 512.365850716 500.219391987 528.528388939 475.09191665 528.528388939 445.9790134 c 7
 528.528388939 396.089685559 450.426516037 365.359813167 388.72825766 365.359813167 c 7xca
 357.132622939 365.359813167 342.400200021 377.606700862 334.482421875 402.741210938 c 5x9a
EndSplineSet
Refer: 14 111 N 1 0 0 1 0 0 2
Substitution2: "smcp-1" ohorn.smcp
Substitution2: "case-1" Ohorn
Substitution2: "pcap-1" ohorn.pcap
EndChar

StartChar: uhorn
Encoding: 432 432 449
GlifName: uhorn
Width: 526
VWidth: 0
UnlinkRmOvrlpSave: 1
Flags: W
HStem: -11 55<175.733 263.795> 338 31<292 351.243> 402 20G<128 167>
VStem: 70 76<75.1633 330.249> 359 64<36.0058 52 76.9705 331.63> 493.501 86.0273<404.739 481.559>
AnchorPoint: "Top" 265 465 basechar 0
AnchorPoint: "Bottom" 256 -15 basechar 0
LayerCount: 2
Fore
SplineSet
410 375 m 5
 418.121414362 381.745491074 430.375771951 388.077148438 438 390.077148438 c 5
 462.968647592 396.077148438 493.500976562 408.485648026 493.500976562 441.560546875 c 7
 493.500976562 449.639517266 489.983409974 459.025396022 479.6640625 470.818359375 c 5
 495.576431876 489.781246013 515.380014732 500.219726562 533.796875 500.219726562 c 7
 563.365825233 500.219726562 579.528320312 475.092318034 579.528320312 445.979492188 c 7
 579.528320312 396.08959691 501.426629866 370.359375 439.728515625 365.359375 c 5
 422.413060772 365.359375 414.339204806 368.517835056 410 375 c 5
285 369 m 1
 339.422818792 375.199161305 395.899328859 382.557301496 438 390.077148438 c 1
 445 378 l 1
 431 335.584 423 173.632 423 137 c 3
 423 107 426.284077022 81.1592297825 429 54 c 0
 430 44 433 36 443 36 c 3
 447 36 473 43 493 48 c 1
 499 17 l 1
 463 8 419.410107664 -9.647473084 386 -18 c 0
 382 -19 381 -22 376 -22 c 3
 359 -22 359 0 354 52 c 1
 313 34 236 -11 178 -11 c 3
 140 -11 102.934188969 5.51320688895 86 44 c 0
 75 69 70 95 70 143 c 3
 70 198 73 255 73 312 c 0
 73 322 69 331 59 331 c 3
 49 331 28 319 22 317 c 1
 12 348 l 1
 53 359 107 394 149 422 c 1
 167 406 l 1
 152 336 146 254 146 177 c 3
 146 106 161 44 232 44 c 3
 269 44 322 69 353 85 c 1
 354 154 359 291 359 298 c 3
 359 337 329 337 292 338 c 1
 285 369 l 1
EndSplineSet
Substitution2: "smcp-1" uhorn.smcp
Substitution2: "case-1" Uhorn
Substitution2: "pcap-1" uhorn.pcap
EndChar

StartChar: yen
Encoding: 165 165 451
GlifName: yen
Width: 463
VWidth: 1159
UnlinkRmOvrlpSave: 1
Flags: HW
HStem: -195.143 27.832<290.394 317.58> -20 36<93 383> 80 36<93 383>
VStem: 207.261 75.8369<-163.561 112.389>
LayerCount: 2
Fore
SplineSet
274.890625 169.708984375 m 1
 274.314622807 115.248982948 272.283654214 50.1171047102 283.09765625 -128.499023438 c 0
 285.015173967 -160.170886375 292.119204273 -161.0586431 320.783203125 -167.310546875 c 1
 317.580078125 -195.142578125 l 1
 274.689595576 -186.83690152 222.038207283 -183.218788643 178.485351562 -198.678710938 c 1
 171.08984375 -171.665039062 l 1
 195.610467016 -162.26863286 206.390990071 -155.268664903 207.260742188 -117.220703125 c 0
 207.787638441 -104.621204106 205.843021338 150.767976016 205.118164062 143.750976562 c 1
 204.034116885 150.049303618 155.095264654 248.178623374 87.2695828038 343.999997223 c 0
 76.0701508093 359.82210075 59.2291043945 378.720580661 49 385 c 1
 139 433 l 1
 144.933661013 402.938576204 168.652866704 351.939024868 181.091541944 327.999991964 c 0
 221.31584563 250.585724695 252.239236655 211.848881796 255.486328125 207.837890625 c 1
 299.730787717 303.031969433 321.320964056 356.628741888 331 433 c 1
 345.5 424.066173481 396.25 400.848034565 418 391 c 1
 345.004852928 317.965777551 314.263107929 249.458544383 274.890625 169.708984375 c 1
EndSplineSet
Refer: 1970 58113 N 0.29 0 0 1.125 93 -2 2
Refer: 1970 58113 N 0.29 0 0 1.125 93 98 2
Position2: "'lnum-2' vertical adjustment" dx=0 dy=190 dh=0 dv=0
EndChar

StartChar: eth
Encoding: 240 240 453
GlifName: eth
Width: 471
VWidth: 1159
UnlinkRmOvrlpSave: 1
Flags: HW
HStem: -5 49<172.89 302.553> 359 46<174.141 312.607> 700 27.4531<77.2373 85.8109>
VStem: 28 64<133.432 266.724> 366 69<130.061 336.627>
LayerCount: 2
Fore
SplineSet
354 309 m 1
 322 347 236.429148452 359 222 359 c 3
 198 359 92 331.004882812 92 226 c 3
 92 129.916992188 150.98046875 44 252 44 c 3
 332.374023438 44 366 128.150390625 366 202 c 3
 366 372.223208516 223 618 65 700 c 1
 69.0966796875 706.58203125 77.2373046875 727.453125 77.2373046875 727.453125 c 1
 260.283740169 675.166289781 435 439.719447105 435 235 c 3
 435 113.962890625 360.284179688 -5 193 -5 c 3
 102.911132812 -5 28 65.923828125 28 171 c 3
 28 326.389648438 176 405 264 405 c 3
 280.100844176 405 312.529887067 398.835864585 329 392 c 1
 354 309 l 1
EndSplineSet
Refer: 1970 58113 N 0.284488 0.177084 -0.547233 0.872389 104.756 489.958 2
Substitution2: "pcap-1" eth.pcap
Substitution2: "case-1" Eth
Substitution2: "smcp-1" eth.smcp
EndChar

StartChar: quotereversed
Encoding: 8219 8219 462
GlifName: quotereversed
Width: 200
VWidth: 1159
Flags: W
HStem: 451 252
VStem: 29 141
LayerCount: 2
Fore
SplineSet
157 451 m 1
 39 516 29 627 29 633 c 3
 29 639 32 644 37 646 c 0
 58 657 76 673 87 694 c 0
 89 699 95 703 101 703 c 3
 107 703 113 699 115 694 c 0
 126 673 142 657 163 646 c 0
 168 644 170 639 170 633 c 3
 170 627 168 620 163 618 c 0
 142 607 120 592 110 570 c 0
 96 539 139 497 173 476 c 1
 157 451 l 1
EndSplineSet
Validated: 33
Position2: "cpsp-1" dx=0 dy=0 dh=7 dv=14
EndChar

StartChar: uni20B9
Encoding: 8377 8377 466
GlifName: uni20B_9
Width: 426
VWidth: 1159
UnlinkRmOvrlpSave: 1
Flags: W
HStem: -42 23<381.506 409> 283 31<32 113.386> 460.095 28.999<33.25 411.25>
VStem: 248 79<400.509 544.149>
LayerCount: 2
Fore
SplineSet
33.25 666.09375 m 1
 411.25 666.09375 l 1
 411.25 637.094726562 l 1
 33.25 637.094726562 l 1
 33.25 666.09375 l 1
33.25 489.09375 m 1
 411.25 489.09375 l 1
 411.25 460.094726562 l 1
 33.25 460.094726562 l 1
 33.25 489.09375 l 1
32.5 666 m 1
 57.25390625 666 67.658203125 666 96 666 c 0
 222.431640625 666 327 583 327 480 c 0
 327 393 262.599609375 334 189 304 c 1
 265.474609375 110.581054688 332.772460938 -13.0947265625 412 -19 c 1
 409 -42 l 1
 258 -39 178 134 114 284 c 1
 100.875 283 89.2080078125 283 79 283 c 0
 60.6474609375 283 50.3525390625 285.400390625 32 286 c 1
 32 316 l 1
 49.912109375 315.5 59.087890625 314 77 314 c 3
 219.663085938 314 248 410.737304688 248 469 c 3
 248 534.418945312 188.37890625 638 75 638 c 3
 61.8720703125 638 35.193359375 638 33.5 638 c 1
 32.5 666 l 1
EndSplineSet
EndChar

StartChar: eng
Encoding: 331 331 467
GlifName: eng
Width: 499
VWidth: 1159
Flags: W
HStem: -319 60<162.258 279.828> -5 33<20.3636 69> 335 29<32 79.6511> 338 61<245.574 353.747> 396 20G<129 175>
VStem: 95 75<72.7464 318.176 330 331.265> 379 69<-89.8607 313.154>
LayerCount: 2
Fore
SplineSet
329 -267 m 4xd6
 284.360294118 -296 253 -319 194 -319 c 7
 162 -319 112 -308 87 -286 c 5
 88 -259 87 -259 136 -222 c 5
 165.972222222 -237.857142857 189.796296296 -259 219 -259 c 7
 247.822033898 -259 296.27809609 -258.437912348 316 -237 c 4
 342.595265849 -208.090672547 360.595200234 -175.050461911 367 -146 c 4
 373.749647059 -115.385402827 379 -41.9109823322 379 143 c 7
 379 192.5 376.549026451 266.820841347 374 287 c 4
 369 328.328358209 348 358 293 358 c 7xd6
 245 358 203 344.4 170 324 c 5
 168 234.329113924 161 109.430379747 161 71 c 7
 161 27.80589946 195.795590225 30.6204409775 232 27 c 5
 228 -7 l 5
 189 -1 159 4 117 4 c 7
 87 4 51 -1 21 -5 c 5
 18 28 l 5
 55.449092135 34.8089258427 78.318284601 37.5524032329 87 76 c 4
 94 107 95 167 95 199 c 7
 95 219 92.9313485794 287.976104104 86 308 c 4
 77 334 72 336 54 336 c 7
 44 336 41 335 32 335 c 5
 30 364 l 5
 67 371 104 375 154 416 c 5xee
 175 401 l 5
 170 387.056338028 167 366.915492958 167 346 c 5
 215 377 267 415 330 415 c 7
 403 415 448 375 448 304 c 7
 448 213.433607383 445 119.425469455 445 -84 c 7
 445 -134 432.819094368 -164.880515375 419 -186 c 4
 396.752808989 -220 368.44138087 -241.377070309 329 -267 c 4xd6
EndSplineSet
Validated: 1
Substitution2: "smcp-1" eng.smcp
Substitution2: "case-1" Eng
Substitution2: "pcap-1" eng.pcap
EndChar

StartChar: Eng
Encoding: 330 330 468
GlifName: E_ng
Width: 836
VWidth: 1159
Flags: W
HStem: -241 62<483.653 578.44> -10 44<23.3182 86.8179 186.794 270.067> 655 39<771.217 833> 663 38<601.079 678.507>
VStem: 97 55<66.5393 314.07> 105 56<351.62 550> 676.266 70.7344<-86.2532 70.0219>
LayerCount: 2
Fore
SplineSet
628 -189 m 0xe6
 589 -216 552 -241 493 -241 c 3
 461 -241 411 -230 386 -208 c 1
 387.224489796 -178.046875 386 -178.046875 446 -137 c 1
 485 -155 508.349151158 -179 554 -179 c 3
 640.616503398 -179 676.265625 -76.9678502479 676.265625 -13.4755859375 c 3
 676.265625 48.2626834417 640.03404243 103.097021502 604 139.090820312 c 0
 459.896 279.614068929 313.026 416.065410818 161 550 c 1xe6
 152 154 l 2
 149.672574689 52.4216563039 186 44.674796748 277 35 c 1
 269 -11 l 1
 229.225006617 -2.55029543162 191.72886241 0.193359375 156.584960938 0.193359375 c 0
 107.789937357 0.193359375 63.5294692282 -6.59829339283 24 -10 c 1
 19 34 l 1
 77 34 94.2505340003 45.0370931165 97 93 c 0xea
 106 246.782786885 108.836453881 409.412965035 105 571 c 0
 104 614 69 649 12 648 c 1
 14 692 l 1
 53 688 104.987806691 684 146 684 c 0
 161 684 162.224003945 680.217054625 169 673 c 0
 318.792 516.927864326 473.300161891 367.004316767 636 223.227539062 c 0
 659.155 202.310678333 682.86 176.9488472 699 154 c 1
 708 281.98180798 710.135155394 409.964631854 709 545 c 0
 708 667 656 656 597 663 c 1
 602 701 l 1xd6
 658.737273127 693.806776525 706.285370634 691.3984375 751.0625 691.3984375 c 0
 778.931628397 691.3984375 805.747514379 692.483615703 833 694 c 1
 837 655 l 1
 788 649 766.708243919 651.026764413 763 609 c 0
 748 442.189493433 745 264.596148366 745 86 c 0
 745 63 747 43 747 0 c 3
 747 -86.94 692.388915009 -144.42305884 628 -189 c 0xe6
EndSplineSet
Validated: 33
Position2: "cpsp-1" dx=0 dy=0 dh=50 dv=100
Substitution2: "c2pc-1" eng.pcap
Substitution2: "c2sc-1" eng.smcp
EndChar

StartChar: circumcombhigh
Encoding: 58081 58081 471
GlifName: circumcombhigh
Width: 0
VWidth: 1159
Flags: W
HStem: 450.319 133.361
VStem: -323.78 252.561
LayerCount: 2
Fore
SplineSet
-71.2197 465.56 m 1
 -93.3955 450.319 l 1
 -197.5 518.507 l 1
 -301.604 450.319 l 1
 -323.78 465.56 l 1
 -215.364 583.681 l 1
 -179.636 583.681 l 1
 -71.2197 465.56 l 1
EndSplineSet
Validated: 1
EndChar

StartChar: a.pcap
Encoding: 57347 57347 643
GlifName: a.pcap
Width: 472
VWidth: 1159
Flags: W
HStem: -7 25<34 58.0979 295 312.5> 138 30<175 275.575> 395 20G<232.5 267>
VStem: 234 31<355.154 415>
AnchorPoint: "Top" 250 465 basechar 0
AnchorPoint: "Bottom" 239 -15 basechar 0
LayerCount: 2
Fore
SplineSet
175 168 m 1
 205 163 249 164 277 164 c 1
 255 219 247 229 223 283 c 1
 201 227 195 216 175 168 c 1
295 -7 m 1
 295 -7 291 11 289 18 c 1
 306 23 324 37 321 44 c 0
 310 82 301 98 289 132 c 1
 268 139 193 143 162 138 c 1
 148 104 137 84 126 51 c 0
 122 37 143 17 181 22 c 1
 180 -7 l 1
 161.333007812 -2.9169921875 125.65234375 -0.875 92.8076171875 -0.875 c 3
 69.34765625 -0.875 47.3330078125 -1.9169921875 34 -4 c 1
 34 -2 31 13 30 22 c 1
 60 27 80 42 82 47 c 0
 138 166 187 275 226 372 c 0
 235 394 231 390 234 415 c 1
 265 415 l 1
 269 395 265 395 273 373 c 0
 316 244 345 161 407 37 c 0
 413 26 432 21 442 21 c 1
 442 19 442 5 441 -3 c 1
 423.9765625 -0.380859375 400.475585938 1.0947265625 376.567382812 1.0947265625 c 3
 345.703125 1.0947265625 314.159179688 -1.365234375 295 -7 c 1
EndSplineSet
Validated: 33
EndChar

StartChar: b.pcap
Encoding: 57348 57348 644
GlifName: b.pcap
Width: 444
VWidth: 1159
Flags: W
HStem: -3 27<63 101.5 199.158 282.264> 206 19<180 244.724> 380 27<64 93.7519 188.586 243.278>
VStem: 112 69<32.2366 206 225 376.759> 272 78<256.992 359.866> 312 78<46.6076 169.261>
AnchorPoint: "Bottom" 218 -15 basechar 0
AnchorPoint: "Top" 213 465 basechar 0
LayerCount: 2
Fore
SplineSet
61 22 m 1xf4
 73 23 106 25 108 55 c 0
 110 56 112 106 112 168 c 3
 112 255.721679688 107 331.956054688 107 333 c 0
 106 358 105 372 94 377 c 0
 89 378 65 381 60 382 c 1
 64 407 l 1
 72 407 104 401 136 401 c 3
 166 401 207 407 236 407 c 3
 315 407 350 342 350 305 c 3xf8
 350 265 302 229 280 222 c 1
 340 209.672851562 390 166.52734375 390 109 c 1
 390 41.5927734375 330 -3 239 -3 c 3
 209 -3 171 1 138 1 c 3
 103 1 69 -2 63 -2 c 1
 61 22 l 1xf4
226 226 m 0
 252 230 272 256 272 290 c 3
 272 316 257 380 216 380 c 3
 214 380 202 379 200 379 c 0
 187 376 188 361 186 351 c 0
 181 288 181 227 180 225 c 1
 221 225 225 225 226 226 c 0
215 205 m 3
 212.171572875 205 188 206 179 206 c 1
 179 154.27734375 179 104.666992188 181 73 c 0
 182 45 185 37 199 32 c 0
 202 30 229 24 237 24 c 3
 286 24 312 55.599609375 312 103 c 3xf4
 312 154.515625 285 205 215 205 c 3
EndSplineSet
Validated: 1
EndChar

StartChar: c.pcap
Encoding: 57349 57349 645
GlifName: c.pcap
Width: 500
VWidth: 1159
Flags: W
HStem: -6 29<245.082 356.638> 301 101<393 438> 387 27<231.619 347.46>
VStem: 56 86<120.275 291.515> 393 24<302.184 348.314> 422 21<91.7148 107>
AnchorPoint: "Bottom" 287 -15 basechar 0
AnchorPoint: "Top" 298 465 basechar 0
LayerCount: 2
Fore
SplineSet
56 200 m 3xbc
 56 304.921875 136 414 307 414 c 3xbc
 333 414 357 414 387 405 c 0
 416 397 425 402 438 402 c 1
 457 391 l 1
 430 357 418 338 417 319 c 0
 416 300 412 301 393 301 c 1xdc
 391 317 391 344 372 359 c 0
 345 377 325 387 292 387 c 3
 208 387 142 324.090820312 142 214 c 3
 142 96 227 23 304 23 c 3
 354 23 397 57 422 111 c 1
 443 105 l 1
 438 73 435 60 429 27 c 1
 392 9 339 -6 286 -6 c 3
 174 -6 56 73 56 200 c 3xbc
EndSplineSet
Validated: 33
EndChar

StartChar: d.pcap
Encoding: 57350 57350 646
GlifName: d.pcap
Width: 560
VWidth: 1159
Flags: W
HStem: -5 29<62 100.639 167.023 325.741> 384 25<60 94.3433 192.381 307.805>
VStem: 106.984 72.0158<33.7617 374.573> 421 83<108.01 292.458>
AnchorPoint: "Bottom" 258 -15 basechar 0
AnchorPoint: "Top" 269 465 basechar 0
LayerCount: 2
Fore
SplineSet
242 24 m 3
 362 24 421 89.1845703125 421 203 c 3
 421 311.599609375 342 384 244 384 c 3
 232 384 217 380 196 373 c 0
 182.416922293 368.472307431 181 361 181 351 c 0
 179.029670691 281.781279512 176.627986095 224.265598663 176.627986095 163.376149987 c 3
 176.627986095 131.556047419 177.283882181 98.8145744436 179 63 c 0
 179 53 182.976943523 42.5115282384 196 36 c 0
 208 30 223 24 242 24 c 3
60 404 m 1
 85 403 111 401 136 401 c 3
 186 401 213 409 263 409 c 3
 426 409 504 303.909179688 504 205 c 3
 504 42.3525390625 365 -5 249 -5 c 3
 207 -5 183 -1 140 -1 c 3
 96 -1 81 -4 62 -7 c 1
 61 18 l 1
 90 20 100.387381387 18.5856776998 103 54 c 0
 105.781598043 91.7048563991 106.984157786 136.983545335 106.984157786 181.330678414 c 3
 106.984157786 248.584835938 104.218401957 313.696516917 100 347 c 0
 96 378 98 376 60 378 c 1
 60 404 l 1
EndSplineSet
Validated: 1
EndChar

StartChar: e.pcap
Encoding: 57351 57351 647
GlifName: e.pcap
Width: 468
VWidth: 1159
Flags: W
HStem: -6 23<67.1739 93.9636> -0.384672 26.9515<195.945 319.04> 192 24<177 317.415> 375.159 26.2218<203.739 331.729> 385 19<63 93.1367>
VStem: 110.134 66.8664<38.1614 192 216 368.351> 339 23<135.174 172.751> 358 20<303 348.27> 397 19<105.592 116.842>
AnchorPoint: "Bottom" 243 -15 basechar 0
AnchorPoint: "Top" 243 465 basechar 0
LayerCount: 2
Fore
SplineSet
63 404 m 1xae80
 103.716719432 402.132260577 156.294170747 401.38082533 207.075831097 401.38082533 c 3
 292.238349339 401.38082533 372.35031404 403.494191539 383 406 c 1
 390.208111566 399.821618658 392.821397686 394.350133538 392.821397686 386.87609291 c 3
 392.821397686 372.575379949 383.254052737 350.943231223 378 303 c 1
 358 301 l 1x3580
 353 312 362 342 339 359 c 0
 323.391176948 369.405882035 289.594297724 375.159005515 255.490292348 375.159005515 c 7
 237.156255068 375.159005515 218.733456777 373.496323728 203 370 c 0
 194 369 187 359 187 351 c 0
 182 303.595703125 178 259.282226562 177 216 c 1
 213 216 281 217 295 220 c 0
 325 225 330 238 341 267 c 1
 362 263 l 1
 357.43132713 246.552777669 355.576114593 226.348456416 355.576114593 205.820027424 c 3
 355.576114593 181.41543193 358.198071009 156.552777669 362 137 c 1
 339 131 l 1
 327 188 327 180 294 186 c 0
 268 193 229 192 177 192 c 1
 177 135.8046875 177 88.8046875 189 51 c 0
 191 43 196 38 205 36 c 0
 228.90497088 30.8440258887 248.196177712 26.5668639769 266.889851974 26.5668639769 c 3
 288.078150051 26.5668639769 308.498796122 32.0617475763 334 48 c 0
 373 73 376 85 397 120 c 1
 416 115 l 1
 407 75 398 33 391 -4 c 1
 327.763113226 -2.83969015085 258.690885532 -0.384671863407 194.928927487 -0.384671863407 c 3x7680
 147.722224945 -0.384671863407 103.918409428 -1.74165738677 69 -6 c 1
 63 17 l 1
 92 24 101 27 105 53 c 1
 108.66076927 73.893146043 110.133582353 141.57388693 110.133582353 207.545044419 c 3
 110.133582353 267.721717716 108.908131846 326.475936346 107 347 c 0
 105 375 99 376 60 385 c 1
 63 404 l 1xae80
EndSplineSet
Validated: 33
EndChar

StartChar: f.pcap
Encoding: 57352 57352 648
GlifName: f.pcap
Width: 439
VWidth: 1159
Flags: W
HStem: -6 23<72.1739 94.6323> 189 28<184 307.35> 381 21<64 97.5596> 394 20G<363.972 372.887>
VStem: 116.138 66.8616<36.4442 189 217 370.948> 329 23<133.174 169.278> 358 21<305 337.985>
AnchorPoint: "Bottom" 168 -15 basechar 0
AnchorPoint: "Top" 231 465 basechar 0
LayerCount: 2
Fore
SplineSet
257 -9 m 1xde
 225.3281573 -1.08203932499 196.72135955 2.65631459995 165.884572849 2.65631459995 c 3
 138.30331234 2.65631459995 108.93806067 -0.334368540005 74 -6 c 1
 68 17 l 1
 96 25 111 34 114 67 c 1
 115.392304845 83.6587099277 116.138438763 136.543798164 116.138438763 192.542328907 c 3
 116.138438763 257.203862505 115.143593539 326.016652779 113 348 c 0
 111 369 98 373 60 381 c 1
 64 402 l 1xee
 97.6728004421 400.426504652 139.664583252 399.546257835 181.498092776 399.546257835 c 3
 272.596369746 399.546257835 362.944097209 403.720486043 365 414 c 1
 380.774414062 406.60546875 385 398 385 383 c 3
 385 367 380.521484375 343.536132812 379 305 c 1
 358 303 l 1
 352 320 353 346 328 358 c 0
 291 376 241 377 200 371 c 0
 191 370 189 362 189 352 c 0
 185 305.625976562 184 259.251953125 184 217 c 1
 213 217 278 220 286 221 c 0
 314 226 321 248 332 271 c 1
 354 267 l 1
 348.852299546 247.953508322 346.619469288 223.342264451 346.619469288 198.895403866 c 3
 346.619469288 175.851426929 348.603390318 152.953508322 352 135 c 1
 329 129 l 1
 318 179 315 183 286 187 c 0
 259 192 238 191 183 189 c 1
 186 129.5 185 99.75 190 70 c 0
 195 41 197 26 261 26 c 1
 257 -9 l 1xde
EndSplineSet
Validated: 33
EndChar

StartChar: g.pcap
Encoding: 57353 57353 649
GlifName: g.pcap
Width: 543
VWidth: 1159
Flags: W
HStem: -6 28<250.719 367.747> 183 22<315 384.583> 384 28<234.891 356.583>
VStem: 56 83<123.528 291.585> 396 72<44.1955 178.458> 437 21<299.667 313.934>
AnchorPoint: "Bottom" 288 -15 basechar 0
AnchorPoint: "Top" 285 465 basechar 0
LayerCount: 2
Fore
SplineSet
56 205 m 3xf8
 56 368 235 412 318 412 c 1
 354 412 381 400 409 394 c 0
 417 392 423 396 428 407 c 1
 446 406 l 1
 458 301 l 1
 437 297 l 1xf4
 407 361 333 384 296 384 c 3
 187 384 139 281 139 211 c 1
 139 113 218 22 312 22 c 1
 338 22 355 26 381 44 c 0
 389 48 393 63 393 74 c 0
 393 93 395 115 396 135 c 0
 395 161 391 177 365 181 c 0
 346 183 333 183 314 183 c 1
 315 205 l 1
 374 199 458 200 487 204 c 1
 489 187 l 1
 474 183 469 172 468 151 c 0
 467 120 466 93 464 68 c 0
 463 51 467 45 480 33 c 1
 478 19 l 1
 432 12 320 -6 288 -6 c 1
 158 -6 56 78 56 205 c 3xf8
EndSplineSet
Validated: 33
EndChar

StartChar: h.pcap
Encoding: 57354 57354 650
GlifName: h.pcap
Width: 603
VWidth: 1159
Flags: W
HStem: -2 23<63.2076 86.6559 196.288 228 386 410.38 514.132 539> 189 28<183 431> 384 25<64.44 101.921 193.638 233.538>
VStem: 114.144 68.8559<37.3924 189 217 377.097> 431 63.9076<31.1521 189 218 372.971>
AnchorPoint: "Bottom" 307 -15 basechar 0
AnchorPoint: "Top" 311 465 basechar 0
LayerCount: 2
Fore
SplineSet
65 409 m 1
 100.970073031 405.899131635 132.709376831 402.798263271 166.658176466 402.798263271 c 3
 187.450171411 402.798263271 209.070941396 403.961389384 233 407 c 1
 235 383 l 1
 222 380 193 379 190 366 c 1
 185 345.588867188 185 275.170898438 183 217 c 1
 431 218 l 1
 431 252.8359375 431 292.794921875 429 343 c 0
 427 378 404 376 381 385 c 1
 384 408 l 1
 406.901994577 403.419601085 430.013789697 400.937207592 453.527579394 400.937207592 c 3
 481.349470565 400.937207592 509.734154144 404.412558482 539 412 c 1
 543 388 l 1
 517 381 509 378 506 352 c 0
 499.894654023 298.272955406 494.907565532 209.879928782 494.907565532 142.805180582 c 3
 494.907565532 100.017607372 496.93694977 65.9050312655 502 55 c 0
 509 26 526 24 542 21 c 1
 542 21 539 5 539 -2 c 1
 518.501425325 2.39255171604 493.238773964 4.8794727577 467.048562342 4.8794727577 c 3
 439.577048425 4.8794727577 411.084996213 2.14326437861 386 -4 c 1
 386 -2 381 12 380 20 c 1
 405 28 420 30 424 59 c 0
 429 107.872070312 430 137.1953125 431 189 c 1
 182 189 l 1
 181.5 143.051757812 181.5 96.126953125 183 58 c 0
 184 26 213 27 231 21 c 1
 231 21 228 4 228 -3 c 1
 199.128420419 2.2493781056 168.052363199 5.0187188666 138.388121044 5.0187188666 c 3
 111.542350854 5.0187188666 85.8528607142 2.7506218944 64 -2 c 1
 64 -2 61 16 60 25 c 1
 79 30 102 30 105 59 c 0
 111.02325267 118.02787617 114.144139522 207.167797708 114.144139522 272.663590411 c 3
 114.144139522 315.906043117 112.783723131 348.841854807 110 356 c 0
 105 380 85 381 63 384 c 1
 65 409 l 1
EndSplineSet
Validated: 33
EndChar

StartChar: i.pcap
Encoding: 57355 57355 651
GlifName: i.pcap
Width: 329
VWidth: 1159
Flags: W
HStem: -7 26<62.1923 106.911> 381 28<65.5 116.097>
VStem: 134.425 63.9451<36.2503 369.855>
AnchorPoint: "Bottom" 167 -15 basechar 0
AnchorPoint: "Top" 170 465 basechar 0
LayerCount: 2
Fore
SplineSet
66 409 m 1
 99.7879540824 402.856735621 132.527583242 400.120527242 165.828921767 400.120527242 c 3
 197.577048425 400.120527242 229.835708875 402.607448284 264 407 c 1
 265 379 l 1
 236 378 218 384 210 349 c 0
 203.95958454 306.872427987 198.369621166 255.011747729 198.369621166 184.084585467 c 3
 198.369621166 149.332847889 199.711572733 110.003925508 203 65 c 0
 206 36 236 21 269 20 c 1
 268 -6 l 1
 239.001113587 -2.61679658516 202.293652553 -0.868745362637 166.232145135 -0.868745362637 c 3
 127.680772104 -0.868745362637 89.8676317755 -2.86651818838 63 -7 c 1
 60 19 l 1
 94 20 125 32 129 69 c 0
 132.647970037 105.617746116 134.424546816 153.367195621 134.424546816 200.632033437 c 3
 134.424546816 257.01900708 131.896033708 312.716257081 127 348 c 0
 119 379 92 377 64 381 c 1
 66 409 l 1
EndSplineSet
Validated: 33
EndChar

StartChar: j.pcap
Encoding: 57356 57356 652
GlifName: j.pcap
Width: 310
VWidth: 1355
Flags: W
HStem: 380 19.6829<148.262 258> 382 26<58.1923 104.033>
VStem: 128 75<-61.7031 126.564>
AnchorPoint: "Bottom" 166 -77 basechar 0
AnchorPoint: "Top" 159 465 basechar 0
LayerCount: 2
Fore
SplineSet
118 340 m 0xa0
 111 382 86 379 56 382 c 1
 59 408 l 1x60
 89.5265255131 402.076942811 118.807514702 399.682905207 148.261695043 399.682905207 c 0xa0
 183.453918107 399.682905207 218.893384864 403.100578054 257 408 c 1x60
 258 380 l 1
 227 379 206 385 201 342 c 0
 194 275.162109375 196 211.458007812 196 130 c 1
 196 56 202 27 203 2 c 1
 203 -52 165 -88 124 -115 c 0
 101 -130 77 -142 54 -151 c 1
 47 -151 30 -125 30 -125 c 1
 40.9638920725 -116.385513372 61.7405947064 -107.157726083 75.999999592 -99.7181246507 c 0
 79.9486970006 -97.6579590875 83.3976217764 -95.7349188157 86 -94 c 1
 141 -58 129 13 128 38 c 1
 128 62.7373046875 124 308.047851562 118 340 c 0xa0
EndSplineSet
Validated: 33
EndChar

StartChar: k.pcap
Encoding: 57357 57357 653
GlifName: k.pcap
Width: 495
VWidth: 1159
Flags: W
HStem: -4 27G<60.2609 73.5238 218.441 234 316 328.5 450 461> 383 22<64.0476 93.5832 193.104 229.455 277.773 302.923 395.746 421.136>
VStem: 112.182 63.8184<26.7453 182 213 374.508>
AnchorPoint: "Bottom" 268 -15 basechar 0
AnchorPoint: "Top" 255 465 basechar 0
LayerCount: 2
Fore
SplineSet
278 402 m 1
 291.774408961 400.510874707 309.568026048 399.714716332 328.491490478 399.714716332 c 0
 360.399113313 399.714716332 395.518971607 401.978250586 420 407 c 1
 425 383 l 1
 400 377 384 368 363 350 c 0
 310 302.4921875 270 267.376953125 221 224 c 1
 392 66 l 1
 411 49 440 28 461 18 c 1
 458 2 l 1
 442 3 409 4 395 4 c 0
 376 4 338 2 319 -1 c 1
 316 16 l 1
 320 22 335 26 320 44 c 1
 310 60.4775390625 233 130.5078125 176 182 c 1
 176 134.427734375 178 93.0595703125 180 61 c 0
 182 26 200 25 234 13 c 1
 232 -7 l 1
 204.881701706 -2.78159804316 169.773849707 -0.0158422144385 133.460844124 -0.0158422144385 c 0
 109.516187757 -0.0158422144385 85.0475266433 -1.21840195684 62 -4 c 1
 60 19 l 1
 89 21 101 26 105 58 c 0
 109.954592315 105.64440481 112.18163074 155.16193121 112.18163074 205.521569478 c 0
 112.18163074 246.640041942 110.696938457 288.319922318 108 330 c 0
 104 374 97 375 61 384 c 1
 65 404 l 1
 85.8460981586 400.895261976 111.413534209 399.561025662 137.426907279 399.561025662 c 0
 170.063768175 399.561025662 203.402564155 401.66120402 229 405 c 1
 231 383 l 1
 199 379 188 381 183 341 c 1
 179 292.483398438 176 262.548828125 176 213 c 1
 223 259.512695312 255 289.487304688 300 336 c 0
 305 343 309 343 309 356 c 0
 309 374 296 380 277 383 c 1
 278 402 l 1
EndSplineSet
Validated: 1
EndChar

StartChar: l.pcap
Encoding: 57358 57358 654
GlifName: l.pcap
Width: 456
VWidth: 1159
Flags: W
HStem: -5 28<67 96.6314> 1 35<188.915 347.424> 380 26<62.4643 98.7524 195.343 240.385>
VStem: 106 75<39.8145 372.901> 395 23<89.6116 110>
AnchorPoint: "Top" 159 465 basechar 0
AnchorPoint: "Bottom" 232 -15 basechar 0
LayerCount: 2
Fore
SplineSet
240 406 m 1xb8
 242 380 l 1
 194 372 192 381 185 324 c 0
 182.784727398 305.96135167 181 107.571289062 181 105 c 1
 182 60 186 37 222 36 c 0
 227.097053437 35.8584151823 288.838285073 35.9403450014 292 36 c 0
 345 37 386 79 395 114 c 1
 418 110 l 1
 417 68 409 64 391 -19 c 1
 370 -9 368 -5 342 -3 c 0
 336 -3 286 1 228 1 c 0x78
 103 1 76 -5 67 -5 c 1
 64 23 l 1
 95 30 103 34 106 67 c 0
 106.461643536 72.0780788932 108 111 108 173 c 0
 109 259.583984375 105.063862461 341.94626939 105 343 c 0
 103 376 95 376 60 378 c 1
 63 408 l 1
 87.3470419955 402.156709921 119.518759583 399.870090566 151.202089261 399.870090566 c 0
 184.584835544 399.870090566 217.425396956 402.408585879 240 406 c 1xb8
EndSplineSet
Validated: 33
EndChar

StartChar: m.pcap
Encoding: 57359 57359 655
GlifName: m.pcap
Width: 654
VWidth: 1159
Flags: W
HStem: -7 27<49.4815 95 168.476 210.037 419.067 460.824> 4 17G<298.5 332 586.047 597.714> 380 28<56.75 106.176 551.898 595.7>
VStem: 112 40<79 281.474> 299 30<4 57.0804> 476 63<83.5445 288.75 344.085 372.902>
AnchorPoint: "Top" 344 465 basechar 0
AnchorPoint: "Bottom" 316 -15 basechar 0
LayerCount: 2
Fore
SplineSet
597 0 m 1xbc
 575.094169811 3.89436981129 546.316193208 6.12994566024 515.857107168 6.12994566024 c 0
 483.745687548 6.12994566024 449.765818868 3.64524150948 420 -2 c 1
 416 23 l 1
 473 28 479 35 476 109 c 0
 476 179.7734375 476 222.237304688 469 292 c 1
 426 230.340820312 396 181.821289062 362 105 c 0
 348 74 335 33 329 4 c 1
 299 4 l 1x7c
 298 40 283 80 268 110 c 1
 269 108.98828125 173 292.081054688 172 285 c 1
 161 209.2421875 153 167.828125 152 85 c 0
 152 28 173 28 213 20 c 1
 209 -6 l 1
 187.386048398 -2.39767473296 159.680970498 -0.119507356688 130.791100797 -0.119507356688 c 0
 103.542484128 -0.119507356688 75.2398694448 -2.14617895292 50 -7 c 1
 48 20 l 1
 93 26 107 29 112 79 c 1
 112 76.98046875 132 286.029296875 132 283 c 1
 133 315 130 337 117 355 c 0
 106 370 90 378 53 380 c 1
 58 408 l 1
 92 404 148 400 185 401 c 1
 199 401 201 389 205 379 c 0
 247 283.217773438 283 216.674804688 336 134 c 1
 337 127.954101562 482 396.0078125 482 395 c 0
 485 401 491 404 495 403 c 0
 524 400 566 401 595 404 c 1
 598 378 l 1
 555 379 540 370 539 313 c 0
 540 234.24609375 538 160.541015625 544 104 c 0
 550 35 562 29 598 28 c 1
 597 0 l 1xbc
EndSplineSet
Validated: 33
EndChar

StartChar: n.pcap
Encoding: 57360 57360 656
GlifName: n.pcap
Width: 587
VWidth: 1159
Flags: W
HStem: -10 30<63.125 100.174 181.639 220.167> 380 25<506.583 536> 390 20G<392.4 410.155>
VStem: 116.523 41.4775<36.7797 310.125> 455 30<130.503 238.479> 469 24<-6.04167 11.8909>
AnchorPoint: "Top" 311 465 basechar 0
AnchorPoint: "Bottom" 295 -15 basechar 0
LayerCount: 2
Fore
SplineSet
63 406 m 1xd4
 97 401 137 399 166 401 c 0
 175 401 177 398 181 394 c 0
 276 291.615234375 355 210.309570312 450 128 c 1
 456.058143979 181.657846674 453.128261394 218.088642431 454.174818676 271 c 0
 454.337526311 279.226097111 454.59634742 287.850541513 455 297 c 0
 455 379 427 383 392 385 c 1
 394 410 l 1xb8
 426.30942523 405.123105626 456.389091204 403.590850136 484.465545845 403.590850136 c 0
 502.445376185 403.590850136 519.603695466 404.219223594 536 405 c 1
 539 380 l 1
 512 377 502 375 498 335 c 0
 488 248 484 137 485 44 c 0xd8
 485 30 490 9 493 -4 c 1
 469 -11 l 1
 460 14 446 26 428 46 c 0
 342 136.341796875 250 224.676757812 158 310 c 1
 158 316.030273438 152 103.969726562 153 110 c 1
 153 48 175 28 224 20 c 1
 219 -10 l 1
 196.614088118 -2.12347544897 173.197046502 0.425545475769 150.529953807 0.425545475769 c 0
 118.518773309 0.425545475769 88.0032891267 -4.65821569495 64 -7 c 1
 60 22 l 1
 96 23 111 32 112 75 c 0
 115.454915028 130.502670096 116.522542486 183.128472164 116.522542486 241.159433265 c 0
 116.522542486 267.11166803 116.309016994 294.144934601 116 323 c 0
 112 358 85 370 62 377 c 1
 63 406 l 1xd4
EndSplineSet
Validated: 33
EndChar

StartChar: o.pcap
Encoding: 57361 57361 657
GlifName: o.pcap
Width: 568
VWidth: 1159
Flags: W
HStem: -5 37<240.993 370.228> 378 35<202.127 322.544>
VStem: 56 78<146.969 286.001> 428 84<111.049 270.5>
AnchorPoint: "Middle" 282 206 basechar 0
AnchorPoint: "Bottom" 288 -15 basechar 0
AnchorPoint: "Top" 286 465 basechar 0
LayerCount: 2
Fore
SplineSet
258 378 m 3
 186 378 134 325 134 243 c 3
 134 136 212 32 307 32 c 3
 385 32 428 92 428 174 c 3
 428 292 344 378 258 378 c 3
292 413 m 3
 416 413 512 314 512 200 c 3
 512 87 421 -5 287 -5 c 3
 144 -5 56 109 56 200 c 3
 56 314 165 413 292 413 c 3
EndSplineSet
Validated: 1
EndChar

StartChar: p.pcap
Encoding: 57362 57362 658
GlifName: p.pcap
Width: 450
VWidth: 1159
Flags: HW
HStem: -11 24<71.375 89.7561> -7 30<197.549 247.467> 137 22<188.381 267.381> 375 27<62 107.201> 383 17<189.25 256.132>
VStem: 119.777 68.2225<29.0413 140 159.212 368.493> 322 77<198.752 332.8>
AnchorPoint: "Top" 234 465 basechar 0
AnchorPoint: "Bottom" 172 -15 basechar 0
LayerCount: 2
Fore
SplineSet
215 161 m 1x2e
 264 161 322 185.509803922 322 261 c 1
 322 314.041015625 296.360487351 355.382581287 275 366 c 0
 251.270416231 377.794998991 223 379 192 379 c 1
 189 379 187.813258066 367.377126445 188 359 c 0
 189 314.140625 185 242.157226562 187 166 c 1
 196 163.142857143 203 161 215 161 c 1x2e
62 402 m 1xb6
 78 401 107 400 130 400 c 1
 171 400 203 406 243 406 c 1
 338 406 399 328.576171875 399 266 c 1
 399 175 311 137 213 137 c 1
 200 137 199 138 188 140 c 1
 189 104 189.447841401 70.3129515929 192 55 c 0
 197 25 207 29 249 23 c 1
 247 -7 l 1x6e
 218.678845466 -1.80778833541 193.031316912 1.15640167878 167.007573975 1.15640167878 c 0
 137.89851594 1.15640167878 108.318749255 -2.55230787577 74 -11 c 1
 65 13 l 1
 108 33 115.188554793 33.0407677813 117 61 c 0
 118.887505004 90.1331973528 119.777460969 124.398734412 119.777460969 160.807383472 c 3
 119.777460969 220.845231195 118.541782935 286.811279179 113 345 c 0
 111 366 99 374 60 375 c 1
 62 402 l 1xb6
EndSplineSet
Validated: 33
EndChar

StartChar: q.pcap
Encoding: 57363 57363 659
GlifName: q.pcap
Width: 536
VWidth: 1187
Flags: W
HStem: -151 45<511.234 697.402> 387 25<200.543 301.354>
VStem: 56 79<133.614 305.461> 395 82<119.831 297.057>
AnchorPoint: "Top" 272 465 basechar 0
AnchorPoint: "Bottom" 265 -15 basechar 0
LayerCount: 2
Fore
SplineSet
254 387 m 3
 183 387 135 339 135 243 c 3
 135 138 190 29 279 29 c 3
 351 29 395 87 395 188 c 3
 395 308 331 387 254 387 c 3
342 14 m 1
 447 -51 508 -106 619 -106 c 3
 675 -106 743 -94 764 -82 c 1
 772 -103 l 1
 747 -117 639 -151 565 -151 c 3
 446 -151 373 -79 246 -6 c 1
 143 0 56 96 56 210 c 3
 56 349 162 412 271 412 c 3
 377 412 477 333 477 211 c 3
 477 116 415 47 342 14 c 1
EndSplineSet
Validated: 1
EndChar

StartChar: r.pcap
Encoding: 57364 57364 660
GlifName: r.pcap
Width: 504
VWidth: 1159
Flags: W
HStem: -19 24<447.841 495> -7 29<65.0345 101.478 193.414 227.207> 185 28<178 233.465> 377 24<60 99.193> 384 24<192.351 257.485>
VStem: 112.201 65.7986<29.8346 188 215 371.584> 311 75<240.713 345.616>
AnchorPoint: "Top" 242 465 basechar 0
AnchorPoint: "Bottom" 268 -15 basechar 0
LayerCount: 2
Fore
SplineSet
178 215 m 1x2e
 199 214 210 213 231 213 c 1
 284 213 311 244.849609375 311 288 c 1
 311 327 277 383 215 384 c 1
 202 382 189 380 183 348 c 0
 176 311.450195312 177 256.625976562 178 215 c 1x2e
60 401 m 1x76
 87 400 105 400 135 400 c 1
 178 400 197 408 246 408 c 1
 322 408 386 360 386 300 c 1
 386 250.009765625 348 216.34375 304 199 c 1
 381 79 416 4 500 5 c 1
 495 -19 l 1xae
 376 -29 294 55 228 185 c 1
 226 185 224 185 223 185 c 1
 204 185 197 187 178 188 c 1
 180 136 182 98 187 55 c 0
 189 29 201 27 231 22 c 1
 226 -7 l 1
 197.425492647 -1.50490243204 167.643141402 1.57450735341 137.980390272 1.57450735341 c 0
 113.66275113 1.57450735341 89.4254926466 -0.495097567964 66 -5 c 1
 62 22 l 1
 93 24 104 29 107 54 c 1
 110.406586177 126.508055684 112.201390495 171.680668809 112.201390495 217.753164684 c 7
 112.201390495 252.827882144 111.161178186 288.424143432 109 337 c 1
 104 369 96 376 60 377 c 1
 60 401 l 1x76
EndSplineSet
Validated: 33
EndChar

StartChar: s.pcap
Encoding: 57365 57365 661
GlifName: s.pcap
Width: 414
VWidth: 1159
Flags: W
HStem: -6 31<155.965 266.748> 384 25<169.578 268.996>
VStem: 54 24<91.6994 119.458> 67 21<0 6.50534> 73 66<264.099 350.476> 292 66<45.8381 137.313> 325 24<293.377 332.982>
AnchorPoint: "Top" 223 465 basechar 0
AnchorPoint: "Bottom" 207 -15 basechar 0
LayerCount: 2
Fore
SplineSet
54 118 m 1xe0
 78 123 l 1
 81 104 89.4912109375 86.5087890625 104 72 c 0
 131 45 187 25 221 25 c 1
 268 25 292 60 292 87 c 1xe4
 292 163 192.236328125 169.505859375 137 195 c 0
 124 201 73 227 73 285 c 1
 73 344 122 409 228 409 c 1
 255 409 283.063476562 403.29296875 293 401 c 0
 306 398 317 396 328 404 c 1
 348 398 l 1
 338.142578125 347.727539062 339.514648438 344.572265625 349 296 c 1
 346 294 335 291 325 290 c 1
 323 296 318.317382812 316.068359375 316 326 c 0
 309 356 259 384 218 384 c 1
 188 384 139 374 139 311 c 1xca
 139 245 191.9765625 258.947265625 281 220 c 0
 345 192 358 140 358 106 c 1
 358 60 320 -6 204 -6 c 1
 166 -6 135 -3 105 8 c 1
 92 11 92 9 88 -3 c 1
 67 0 l 1xd4
 67 34 63 74 54 118 c 1xe0
EndSplineSet
Validated: 33
EndChar

StartChar: t.pcap
Encoding: 57366 57366 662
GlifName: t.pcap
Width: 478
VWidth: 1159
Flags: W
HStem: -13 32<139.906 192.461> 366 37<75.7768 205.168 288 408.619> 391 29G<62 72 435 454>
VStem: 201 87<254.902 366> 209.507 72.412<31.6661 365.234> 408 25<316.88 357.255>
AnchorPoint: "Top" 247 465 basechar 0
AnchorPoint: "Bottom" 245 -15 basechar 0
LayerCount: 2
Fore
SplineSet
113 403 m 0xd4
 177.575131106 401.062746067 242.984251724 399.959481645 308.419537123 399.959481645 c 0
 344.316272701 399.959481645 380.220882418 400.291502622 416 401 c 0
 426 401 433 406 437 411 c 1
 454 400 l 1
 445 374 435 351 433 314 c 1
 408 318 l 1
 408 318 410 332 411 335 c 1
 420 373 316 368 288 366 c 1xd4
 284.125492134 300.072827086 281.91896329 240.5960418 281.91896329 177.572813099 c 0xcc
 281.91896329 142.999292679 282.583005244 107.358490849 284 69 c 0
 287 25 286 28 344 21 c 1
 340 -7 l 5
 317.933660737 -2.27149872943 290.432909327 -0.182569073572 262.025246319 -0.182569073572 c 0
 218.339885218 -0.182569073572 172.509827828 -5.12254304312 141 -13 c 5
 136 19 l 1
 198 29 199 36 201 54 c 0xd4
 205.083333333 92.442464193 209.506944444 179.237935385 209.506944444 252.455858019 c 0xcc
 209.506944444 304.754374187 207.25 350.125569662 201 366 c 1xd4
 159 368 136 367 102 358 c 0
 76 351 77 355 50 311 c 1
 24 323 l 1
 39 354 58 403 66 420 c 1xb4
 78 411 90 404 113 403 c 0xd4
EndSplineSet
Validated: 33
EndChar

StartChar: u.pcap
Encoding: 57367 57367 663
GlifName: u.pcap
Width: 562
VWidth: 1159
Flags: W
HStem: -6 38<211.789 381.26> 379 25<50.16 92.7586 186.969 230.913 479.043 522.502>
VStem: 99 72<68.5834 324.974> 427 38<73.533 350.901>
AnchorPoint: "Top" 295 465 basechar 0
AnchorPoint: "Bottom" 280 -15 basechar 0
LayerCount: 2
Fore
SplineSet
51 404 m 5
 71.5 402 103 401 136 401 c 0
 169 401 203.5 402 230 404 c 5
 233 381 l 1
 195 378 177 374 174 325 c 0
 174 327.09375 171 158.517578125 171 147 c 1
 171 114 178 85 195 65 c 0
 214 43 245 32 297 32 c 1
 315 32 365 31 397 60 c 0
 419 80 425 105 427 148 c 0
 429 201.159179688 427 289.756835938 426 345 c 0
 424 380 407 378 367 379 c 1
 368 404 l 5
 386.103264422 401.805664919 424.068842948 400.213218143 458.453518478 400.213218143 c 0
 486.747830895 400.213218143 512.617426718 401.291502622 523 404 c 5
 525 378 l 1
 492 378 477 380 474 348 c 0
 471 344.875976562 466 279.264648438 465 147 c 0
 465 102 450 68 427 43 c 0
 394 10 341 -6 272 -6 c 1
 207 -6 162 9 134 36 c 0
 110 60 98 94 99 136 c 0
 100 147.465820312 102 326.74609375 101 333 c 0
 97 373 96 372 48 379 c 1
 51 404 l 5
EndSplineSet
Validated: 33
EndChar

StartChar: v.pcap
Encoding: 57368 57368 664
GlifName: v.pcap
Width: 536
VWidth: 1159
Flags: W
HStem: 384 21<30.6667 59.2904 159.546 201>
VStem: 257 31<-22 26.5269>
AnchorPoint: "Top" 286 465 basechar 0
AnchorPoint: "Bottom" 274 -15 basechar 0
LayerCount: 2
Fore
SplineSet
201 404 m 5
 201 383 l 1
 188 383 174.5078125 380.626953125 168 379 c 0
 152 375 156 370 159 364 c 1
 161 359.8515625 288 94.3701171875 297 84 c 1
 300 90.224609375 409 351.663085938 412 361 c 1
 414 367 412 374 399 378 c 0
 395 379 370 385 369 385 c 1
 370 408 l 5
 392.810546875 403.631835938 421.0390625 401.619140625 447.482421875 401.619140625 c 0
 475.524414062 401.619140625 501.559570312 403.8828125 517 408 c 5
 520 384 l 1
 491 381 473 369 446 327 c 0
 433 308.361328125 339 123.014648438 303 35 c 0
 296 19 289 -4 288 -22 c 1
 257 -22 l 1
 257 -4 249 9 239 33 c 0
 213 90.904296875 151 216.020507812 87 337 c 0
 66 373 58 380 28 384 c 1
 32 405 l 5
 61.6865234375 401.5078125 84.322265625 400.301757812 106.228515625 400.301757812 c 0
 134.500976562 400.301757812 161.560546875 402.309570312 201 404 c 5
EndSplineSet
Validated: 1
EndChar

StartChar: w.pcap
Encoding: 57369 57369 665
GlifName: w.pcap
Width: 682
VWidth: 1159
Flags: W
HStem: -13 24G<245.5 269 452.5 474> 384 24<167.121 199.364 247.909 278.917 384.455 431.75 505 556.36 642.595 662.96> 384 16.6191<505.776 549.85> 391 20G<21.037 35.1987>
VStem: 246 23<-13 23.3112> 453 21<-9 19.9164>
AnchorPoint: "Top" 363 465 basechar 0
AnchorPoint: "Bottom" 360 -15 basechar 0
LayerCount: 2
Fore
SplineSet
662 407 m 5xcc
 666 383 l 1
 616 368 616 334 582 254 c 1
 514 80.22265625 497 45.466796875 486 24 c 0
 480 10 475 4 474 -9 c 1
 453 -10 l 1
 452 2 454 11 443 34 c 0
 412 100.674804688 390 166.325195312 360 233 c 1
 324 139.874023438 302 80.5185546875 276 14 c 0
 272 2 269 -4 269 -13 c 1
 246 -13 l 1
 245 -3 246 7 231 41 c 0
 166 198.732421875 101 328.62890625 88 341 c 0
 84 346 80 352 68 366 c 0
 56 381 37 383 20 384 c 1xac
 24 411 l 5x9c
 46.3974609375 404.228515625 79.1044921875 400.984375 112.370117188 400.984375 c 0
 142.970703125 400.984375 174.043945312 403.729492188 198 409 c 5
 203 386 l 1
 173 386 164 377 164 357 c 1
 164 350 167 341 170 335 c 1
 169 342.28125 284 86.3974609375 283 102 c 1
 295 124.674804688 321 211.251953125 340 270 c 1
 309 342.799804688 294 354.93359375 291 361 c 1
 277 380 256 381 245 386 c 1
 249 406 l 5
 275.6875 402.603515625 305.671875 400.619140625 336.095703125 400.619140625 c 0xac
 368.372070312 400.619140625 401.143554688 402.852539062 431 408 c 5xcc
 434 384 l 1xac
 433 384 414 383 407 384 c 0
 386 384 378 370 383 358 c 1
 383 353.903320312 491 90.66015625 486 105 c 1
 524 178.884765625 538 225.0625 558 301 c 0
 573 357 575 384 505 382 c 1
 505 404 l 5
 521.467773438 402.169921875 543.166015625 400.96875 567.606445312 400.96875 c 0
 596.596679688 400.96875 629.4453125 402.659179688 662 407 c 5xcc
EndSplineSet
Validated: 33
EndChar

StartChar: x.pcap
Encoding: 57370 57370 666
GlifName: x.pcap
Width: 509
VWidth: 1159
Flags: W
HStem: -4 21<175.571 204> -1 25<297.947 322.617 448.592 483.32> 384 23<38 67.0171 185.459 214 285.087 314.826 417.817 451.583>
AnchorPoint: "Top" 257 465 basechar 0
AnchorPoint: "Bottom" 257 -15 basechar 0
LayerCount: 2
Fore
SplineSet
38 403 m 1xa0
 69.0607976672 401.629670691 95.7400563669 400.467986095 121.373415691 400.467986095 c 0
 151.858010989 400.467986095 180.863362613 402.110987927 214 407 c 1
 215 384 l 1
 211 383 201 383 192 381 c 0
 182 378 185 365 190 355 c 1
 192 351 264 244 266 242 c 1
 291 278.280273438 308 310.415039062 318 327 c 0
 325 338 332 363 314 373 c 1
 310 375 286 384 283 384 c 1
 286 404 l 1
 306.747310584 401.838821814 331.231174089 400.798609505 356.302201416 400.798609505 c 0
 389.23432138 400.798609505 423.179546221 402.593413823 451 406 c 1
 453 383 l 1
 445 381 416 378 389 354 c 0
 375 342.733398438 370 338.63671875 281 227 c 1
 310 192.381835938 409 69.181640625 421 59 c 1
 450 29 461 31 485 24 c 1
 483 -1 l 1x60
 465.222273835 2.55533854167 435.197669645 4.3330078125 403.63671875 4.3330078125 c 0
 364.185328723 4.3330078125 322.333384713 1.55533854167 299 -4 c 1
 294 18 l 1
 299 23 311 25 317 29 c 0
 333 40 323 60 313 75 c 0
 294 107.979492188 276 134.775390625 244 176 c 1
 209 129.713867188 192 98.857421875 174 68 c 0
 167 56 159 36 179 25 c 0
 188 20 199 18 204 17 c 1
 204 -4 l 1
 176.312389254 -1.91036900029 147.533139079 -0.366557714949 119.373092168 -0.366557714949 c 0
 93.6287953657 -0.366557714949 68.4020202536 -1.65685424949 45 -5 c 1
 44 17 l 1
 55 18 85 30 111 55 c 0
 120.231445312 64.0732421875 123 60.111328125 227 193 c 1
 115 332 110.6171875 336.142578125 102 344 c 0
 68 375 54 383 38 385 c 1
 38 403 l 1xa0
EndSplineSet
Validated: 33
EndChar

StartChar: y.pcap
Encoding: 57371 57371 667
GlifName: y.pcap
Width: 499
VWidth: 1159
Flags: W
HStem: -11 27<168.185 206.747 323.93 362.656> 382 25<33.44 68.7653 304 342.606 427.785 467>
AnchorPoint: "Top" 258 465 basechar 0
AnchorPoint: "Bottom" 264 -15 basechar 0
LayerCount: 2
Fore
SplineSet
208 380 m 1
 205 380 196.891151391 379.315191898 189 378 c 0
 177 376 175 369 183 356 c 1
 233 271.41015625 273 231.229492188 277 227 c 1
 310 283.747070312 335 326.576171875 338 333 c 1
 346 348 352 364 339 373 c 0
 333 378 315 380 303 381 c 1
 304 407 l 1
 317.6953125 404.618164062 359.3984375 401.52734375 398.922851562 401.52734375 c 3
 425.77734375 401.52734375 451.625976562 402.954101562 467 407 c 1
 467 379 l 1
 426 376 412 362 386 337 c 1
 352 305.333007812 322 250.444335938 297 204 c 1
 296 178 294 146 305 60 c 0
 310 29 320 27 365 21 c 1
 362 -7 l 1
 333.145507812 -3.087890625 300.942382812 -0.37109375 268.548828125 -0.37109375 c 3
 234.706054688 -0.37109375 200.65625 -3.3359375 170 -11 c 1
 163 16 l 1
 208 25 227 33 229 71 c 1
 229 68 228 181 227 178 c 1
 226 183.217773438 172 267.739257812 99 346 c 1
 74 369 68 373 32 382 c 1
 34 407 l 1
 54.5029296875 404.587890625 100.459960938 402.17578125 140.953125 402.17578125 c 0
 167.610351562 402.17578125 191.899414062 403.220703125 205 406 c 1
 208 380 l 1
EndSplineSet
Validated: 33
EndChar

StartChar: z.pcap
Encoding: 57372 57372 668
GlifName: z.pcap
Width: 504
VWidth: 1159
Flags: W
HStem: -4 31<169.416 334.724> 374 29<125.908 333.172> 404 20G<79.5 97>
AnchorPoint: "Top" 263 465 basechar 0
AnchorPoint: "Bottom" 247 -15 basechar 0
LayerCount: 2
Fore
SplineSet
45 310 m 1
 86 403.944335938 67 417.666992188 92 424 c 1
 102 403 127.8984375 403.801757812 145 403 c 0
 161 402.25 357.981445312 400 418 400 c 0
 425 400 436 401 440 402 c 1
 448 388 l 1
 447 387 431.5546875 366.83203125 431 366 c 0
 429 362.9453125 175 45.2724609375 169 30 c 1
 178 28 179.008789062 26.2099609375 213 27 c 0
 342 30 431 66 440 102 c 1
 459 93 l 1
 435 38 426 11 409 -17 c 1
 394 -10 387.948242188 -6.2509765625 339 -4 c 0
 252 -0 103 5 54 0 c 1
 47 18 l 1
 70 30 90 50 105 68 c 1
 183 165.965820312 262 266.993164062 332 367 c 1
 334 369 l 1
 318 373 194 374 188 374 c 1
 142 374 99 355.5 65 300 c 1
 45 310 l 1
EndSplineSet
Validated: 33
EndChar

StartChar: Q.alt
Encoding: 58116 58116 670
GlifName: Q_.alt
Width: 803
VWidth: 1159
Flags: W
HStem: -260 55<872.691 1100.74> -5 51<311.167 428.106> 673 32<291.987 457.678>
VStem: 41 98<254.599 491.133> 637 102<243.515 484.222>
AnchorPoint: "Top" 393 699 basechar 0
AnchorPoint: "Bottom" 341 -15 basechar 0
AnchorPoint: "Middle" 390.697 364.853 basechar 0
LayerCount: 2
Fore
SplineSet
376 673 m 3
 238 673 139 557.667808219 139 390 c 3
 139 213.028901734 240 46 402 46 c 3
 541 46 637 170.169435216 637 345 c 3
 637 552.3115727 516 673 376 673 c 3
508.096 23.0389 m 1
 701.905 -90.0168 811.39 -205 1009 -205 c 0
 1100.17 -205 1205.38 -178 1242 -156 c 1
 1253 -187 l 1
 1212.23 -209 1065.3 -260 943 -260 c 0
 738.862 -260 636.793 -128.029 395 -5 c 1
 183.611 -5 41 164.081081081 41 363 c 3
 41 576.384615384 196 705 387 705 c 3
 579 705 739 559.842406877 739 365 c 3
 739 211.822874563 643.407 78.0418089716 508.096 23.0389 c 1
EndSplineSet
Validated: 1
Position2: "cpsp-1" dx=0 dy=0 dh=50 dv=100
EndChar

StartChar: R.alt
Encoding: 58117 58117 671
GlifName: R_.alt
Width: 738
VWidth: 1159
Flags: W
HStem: -33 37<640.104 701> -10 44<52.8864 115.253 230.451 296.273> 321.623 40.3771<209 336.189> 656 37<43 110.652> 665 42<228.951 393.009>
VStem: 119 102<45.5 322.52> 126.524 82.4764<113.522 327 367 642.874> 487 87<439.148 576.324>
LayerCount: 2
Fore
SplineSet
209 367 m 1x2b
 250 366 271 362 312 362 c 3
 458 362 487 456.725585938 487 509 c 3
 487 567.838867188 426 665 310 665 c 3
 279 665 215.9765625 658.001953125 212 615 c 0
 205 540.544921875 207 441.455284553 209 367 c 1x2b
43 693 m 1x73
 86 692 111 691 154 691 c 3
 223 691 252 707 331 707 c 3
 464 707 574 621.338867188 574 520 c 3
 574 428.146484375 502.275 363.265269207 424.5 339.094 c 1
 521.463 138.645 586.104 6.02474 708 4 c 1
 701 -33 l 1
 534.639 -38.0154 398.185 152.57 336.5 323.094 c 1
 329.896985322 322.044110955 321.334966604 321.622858562 311.415699955 321.622858562 c 3
 283.543290642 321.622858562 244.95447726 324.948935359 209 327 c 1xab
 214 231 216.619682505 162.035873653 221 81 c 0
 223 44 248 39 303 34 c 1
 295 -10 l 1
 251.980060644 -0.858262886928 208.960121289 3.94586051795 165.784678701 3.94586051795 c 3
 128.670947042 3.94586051795 91.4423114024 0.396012128874 54 -7 c 1
 47 34 l 1
 100 36 115 38 119 69 c 1x65
 124.31625054 192.337012532 126.523623902 277.236998127 126.523623902 360.962114561 c 3
 126.523623902 434.726032553 124.810249676 507.578011235 122 605 c 1
 117 642 106 654 43 656 c 1
 43 693 l 1x73
EndSplineSet
Validated: 33
Position2: "cpsp-1" dx=0 dy=0 dh=50 dv=100
EndChar

StartChar: one.tabulartext
Encoding: 58369 58369 673
GlifName: one.tabulartext
Width: 463
VWidth: 1159
Flags: W
HStem: 0 26<93 166.247 289.883 371> 369 23<103 179.605> 379 23<307.875 365.609>
VStem: 204 61<48.023 357.148>
LayerCount: 2
Fore
SplineSet
103 392 m 1xd0
 172.369140625 387.885742188 291.024414062 388.837890625 365 402 c 9
 367 379 l 1xb0
 279.307617188 367 280.768554688 358 272 327 c 0
 271 318 265 249 265 200 c 27
 265 145 270 68 272 58 c 0
 280.572265625 31 320.572265625 29 372 27 c 9
 371 0 l 1
 276.006835938 6.4775390625 188.291992188 7.2900390625 93 0 c 9
 91 26 l 1
 137.561523438 30 177.069335938 32 194 62 c 0
 198 71 204 94 204 200 c 3
 204 298 200 319 199 325 c 0
 190.313476562 357 196.10546875 365 102 369 c 9
 103 392 l 1xd0
EndSplineSet
Validated: 33
Substitution2: "pnum-1" one
Substitution2: "lnum-1" one.tabularlining
Substitution2: "numr-1" one.numerator
Substitution2: "dnom-1" one.denom
EndChar

StartChar: two.tabulartext
Encoding: 58370 58370 674
GlifName: two.tabulartext
Width: 463
VWidth: 1159
Flags: W
HStem: -11 21G<369 388.5> 2 64<114 384.376> 405 53<119.663 250.173>
VStem: 276 68<269.295 378.966>
LayerCount: 2
Fore
SplineSet
49 367 m 1x70
 80.1826171875 414.314453125 126.302734375 458 206 458 c 0
 282 458 344 405 344 335 c 3
 344 222 132.888671875 89 114 66 c 9x70
 354 69 l 2
 386 69 409 108 431 138 c 1
 451 121 l 1
 451 121 391 39 386 -11 c 1xb0
 352 5 277 2 203 2 c 0
 99.55859375 2 31.7470703125 0 26 0 c 1
 20 18 l 1
 66.1455078125 75 276 187 276 325 c 3
 276 382 229 405 185 405 c 0
 127.624023438 405 93.9462890625 381 69 353 c 1
 49 367 l 1x70
EndSplineSet
Validated: 33
Substitution2: "pnum-1" two
Substitution2: "lnum-1" two.tabularlining
Substitution2: "numr-1" two.numerator
Substitution2: "dnom-1" two.denom
EndChar

StartChar: three.tabulartext
Encoding: 58371 58371 675
GlifName: three.tabulartext
Width: 463
VWidth: 1159
Flags: W
HStem: -234 26<91.3077 114.271> 125 26<98.5769 135.392> 410 44<140.223 265.044>
VStem: 291 69<273.618 383.94> 312 74<-56.6663 81.7277>
LayerCount: 2
Fore
SplineSet
84 -208 m 1xe8
 252.150390625 -150.25390625 312 -83.791015625 312 11 c 3xe8
 312 98.20703125 244 134 148 137 c 1
 144.518554688 137 119.278320312 127.768554688 101 125 c 1
 92 151 l 1
 170.551757812 168.705078125 291 224.76953125 291 331 c 3
 291 395.53515625 227.12890625 410 203 410 c 3
 143.778320312 410 116.333007812 382.400390625 86 362 c 1
 72 380 l 1
 85.158203125 414 174.630859375 454 222 454 c 3
 296.018554688 454 360 409 360 344 c 3xf0
 360 254.698242188 254.356445312 187.720703125 250 184 c 1
 316 174 386 124.01953125 386 24 c 3
 386 -135.099609375 151.874023438 -226.474609375 94 -234 c 1
 84 -208 l 1xe8
EndSplineSet
Validated: 1
Substitution2: "pnum-1" three
Substitution2: "lnum-1" three.tabularlining
Substitution2: "numr-1" three.numerator
Substitution2: "dnom-1" three.denom
EndChar

StartChar: five.tabulartext
Encoding: 58373 58373 677
GlifName: five.tabulartext
Width: 463
VWidth: 1159
Flags: W
HStem: 326.5 67<155.721 377.458>
VStem: 287 63<-35.1918 93.1643>
LayerCount: 2
Fore
SplineSet
133 393.5 m 9
 217.629882812 395.450195312 329.615234375 396 350 398.5 c 0
 376.412109375 402.759765625 390.110351562 428.610351562 402 448.5 c 9
 402 448.5 421.3203125 436.83984375 426 434.5 c 9
 398.700195312 392.379882812 373.5 326 356 326.5 c 0
 314.529296875 327.372070312 243.248046875 323.5 159 323.5 c 9
 159 323.5 147 264.299804688 147 217.5 c 1
 232.884765625 224 350 176.166015625 350 48.5 c 3
 350 -95.595703125 173.318359375 -206 51 -215 c 9
 51 -215 51.33984375 -188.849609375 49 -183 c 1
 147.483398438 -180 287 -92.1005859375 287 28 c 3
 287 87.0654296875 239.772460938 164 97 152 c 1
 110.6796875 208 127.7578125 305.161132812 133 393.5 c 9
EndSplineSet
Validated: 33
Substitution2: "pnum-1" five
Substitution2: "lnum-1" five.tabularlining
Substitution2: "numr-1" five.numerator
Substitution2: "dnom-1" five.denom
EndChar

StartChar: zero.tabularlining
Encoding: 58378 58378 682
GlifName: zero.tabularlining
Width: 463
VWidth: 1159
Flags: W
HStem: -10 33<200.172 292.266> 620 36<165.683 267.028>
VStem: 35 73<175.959 491.558> 348 79<157.951 499.232>
LayerCount: 2
Fore
SplineSet
219 620 m 7
 141.509433962 620 108 543.398949795 108 354 c 3
 108 176.613265447 165.5765251 23 239 23 c 3
 325.97979798 23 348 107.064234545 348 322 c 3
 348 487.177727299 305.647431786 620 219 620 c 7
239 656 m 7
 343.227979275 656 427 551.959552144 427 333 c 3
 427 101.874866141 341.78125 -10 225 -10 c 3
 119.55 -10 35 101.874866141 35 333 c 3
 35 548.72875571 128.286432161 656 239 656 c 7
EndSplineSet
Validated: 1
Substitution2: "pnum-1" zero.proportionallining
Substitution2: "onum-1" zero.tabulartext
Substitution2: "numr-1" zero.numerator
Substitution2: "dnom-1" zero.denom
Substitution2: "'zero' Slashed Zero lookup 22-1" zero.tabularliningalt
EndChar

StartChar: one.tabularlining
Encoding: 58379 58379 683
GlifName: one.tabularlining
Width: 463
VWidth: 1159
Flags: W
HStem: 0 26<93 174.573 289.883 371> 603 22<103 182.532> 625 24<323.413 365.583>
VStem: 204 61<95.4644 546.651>
LayerCount: 2
Fore
SplineSet
103 625 m 5xd0
 125.856587263 625.012448621 154.127779718 624.254039171 184.260742188 624.838867188 c 4
 268.71030146 626.803068899 315.398555042 632.693947502 365 649 c 5
 367 625 l 5xb0
 279.308 604.487179487 277.19494167 596.646518559 272 565 c 4
 269.563274304 547.856891322 265 414.527559054 265 320 c 3
 265 218.521126761 266.384158963 75.6887200177 272 58 c 0
 280.572 31 320.572 29 372 27 c 1
 371 0 l 1
 276.007 6.4775390625 188.292 7.2900390625 93 0 c 1
 91 26 l 1
 137.562 30 186.032864173 28.4860699453 194 62 c 0
 198 78.8260869565 204 121.826086957 204 320 c 3
 204 510.512 201.707081555 551.760706468 199 563 c 4
 190.313 592.09090909 196.105 599.363636364 102 603 c 5
 103 625 l 5xd0
EndSplineSet
Validated: 33
Substitution2: "pnum-1" one.proportionallining
Substitution2: "onum-1" one.tabulartext
Substitution2: "numr-1" one.numerator
Substitution2: "dnom-1" one.denom
Substitution2: "salt-1" one.tabularliningalt
EndChar

StartChar: two.tabularlining
Encoding: 58380 58380 684
GlifName: two.tabularlining
Width: 463
VWidth: 1159
Flags: W
HStem: -11 21G<365 384.5> 2 64<91 380.376> 584 53<144.137 265.568>
VStem: 322 70<380.132 524.895>
LayerCount: 2
Fore
SplineSet
45 515 m 1x70
 83.3330078125 578.43359375 140.028320312 637 238 637 c 3
 322.811523438 637 392 562.885742188 392 465 c 3
 392 297.390153104 116.7265625 116.181837248 91 66 c 1x70
 350 69 l 2
 381.995117188 69.3720703125 405 108 427 138 c 1
 447 121 l 1
 447 121 387 39 382 -11 c 1xb0
 348 5 273 2 199 2 c 0
 95.55859375 2 27.7470703125 0 22 0 c 1
 16 18 l 1
 102.158203125 165.690939739 322 250.857683121 322 441 c 3
 322 534.4765625 260.5390625 584 203 584 c 3
 134.743164062 584 94.677734375 545.69140625 65 501 c 1
 45 515 l 1x70
EndSplineSet
Validated: 33
Substitution2: "pnum-1" two.proportionallining
Substitution2: "onum-1" two.tabulartext
Substitution2: "numr-1" two.numerator
Substitution2: "dnom-1" two.denom
EndChar

StartChar: three.tabularlining
Encoding: 58381 58381 685
GlifName: three.tabularlining
Width: 463
VWidth: 1159
Flags: W
HStem: -16 26<99.3077 122.271> 320 26<106.577 147.534> 597 44<148.223 268.15>
VStem: 299 69<458.643 567.04> 320 74<155.126 282.585>
LayerCount: 2
Fore
SplineSet
92 10 m 1xe8
 260.150390625 65.3728926809 320 129.104517886 320 220 c 3xe8
 320 297.517361111 252 329.333333333 156 332 c 1
 152.518554688 332 127.278320312 322.768554688 109 320 c 1
 100 346 l 1
 178.551757812 361.836208767 299 411.982747396 299 507 c 3
 299 580.521012931 235.12890625 597 211 597 c 3
 151.778320312 597 124.333007812 569.400390625 94 549 c 1
 80 567 l 1
 93.158203125 601 182.630859375 641 230 641 c 3
 304.018554688 641 368 591.500273106 368 520 c 3xf0
 368 441.302825928 262.356445312 382.278869629 258 379 c 1
 324 369.875 394 324.267822266 394 233 c 3
 394 79.4505464361 159.874023438 -8.7369535639 102 -16 c 1
 92 10 l 1xe8
EndSplineSet
Validated: 1
Substitution2: "pnum-1" three.proportionallining
Substitution2: "onum-1" three.tabulartext
Substitution2: "numr-1" three.numerator
Substitution2: "dnom-1" three.denom
EndChar

